<?xml version="1.0" encoding="UTF-8" standalone="no"?>
<svg
   xmlns:dc="http://purl.org/dc/elements/1.1/"
   xmlns:cc="http://creativecommons.org/ns#"
   xmlns:rdf="http://www.w3.org/1999/02/22-rdf-syntax-ns#"
   xmlns:svg="http://www.w3.org/2000/svg"
   xmlns="http://www.w3.org/2000/svg"
   xmlns:sodipodi="http://sodipodi.sourceforge.net/DTD/sodipodi-0.dtd"
   xmlns:inkscape="http://www.inkscape.org/namespaces/inkscape"
   viewBox="0 0 32 32"
   version="1.1"
   id="svg4"
   sodipodi:docname="DeleteColumns.svg"
   inkscape:version="0.92.4 (5da689c313, 2019-01-14)"
   width="32"
   height="32">
  <metadata
     id="metadata10">
    <rdf:RDF>
      <cc:Work
         rdf:about="">
        <dc:format>image/svg+xml</dc:format>
        <dc:type
           rdf:resource="http://purl.org/dc/dcmitype/StillImage" />
        <dc:title></dc:title>
      </cc:Work>
    </rdf:RDF>
  </metadata>
  <defs
     id="defs8" />
  <sodipodi:namedview
     pagecolor="#ffffff"
     bordercolor="#666666"
     borderopacity="1"
     objecttolerance="10"
     gridtolerance="10"
     guidetolerance="10"
     inkscape:pageopacity="0"
     inkscape:pageshadow="2"
     inkscape:window-width="1366"
     inkscape:window-height="707"
     id="namedview6"
     showgrid="true"
     inkscape:zoom="4.9166666"
     inkscape:cx="37.687685"
     inkscape:cy="21.989606"
     inkscape:window-x="0"
     inkscape:window-y="0"
     inkscape:window-maximized="1"
     inkscape:current-layer="svg4"
     inkscape:snap-page="false"
     inkscape:snap-grids="true"
     inkscape:snap-to-guides="false">
    <inkscape:grid
       type="xygrid"
       id="grid836"
       spacingx="0.5"
       spacingy="0.5"
       empspacing="2" />
  </sodipodi:namedview>
  <path
     style="fill:#cacac7;stroke:none;stroke-width:1px;stroke-linecap:butt;stroke-linejoin:miter;stroke-opacity:1;fill-opacity:1"
     d="m 13,4 h 6 v 24 h -6 z"
     id="path1083"
     inkscape:connector-curvature="0" />
  <path
     style="color:#000000;font-style:normal;font-variant:normal;font-weight:normal;font-stretch:normal;font-size:medium;line-height:normal;font-family:sans-serif;font-variant-ligatures:normal;font-variant-position:normal;font-variant-caps:normal;font-variant-numeric:normal;font-variant-alternates:normal;font-feature-settings:normal;text-indent:0;text-align:start;text-decoration:none;text-decoration-line:none;text-decoration-style:solid;text-decoration-color:#000000;letter-spacing:normal;word-spacing:normal;text-transform:none;writing-mode:lr-tb;direction:ltr;text-orientation:mixed;dominant-baseline:auto;baseline-shift:baseline;text-anchor:start;white-space:normal;shape-padding:0;clip-rule:nonzero;display:inline;overflow:visible;visibility:visible;opacity:1;isolation:auto;mix-blend-mode:normal;color-interpolation:sRGB;color-interpolation-filters:linearRGB;solid-color:#000000;solid-opacity:1;vector-effect:none;fill:#555753;fill-opacity:1;fill-rule:nonzero;stroke:none;stroke-width:1.9970392;stroke-linecap:round;stroke-linejoin:round;stroke-miterlimit:4;stroke-dasharray:none;stroke-dashoffset:0;stroke-opacity:1;color-rendering:auto;image-rendering:auto;shape-rendering:auto;text-rendering:auto;enable-background:accumulate"
     d="M 19 2 L 18.771484 2.0761719 L 4 2.0761719 A 1.0001 0.99714113 0 0 0 3 3.0742188 L 3 28.996094 A 1.0001 0.99714113 0 0 0 4 29.994141 L 28 29.994141 A 1.0001 0.99714113 0 0 0 29 28.996094 L 29 3.0742188 A 1.0001 0.99714113 0 0 0 28 2.0761719 L 19 2.0761719 L 19 2 z M 5 4.0703125 L 8 4.0703125 L 8 12 L 5 12 L 5 4.0703125 z M 9 4.0703125 L 12 4.0703125 L 12 12 L 9 12 L 9 4.0703125 z M 18.789062 4.0703125 L 19 4.0703125 L 19 7 L 13 9 L 13 6 L 18.789062 4.0703125 z M 20 4.0703125 L 23 4.0703125 L 23 12 L 20 12 L 20 4.0703125 z M 24 4.0703125 L 27 4.0703125 L 27 12 L 24 12 L 24 4.0703125 z M 19 9 L 19 12 L 13 14 L 13 11 L 19 9 z M 5 13 L 8 13 L 8 19 L 5 19 L 5 13 z M 9 13 L 12 13 L 12 19 L 9 19 L 9 13 z M 20 13 L 23 13 L 23 19 L 20 19 L 20 13 z M 24 13 L 27 13 L 27 19 L 24 19 L 24 13 z M 19 14 L 19 17 L 13 19 L 13 16 L 19 14 z M 19 19 L 19 20 L 19 22 L 13 24 L 13 21 L 19 19 z M 5 20 L 8 20 L 8 28 L 5 28 L 5 20 z M 9 20 L 12 20 L 12 28 L 9 28 L 9 20 z M 20 20 L 23 20 L 23 28 L 20 28 L 20 20 z M 24 20 L 27 20 L 27 28 L 24 28 L 24 20 z M 19 24 L 19 28 L 13 28 L 13 26 L 19 24 z "
     id="path995" />
</svg>
