<?xml version="1.0" encoding="UTF-8" standalone="no"?>
<svg
   xmlns:dc="http://purl.org/dc/elements/1.1/"
   xmlns:cc="http://creativecommons.org/ns#"
   xmlns:rdf="http://www.w3.org/1999/02/22-rdf-syntax-ns#"
   xmlns:svg="http://www.w3.org/2000/svg"
   xmlns="http://www.w3.org/2000/svg"
   xmlns:sodipodi="http://sodipodi.sourceforge.net/DTD/sodipodi-0.dtd"
   xmlns:inkscape="http://www.inkscape.org/namespaces/inkscape"
   viewBox="0 0 32 32"
   version="1.1"
   id="svg4"
   sodipodi:docname="InsertColumnsAfter.svg"
   inkscape:version="0.92.4 (5da689c313, 2019-01-14)"
   width="32"
   height="32">
  <metadata
     id="metadata10">
    <rdf:RDF>
      <cc:Work
         rdf:about="">
        <dc:format>image/svg+xml</dc:format>
        <dc:type
           rdf:resource="http://purl.org/dc/dcmitype/StillImage" />
        <dc:title />
      </cc:Work>
    </rdf:RDF>
  </metadata>
  <defs
     id="defs8" />
  <sodipodi:namedview
     pagecolor="#ffffff"
     bordercolor="#666666"
     borderopacity="1"
     objecttolerance="10"
     gridtolerance="10"
     guidetolerance="10"
     inkscape:pageopacity="0"
     inkscape:pageshadow="2"
     inkscape:window-width="1366"
     inkscape:window-height="707"
     id="namedview6"
     showgrid="true"
     inkscape:zoom="6.9532166"
     inkscape:cx="4.6788432"
     inkscape:cy="5.202347"
     inkscape:window-x="0"
     inkscape:window-y="0"
     inkscape:window-maximized="1"
     inkscape:current-layer="svg4"
     inkscape:snap-page="false"
     inkscape:snap-grids="true"
     inkscape:snap-to-guides="false">
    <inkscape:grid
       type="xygrid"
       id="grid836"
       spacingx="0.5"
       spacingy="0.5"
       empspacing="2" />
  </sodipodi:namedview>
  <path
     style="color:#000000;font-style:normal;font-variant:normal;font-weight:normal;font-stretch:normal;font-size:medium;line-height:normal;font-family:sans-serif;font-variant-ligatures:normal;font-variant-position:normal;font-variant-caps:normal;font-variant-numeric:normal;font-variant-alternates:normal;font-feature-settings:normal;text-indent:0;text-align:start;text-decoration:none;text-decoration-line:none;text-decoration-style:solid;text-decoration-color:#000000;letter-spacing:normal;word-spacing:normal;text-transform:none;writing-mode:lr-tb;direction:ltr;text-orientation:mixed;dominant-baseline:auto;baseline-shift:baseline;text-anchor:start;white-space:normal;shape-padding:0;clip-rule:nonzero;display:inline;overflow:visible;visibility:visible;opacity:1;isolation:auto;mix-blend-mode:normal;color-interpolation:sRGB;color-interpolation-filters:linearRGB;solid-color:#000000;solid-opacity:1;vector-effect:none;fill:#555753;fill-opacity:1;fill-rule:nonzero;stroke:none;stroke-width:5.02220011;stroke-linecap:round;stroke-linejoin:round;stroke-miterlimit:4;stroke-dasharray:none;stroke-dashoffset:0;stroke-opacity:1;color-rendering:auto;image-rendering:auto;shape-rendering:auto;text-rendering:auto;enable-background:accumulate"
     d="M 6 2 C 4 2 2.0156846 3.9998826 2.015625 5.28125 L 2.015625 26.669922 C 2.0157093 28.514908 3.5 30.009766 5 30.009766 L 27 30.009766 C 28.5 30.009499 29.986224 28.514908 29.986328 26.669922 L 29.986328 5.28125 C 29.986224 3.4690759 28 2 26 2 L 26 4 L 24.875 5 L 25 5 L 27 5 L 27 6 L 25 6 L 24 6 L 23.75 6 L 22.625 7 L 24 7 L 25 7 L 27 7 L 27 9 L 27 10 L 27 12 L 25 12 L 24 12 L 22 12 L 22 10 L 22 9 L 22 7.5546875 L 21.5 8 L 21 7.5546875 L 21 12 L 21 20 L 21 25 L 21 26 L 21 27 L 11 27 L 11 26 L 11 25 L 11 20 L 11 12 L 11 7 L 11 6 L 11 5 L 18.125 5 L 17 4 L 17 2 L 6 2 z M 5 5 L 7 5 L 8 5 L 10 5 L 10 6 L 8 6 L 7 6 L 5 6 L 5 5 z M 5 7 L 7 7 L 8 7 L 10 7 L 10 9 L 10 10 L 10 12 L 8 12 L 7 12 L 5 12 L 5 10 L 5 9 L 5 7 z M 5 13 L 7 13 L 8 13 L 10 13 L 10 19 L 8 19 L 7 19 L 5 19 L 5 13 z M 22 13 L 24 13 L 25 13 L 27 13 L 27 19 L 25 19 L 24 19 L 22 19 L 22 13 z M 5 20 L 7 20 L 8 20 L 10 20 L 10 22 L 10 23 L 10 25 L 8 25 L 7 25 L 5 25 L 5 23 L 5 22 L 5 20 z M 22 20 L 24 20 L 25 20 L 27 20 L 27 22 L 27 23 L 27 25 L 25 25 L 24 25 L 22 25 L 22 23 L 22 22 L 22 20 z M 5 26 L 7 26 L 8 26 L 10 26 L 10 27 L 8 27 L 7 27 L 5 27 L 5 26 z M 22 26 L 24 26 L 25 26 L 27 26 L 27 27 L 25 27 L 24 27 L 22 27 L 22 26 z "
     id="rect837" />
  <path
     style="fill:#555753;fill-opacity:1;stroke:none;stroke-width:0.86602539px;stroke-linecap:butt;stroke-linejoin:miter;stroke-opacity:1"
     d="m 12,15 v 3 h 8 v -3 z"
     id="path838"
     inkscape:connector-curvature="0" />
  <path
     inkscape:connector-curvature="0"
     id="path840"
     d="m 17.5,12.5 h -3 v 8 h 3 z"
     style="fill:#555753;fill-opacity:1;stroke:none;stroke-width:0.86602539px;stroke-linecap:butt;stroke-linejoin:miter;stroke-opacity:1" />
  <path
     style="fill:#cacac7;stroke:none;stroke-width:1px;stroke-linecap:butt;stroke-linejoin:miter;stroke-opacity:1;fill-opacity:1"
     d="M 11 5 L 11 14 L 13.5 14 L 13.5 11.5 L 18.5 11.5 L 18.5 14 L 21 14 L 21 7.5546875 L 18.125 5 L 11 5 z "
     id="path842" />
  <path
     inkscape:connector-curvature="0"
     id="path930"
     d="m 11,19.5 h 2.5 v 2.083333 h 5 V 19.5 H 21 V 27 H 11 Z"
     style="fill:#cacac7;fill-opacity:1;stroke:none;stroke-width:0.91287094px;stroke-linecap:butt;stroke-linejoin:miter;stroke-opacity:1" />
  <path
     style="fill:#555753;fill-opacity:1;stroke:none;stroke-width:1px;stroke-linecap:butt;stroke-linejoin:miter;stroke-opacity:1"
     d="m 18.5,1 h 6 v 2.5 l -3,3 -3,-3 z"
     id="path932"
     inkscape:connector-curvature="0"
     sodipodi:nodetypes="cccccc" />
</svg>
