<?xml version="1.0" encoding="UTF-8" standalone="no"?>
<svg
   xmlns:dc="http://purl.org/dc/elements/1.1/"
   xmlns:cc="http://creativecommons.org/ns#"
   xmlns:rdf="http://www.w3.org/1999/02/22-rdf-syntax-ns#"
   xmlns:svg="http://www.w3.org/2000/svg"
   xmlns="http://www.w3.org/2000/svg"
   xmlns:sodipodi="http://sodipodi.sourceforge.net/DTD/sodipodi-0.dtd"
   xmlns:inkscape="http://www.inkscape.org/namespaces/inkscape"
   viewBox="0 0 32 32"
   version="1.1"
   id="svg4"
   sodipodi:docname="SetDocumentProperties.svg"
   inkscape:version="0.92.4 (5da689c313, 2019-01-14)"
   width="32"
   height="32">
  <metadata
     id="metadata10">
    <rdf:RDF>
      <cc:Work
         rdf:about="">
        <dc:format>image/svg+xml</dc:format>
        <dc:type
           rdf:resource="http://purl.org/dc/dcmitype/StillImage" />
        <dc:title />
      </cc:Work>
    </rdf:RDF>
  </metadata>
  <defs
     id="defs8" />
  <sodipodi:namedview
     pagecolor="#ffffff"
     bordercolor="#666666"
     borderopacity="1"
     objecttolerance="10"
     gridtolerance="10"
     guidetolerance="10"
     inkscape:pageopacity="0"
     inkscape:pageshadow="2"
     inkscape:window-width="1366"
     inkscape:window-height="707"
     id="namedview6"
     showgrid="true"
     inkscape:zoom="6.1656805"
     inkscape:cx="10.406075"
     inkscape:cy="12.861503"
     inkscape:window-x="0"
     inkscape:window-y="0"
     inkscape:window-maximized="1"
     inkscape:current-layer="svg4"
     inkscape:snap-page="false"
     inkscape:snap-grids="true"
     inkscape:snap-to-guides="false">
    <inkscape:grid
       type="xygrid"
       id="grid836"
       spacingx="0.5"
       spacingy="0.5"
       empspacing="2" />
  </sodipodi:namedview>
  <path
     style="color:#000000;font-style:normal;font-variant:normal;font-weight:normal;font-stretch:normal;font-size:medium;line-height:normal;font-family:sans-serif;font-variant-ligatures:normal;font-variant-position:normal;font-variant-caps:normal;font-variant-numeric:normal;font-variant-alternates:normal;font-feature-settings:normal;text-indent:0;text-align:start;text-decoration:none;text-decoration-line:none;text-decoration-style:solid;text-decoration-color:#000000;letter-spacing:normal;word-spacing:normal;text-transform:none;writing-mode:lr-tb;direction:ltr;text-orientation:mixed;dominant-baseline:auto;baseline-shift:baseline;text-anchor:start;white-space:normal;shape-padding:0;clip-rule:nonzero;display:inline;overflow:visible;visibility:visible;opacity:1;isolation:auto;mix-blend-mode:normal;color-interpolation:sRGB;color-interpolation-filters:linearRGB;solid-color:#000000;solid-opacity:1;vector-effect:none;fill:#555753;fill-opacity:1;fill-rule:nonzero;stroke:none;stroke-width:1.37969315;stroke-linecap:butt;stroke-linejoin:miter;stroke-miterlimit:4;stroke-dasharray:none;stroke-dashoffset:0;stroke-opacity:1;color-rendering:auto;image-rendering:auto;shape-rendering:auto;text-rendering:auto;enable-background:accumulate"
     d="M 3,29 V 28.320312 16 2 H 4.3984375 5 24 29 V 20.900391 L 20.691405,29 Z M 4.3984375,27.636719 H 20.691405 v -6.736328 h 6.910157 V 3.363281 H 24 4.3984375 V 16 Z"
     id="path978"
     inkscape:connector-curvature="0" />
  <path
     style="fill:#555753;stroke:none;stroke-width:1px;stroke-linecap:butt;stroke-linejoin:miter;stroke-opacity:1;fill-opacity:1"
     d="M 20.992188 6.5039062 A 1.9990407 1.9990407 0 0 0 19.060547 8 L 7 8 L 7 9 L 19.058594 9 A 1.9990407 1.9990407 0 0 0 20.992188 10.501953 A 1.9990407 1.9990407 0 0 0 22.925781 9 L 25 9 L 25 8 L 22.925781 8 A 1.9990407 1.9990407 0 0 0 20.992188 6.5039062 z "
     id="path822" />
  <path
     style="fill:#555753;fill-opacity:1;stroke:none;stroke-width:1px;stroke-linecap:butt;stroke-linejoin:miter;stroke-opacity:1"
     d="M 11.017578 13.101562 C 9.8660829 13.101562 8.8987797 13.917674 8.6601562 15 L 7 15 L 7 16 L 8.6503906 16 C 8.8751458 17.100304 9.8532657 17.933594 11.017578 17.933594 C 12.181891 17.933594 13.16001 17.100304 13.384766 16 L 25 16 L 25 15 L 13.375 15 C 13.136376 13.917674 12.169073 13.101562 11.017578 13.101562 z M 11.017578 13.933594 C 11.896525 13.933594 12.599609 14.638632 12.599609 15.517578 C 12.599609 16.396525 11.896525 17.099609 11.017578 17.099609 C 10.138632 17.099609 9.4355469 16.396525 9.4355469 15.517578 C 9.4355469 14.638632 10.138632 13.933594 11.017578 13.933594 z "
     id="path824" />
</svg>
