<?xml version="1.0" encoding="UTF-8" standalone="no"?>
<svg
   xmlns:dc="http://purl.org/dc/elements/1.1/"
   xmlns:cc="http://creativecommons.org/ns#"
   xmlns:rdf="http://www.w3.org/1999/02/22-rdf-syntax-ns#"
   xmlns:svg="http://www.w3.org/2000/svg"
   xmlns="http://www.w3.org/2000/svg"
   xmlns:sodipodi="http://sodipodi.sourceforge.net/DTD/sodipodi-0.dtd"
   xmlns:inkscape="http://www.inkscape.org/namespaces/inkscape"
   viewBox="0 0 32 32"
   version="1.1"
   id="svg4"
   sodipodi:docname="SplitCell.svg"
   inkscape:version="0.92.4 (5da689c313, 2019-01-14)"
   width="32"
   height="32">
  <metadata
     id="metadata10">
    <rdf:RDF>
      <cc:Work
         rdf:about="">
        <dc:format>image/svg+xml</dc:format>
        <dc:type
           rdf:resource="http://purl.org/dc/dcmitype/StillImage" />
        <dc:title />
      </cc:Work>
    </rdf:RDF>
  </metadata>
  <defs
     id="defs8" />
  <sodipodi:namedview
     pagecolor="#ffffff"
     bordercolor="#666666"
     borderopacity="1"
     objecttolerance="10"
     gridtolerance="10"
     guidetolerance="10"
     inkscape:pageopacity="0"
     inkscape:pageshadow="2"
     inkscape:window-width="1366"
     inkscape:window-height="707"
     id="namedview6"
     showgrid="true"
     inkscape:zoom="3.4766083"
     inkscape:cx="-16.410961"
     inkscape:cy="-2.6638163"
     inkscape:window-x="0"
     inkscape:window-y="0"
     inkscape:window-maximized="1"
     inkscape:current-layer="svg4"
     inkscape:snap-page="false"
     inkscape:snap-grids="true"
     inkscape:snap-to-guides="false">
    <inkscape:grid
       type="xygrid"
       id="grid836"
       spacingx="0.5"
       spacingy="0.5"
       empspacing="2" />
  </sodipodi:namedview>
  <path
     style="color:#000000;font-style:normal;font-variant:normal;font-weight:normal;font-stretch:normal;font-size:medium;line-height:normal;font-family:sans-serif;font-variant-ligatures:normal;font-variant-position:normal;font-variant-caps:normal;font-variant-numeric:normal;font-variant-alternates:normal;font-feature-settings:normal;text-indent:0;text-align:start;text-decoration:none;text-decoration-line:none;text-decoration-style:solid;text-decoration-color:#000000;letter-spacing:normal;word-spacing:normal;text-transform:none;writing-mode:lr-tb;direction:ltr;text-orientation:mixed;dominant-baseline:auto;baseline-shift:baseline;text-anchor:start;white-space:normal;shape-padding:0;clip-rule:nonzero;display:inline;overflow:visible;visibility:visible;opacity:1;isolation:auto;mix-blend-mode:normal;color-interpolation:sRGB;color-interpolation-filters:linearRGB;solid-color:#000000;solid-opacity:1;vector-effect:none;fill:#555753;fill-opacity:1;fill-rule:nonzero;stroke:none;stroke-width:5.02220011;stroke-linecap:round;stroke-linejoin:round;stroke-miterlimit:4;stroke-dasharray:none;stroke-dashoffset:0;stroke-opacity:1;color-rendering:auto;image-rendering:auto;shape-rendering:auto;text-rendering:auto;enable-background:accumulate"
     d="M 6 2 C 4 2 2.0156846 3.9998826 2.015625 5.28125 L 2.015625 26.669922 C 2.0157093 28.514908 3.5 30.009766 5 30.009766 L 27 30.009766 C 28.5 30.009499 29.986224 28.514908 29.986328 26.669922 L 29.986328 5.28125 C 29.986224 3.4690759 28 2 26 2 L 6 2 z M 5 5 L 7 5 L 8 5 L 10 5 L 10 6 L 8 6 L 7 6 L 5 6 L 5 5 z M 11 5 L 21 5 L 21 6 L 11 6 L 11 5 z M 22 5 L 24 5 L 25 5 L 27 5 L 27 6 L 25 6 L 24 6 L 22 6 L 22 5 z M 5 7 L 7 7 L 8 7 L 10 7 L 10 9 L 10 10 L 10 12 L 8 12 L 7 12 L 5 12 L 5 10 L 5 9 L 5 7 z M 11 7 L 21 7 L 21 9 L 21 10 L 21 12 L 19 12 L 19 12.5 L 17 15.5 L 19.1875 19 L 19 19 L 19 20 L 21 20 L 21 22 L 21 23 L 21 25 L 11 25 L 11 23 L 11 22 L 11 20 L 13 20 L 13 19 L 12.8125 19 L 15 15.5 L 13 12.5 L 13 12 L 11 12 L 11 10 L 11 9 L 11 7 z M 22 7 L 24 7 L 25 7 L 27 7 L 27 9 L 27 10 L 27 12 L 25 12 L 24 12 L 22 12 L 22 10 L 22 9 L 22 7 z M 5 13 L 7 13 L 8 13 L 10 13 L 10 19 L 8 19 L 7 19 L 5 19 L 5 13 z M 22 13 L 24 13 L 25 13 L 27 13 L 27 19 L 25 19 L 24 19 L 22 19 L 22 13 z M 5 20 L 7 20 L 8 20 L 10 20 L 10 22 L 10 23 L 10 25 L 8 25 L 7 25 L 5 25 L 5 23 L 5 22 L 5 20 z M 22 20 L 24 20 L 25 20 L 27 20 L 27 22 L 27 23 L 27 25 L 25 25 L 24 25 L 22 25 L 22 23 L 22 22 L 22 20 z M 5 26 L 7 26 L 8 26 L 10 26 L 10 27 L 8 27 L 7 27 L 5 27 L 5 26 z M 11 26 L 21 26 L 21 27 L 11 27 L 11 26 z M 22 26 L 24 26 L 25 26 L 27 26 L 27 27 L 25 27 L 24 27 L 22 27 L 22 26 z "
     id="rect837" />
  <path
     style="color:#000000;font-style:normal;font-variant:normal;font-weight:normal;font-stretch:normal;font-size:medium;line-height:normal;font-family:sans-serif;font-variant-ligatures:normal;font-variant-position:normal;font-variant-caps:normal;font-variant-numeric:normal;font-variant-alternates:normal;font-feature-settings:normal;text-indent:0;text-align:start;text-decoration:none;text-decoration-line:none;text-decoration-style:solid;text-decoration-color:#000000;letter-spacing:normal;word-spacing:normal;text-transform:none;writing-mode:lr-tb;direction:ltr;text-orientation:mixed;dominant-baseline:auto;baseline-shift:baseline;text-anchor:start;white-space:normal;shape-padding:0;clip-rule:nonzero;display:inline;overflow:visible;visibility:visible;opacity:1;isolation:auto;mix-blend-mode:normal;color-interpolation:sRGB;color-interpolation-filters:linearRGB;solid-color:#000000;solid-opacity:1;vector-effect:none;fill:#555753;fill-opacity:1;fill-rule:nonzero;stroke:none;stroke-width:1px;stroke-linecap:butt;stroke-linejoin:miter;stroke-miterlimit:4;stroke-dasharray:none;stroke-dashoffset:0;stroke-opacity:1;color-rendering:auto;image-rendering:auto;shape-rendering:auto;text-rendering:auto;enable-background:accumulate"
     d="m 12.5,10.5 v 0.5 2.337891 l 1.890625,2.21875 L 12.5,18.851562 V 21.5 h 7 V 18.867188 L 17.603516,15.546875 19.5,13.175781 V 10.5 Z m 1,1 h 5 v 1.324219 L 16.396484,15.453125 18.5,19.132812 V 20.5 h -5 V 19.119141 L 15.609375,15.443359 13.5,12.970703 Z"
     id="path861"
     inkscape:connector-curvature="0" />
</svg>
