<?xml version="1.0" encoding="UTF-8" standalone="no"?>
<svg
   xmlns:dc="http://purl.org/dc/elements/1.1/"
   xmlns:cc="http://creativecommons.org/ns#"
   xmlns:rdf="http://www.w3.org/1999/02/22-rdf-syntax-ns#"
   xmlns:svg="http://www.w3.org/2000/svg"
   xmlns="http://www.w3.org/2000/svg"
   xmlns:sodipodi="http://sodipodi.sourceforge.net/DTD/sodipodi-0.dtd"
   xmlns:inkscape="http://www.inkscape.org/namespaces/inkscape"
   height="32"
   viewBox="0 0 32 32"
   width="32"
   version="1.1"
   id="svg8"
   sodipodi:docname="display.svg"
   inkscape:version="0.92.4 (unknown)">
  <metadata
     id="metadata14">
    <rdf:RDF>
      <cc:Work
         rdf:about="">
        <dc:format>image/svg+xml</dc:format>
        <dc:type
           rdf:resource="http://purl.org/dc/dcmitype/StillImage" />
        <dc:title />
      </cc:Work>
    </rdf:RDF>
  </metadata>
  <defs
     id="defs12" />
  <sodipodi:namedview
     pagecolor="#ffffff"
     bordercolor="#666666"
     borderopacity="1"
     objecttolerance="10"
     gridtolerance="10"
     guidetolerance="10"
     inkscape:pageopacity="0"
     inkscape:pageshadow="2"
     inkscape:window-width="1360"
     inkscape:window-height="714"
     id="namedview10"
     showgrid="true"
     inkscape:zoom="20.85965"
     inkscape:cx="18.02028"
     inkscape:cy="9.7393571"
     inkscape:window-x="0"
     inkscape:window-y="28"
     inkscape:window-maximized="1"
     inkscape:current-layer="svg8">
    <inkscape:grid
       type="xygrid"
       id="grid821" />
  </sodipodi:namedview>
  <path
     style="fill:#ff00ff;fill-opacity:1"
     d="M 26.369141 14.986328 C 25.6661 14.980175 24.779467 15.052379 24.011719 15.720703 C 24.004519 15.726503 23.997314 15.732321 23.990234 15.738281 L 17.990234 21.267578 C 17.890644 21.359908 17.810895 21.471549 17.755859 21.595703 C 16.697289 22.620084 16.001878 24.023233 16 25.498047 L 16 25.5 C 16 26.939897 16.593167 28.370511 17.611328 29.388672 C 18.629489 30.406786 20.060103 31 21.5 31 C 22.939897 31 24.370511 30.406833 25.388672 29.388672 C 26.406833 28.370511 27 26.939897 27 25.5 L 27 25.498047 C 26.9986 24.154791 26.483514 22.819855 25.583984 21.822266 C 25.204325 21.401219 24.730277 21.081747 24.240234 20.796875 L 26.423828 18.884766 C 26.510372 18.926613 26.579449 19 27 19 C 27 20.092726 27.907274 21 29 21 C 30.092726 21 31 20.092726 31 19 L 31 18 C 31 17.223851 30.947614 16.446674 30.378906 15.808594 C 29.810198 15.170513 28.960666 15 28 15 L 27 15 C 26.817764 15 26.603487 14.988379 26.369141 14.986328 z M 21.5 24 A 1.5 1.5 0 0 1 23 25.5 A 1.5 1.5 0 0 1 21.5 27 A 1.5 1.5 0 0 1 20 25.5 A 1.5 1.5 0 0 1 21.5 24 z "
     id="path829" />
  <path
     d="m 27,16 c -0.748762,0 -1.761245,-0.02226 -2.332031,0.474609 l -6,5.529297 h 0.0059 C 17.616857,22.856941 17.00173,24.141746 17,25.5 17,27.985281 19.014719,30 21.5,30 23.985281,30 26,27.985281 26,25.5 25.9977,23.384288 24.528292,21.583676 22.513047,21.11998 L 22.703125,20.8125 25.929688,17.990234 27,18 h 1 v 1 c 0,0.552284 0.447716,1 1,1 0.552284,0 1,-0.447716 1,-1 v -1 c 0,-1.402542 -0.31506,-2 -2,-2 z m -5.5,7 C 22.880712,23 24,24.119288 24,25.5 24,26.880712 22.880712,28 21.5,28 20.119288,28 19,26.880712 19,25.5 19,24.119288 20.119288,23 21.5,23 Z"
     id="path2"
     inkscape:connector-curvature="0"
     sodipodi:nodetypes="sccccsccccccsssssssssss"
     style="fill:#555753;fill-opacity:1" />
</svg>
