<?xml version="1.0" encoding="UTF-8" standalone="no"?>
<svg
   xmlns:dc="http://purl.org/dc/elements/1.1/"
   xmlns:cc="http://creativecommons.org/ns#"
   xmlns:rdf="http://www.w3.org/1999/02/22-rdf-syntax-ns#"
   xmlns:svg="http://www.w3.org/2000/svg"
   xmlns="http://www.w3.org/2000/svg"
   xmlns:sodipodi="http://sodipodi.sourceforge.net/DTD/sodipodi-0.dtd"
   xmlns:inkscape="http://www.inkscape.org/namespaces/inkscape"
   viewBox="0 0 24 24"
   version="1.1"
   id="svg4"
   sodipodi:docname="lc_new.svg"
   inkscape:version="0.92.4 (unknown)">
  <metadata
     id="metadata10">
    <rdf:RDF>
      <cc:Work
         rdf:about="">
        <dc:format>image/svg+xml</dc:format>
        <dc:type
           rdf:resource="http://purl.org/dc/dcmitype/StillImage" />
        <dc:title></dc:title>
      </cc:Work>
    </rdf:RDF>
  </metadata>
  <defs
     id="defs8" />
  <sodipodi:namedview
     pagecolor="#ffffff"
     bordercolor="#666666"
     borderopacity="1"
     objecttolerance="10"
     gridtolerance="10"
     guidetolerance="10"
     inkscape:pageopacity="0"
     inkscape:pageshadow="2"
     inkscape:window-width="1360"
     inkscape:window-height="714"
     id="namedview6"
     showgrid="true"
     inkscape:zoom="32"
     inkscape:cx="16.065683"
     inkscape:cy="9.0035522"
     inkscape:window-x="0"
     inkscape:window-y="28"
     inkscape:window-maximized="1"
     inkscape:current-layer="svg4">
    <inkscape:grid
       type="xygrid"
       id="grid823" />
  </sodipodi:namedview>
  <path
     sodipodi:type="inkscape:offset"
     inkscape:radius="1.001955"
     inkscape:original="M 18.001953 15.001953 L 18.001953 18 L 15.003906 18 L 15.003906 21 L 18.001953 21 L 18.001953 24 L 21.001953 24 L 21.001953 21 L 24 21 L 24 18 L 21.001953 18 L 21.001953 15.001953 L 18.001953 15.001953 z "
     style="fill:#ff00ff;fill-opacity:1"
     id="path816"
     d="M 18.001953,14 A 1.0020552,1.0020552 0 0 0 17,15.001953 v 1.996094 H 15.003906 A 1.0020552,1.0020552 0 0 0 14.001953,18 v 3 a 1.0020552,1.0020552 0 0 0 1.001953,1.001953 H 17 V 24 a 1.0020552,1.0020552 0 0 0 1.001953,1.001953 h 3 A 1.0020552,1.0020552 0 0 0 22.003906,24 V 22.001953 H 24 A 1.0020552,1.0020552 0 0 0 25.001953,21 V 18 A 1.0020552,1.0020552 0 0 0 24,16.998047 H 22.003906 V 15.001953 A 1.0020552,1.0020552 0 0 0 21.001953,14 Z" />
  <path
     style="fill:#555753;fill-opacity:1"
     d="M 18.001953,15.001953 V 18 h -2.998047 v 3 h 2.998047 v 3 h 3 V 21 H 24 v -3 h -2.998047 v -2.998047 z"
     id="path2-3"
     inkscape:connector-curvature="0"
     sodipodi:nodetypes="ccccccccccccc" />
</svg>
