<?xml version="1.0" encoding="UTF-8" standalone="no"?>
<svg
   xmlns:dc="http://purl.org/dc/elements/1.1/"
   xmlns:cc="http://creativecommons.org/ns#"
   xmlns:rdf="http://www.w3.org/1999/02/22-rdf-syntax-ns#"
   xmlns:svg="http://www.w3.org/2000/svg"
   xmlns="http://www.w3.org/2000/svg"
   xmlns:sodipodi="http://sodipodi.sourceforge.net/DTD/sodipodi-0.dtd"
   xmlns:inkscape="http://www.inkscape.org/namespaces/inkscape"
   viewBox="0 0 24 24"
   version="1.1"
   id="svg8"
   sodipodi:docname="lc_show.svg"
   inkscape:version="0.92.4 (unknown)">
  <metadata
     id="metadata14">
    <rdf:RDF>
      <cc:Work
         rdf:about="">
        <dc:format>image/svg+xml</dc:format>
        <dc:type
           rdf:resource="http://purl.org/dc/dcmitype/StillImage" />
        <dc:title></dc:title>
      </cc:Work>
    </rdf:RDF>
  </metadata>
  <defs
     id="defs12" />
  <sodipodi:namedview
     pagecolor="#ffffff"
     bordercolor="#666666"
     borderopacity="1"
     objecttolerance="10"
     gridtolerance="10"
     guidetolerance="10"
     inkscape:pageopacity="0"
     inkscape:pageshadow="2"
     inkscape:window-width="1360"
     inkscape:window-height="714"
     id="namedview10"
     showgrid="true"
     inkscape:zoom="19.666667"
     inkscape:cx="17.564533"
     inkscape:cy="9.6109582"
     inkscape:window-x="0"
     inkscape:window-y="28"
     inkscape:window-maximized="1"
     inkscape:current-layer="svg8">
    <inkscape:grid
       type="xygrid"
       id="grid821" />
  </sodipodi:namedview>
  <path
     sodipodi:type="inkscape:offset"
     inkscape:radius="1"
     inkscape:original="M 21 9 C 20.251238 9 19.570786 9.3039097 19 9.8007812 L 13 15.330078 C 12.49916 16.121995 12.013534 17.143184 12 18 C 12 20.209139 13.790861 22 16 22 C 18.209139 22 20 20.209139 20 18 C 19.9989 16.190426 18.783085 14.60697 17.035156 14.138672 L 20.261719 11.316406 C 20.563867 11 20.728256 11 21 11 L 22 11 L 22 12 C 22 12.552284 22.447716 13 23 13 C 23.552284 13 24 12.552284 24 12 L 24 11 C 24 9.597458 23.68494 9 22 9 L 21 9 z M 16 16 C 17.104569 16 18 16.895431 18 18 C 18 19.104569 17.104569 20 16 20 C 14.895431 20 14 19.104569 14 18 C 14 16.895431 14.895431 16 16 16 z "
     style="fill:#ff00ff"
     id="path873"
     d="m 21,8 c -1.019351,0 -1.940912,0.4241702 -2.65625,1.046875 a 1.0001,1.0001 0 0 0 -0.02148,0.017578 l -6,5.5292969 a 1.0001,1.0001 0 0 0 -0.167969,0.201172 C 11.601962,15.668262 11.019302,16.762393 11,17.984375 A 1.0001,1.0001 0 0 0 11,18 c 0,2.749579 2.250421,5 5,5 2.749579,0 5,-2.250421 5,-5 -0.001,-1.673468 -0.844016,-3.19304 -2.166016,-4.107422 l 2.085938,-1.824219 a 1.0001,1.0001 0 0 0 0.06445,-0.06055 c 0.08852,-0.09269 0.06523,-0.05236 -0.01172,-0.02539 C 20.895709,12.009394 20.864128,12 21,12 c 0,1.092726 0.907274,2 2,2 1.092726,0 2,-0.907274 2,-2 V 11 C 25,10.223851 24.947614,9.4466744 24.378906,8.8085938 23.810198,8.1705131 22.960666,8 22,8 Z m -5,9 c 0.564128,0 1,0.435872 1,1 0,0.564128 -0.435872,1 -1,1 -0.564128,0 -1,-0.435872 -1,-1 0,-0.564128 0.435872,-1 1,-1 z" />
  <path
     inkscape:connector-curvature="0"
     style="fill:#555753;fill-opacity:1"
     d="M 21,9 C 20.251238,9 19.570786,9.3039096 19,9.8007812 L 13,15.330078 C 12.49916,16.121995 12.013534,17.143184 12,18 c 0,2.209139 1.790861,4 4,4 2.209139,0 4,-1.790861 4,-4 -0.0011,-1.809574 -1.216915,-3.39303 -2.964844,-3.861328 l 3.226563,-2.822266 C 20.563867,11 20.728256,11 21,11 h 1 v 1 c 0,0.552284 0.447716,1 1,1 0.552284,0 1,-0.447716 1,-1 V 11 C 24,9.597458 23.68494,9 22,9 Z m -5,7 c 1.104569,0 2,0.895431 2,2 0,1.104569 -0.895431,2 -2,2 -1.104569,0 -2,-0.895431 -2,-2 0,-1.104569 0.895431,-2 2,-2 z"
     id="path2-6"
     sodipodi:nodetypes="scccscccscsssssssssss" />
</svg>
