<?xml version="1.0" encoding="UTF-8" standalone="no"?>
<svg
   xmlns:dc="http://purl.org/dc/elements/1.1/"
   xmlns:cc="http://creativecommons.org/ns#"
   xmlns:rdf="http://www.w3.org/1999/02/22-rdf-syntax-ns#"
   xmlns:svg="http://www.w3.org/2000/svg"
   xmlns="http://www.w3.org/2000/svg"
   xmlns:sodipodi="http://sodipodi.sourceforge.net/DTD/sodipodi-0.dtd"
   xmlns:inkscape="http://www.inkscape.org/namespaces/inkscape"
   viewBox="0 0 16 16"
   version="1.1"
   id="svg4"
   sodipodi:docname="sc_auto.svg"
   inkscape:version="0.92.4 (unknown)">
  <metadata
     id="metadata10">
    <rdf:RDF>
      <cc:Work
         rdf:about="">
        <dc:format>image/svg+xml</dc:format>
        <dc:type
           rdf:resource="http://purl.org/dc/dcmitype/StillImage" />
        <dc:title></dc:title>
      </cc:Work>
    </rdf:RDF>
  </metadata>
  <defs
     id="defs8" />
  <sodipodi:namedview
     pagecolor="#ffffff"
     bordercolor="#666666"
     borderopacity="1"
     objecttolerance="10"
     gridtolerance="10"
     guidetolerance="10"
     inkscape:pageopacity="0"
     inkscape:pageshadow="2"
     inkscape:window-width="1360"
     inkscape:window-height="714"
     id="namedview6"
     showgrid="true"
     inkscape:zoom="29.5"
     inkscape:cx="10.911413"
     inkscape:cy="7.3989796"
     inkscape:window-x="0"
     inkscape:window-y="28"
     inkscape:window-maximized="1"
     inkscape:current-layer="svg4">
    <inkscape:grid
       type="xygrid"
       id="grid817" />
  </sodipodi:namedview>
  <path
     sodipodi:type="inkscape:offset"
     inkscape:radius="1"
     inkscape:original="M 6.5 4 L 6 6 L 4 6.5 L 6 7 L 6.5 9 L 7 7 L 9 6.5 L 7 6 L 6.5 4 z M 9 8 L 8 9 L 15 16 L 16 15 L 9 8 z "
     style="fill:#ff00ff"
     id="path824"
     d="M 6.5253906,3 A 1.0001,1.0001 0 0 0 5.5292969,3.7578125 L 5.1757812,5.1757812 3.7578125,5.5292969 a 1.0001,1.0001 0 0 0 0,1.9414062 l 1.4179687,0.3535157 0.3535157,1.4179687 a 1.0001,1.0001 0 0 0 1.71875,0.4179687 1.0001,1.0001 0 0 0 0.044922,0.046875 l 7.0000002,6.9999998 a 1.0001,1.0001 0 0 0 1.414062,0 l 1,-1 a 1.0001,1.0001 0 0 0 0,-1.414062 L 9.7070312,7.2929688 A 1.0001,1.0001 0 0 0 9.6582031,7.25 1.0001,1.0001 0 0 0 9.2421875,5.5292969 L 7.8242188,5.1757812 7.4707031,3.7578125 A 1.0001,1.0001 0 0 0 6.5253906,3 Z" />
  <path
     d="M 6.5,4 6,6 4,6.5 6,7 6.5,9 7,7 9,6.5 7,6 Z M 9,8 8,9 l 7,7 1,-1 z"
     id="path2"
     inkscape:connector-curvature="0"
     style="fill:#555753"
     sodipodi:nodetypes="cccccccccccccc" />
</svg>
