<?xml version="1.0" encoding="UTF-8" standalone="no"?>
<svg
   xmlns:dc="http://purl.org/dc/elements/1.1/"
   xmlns:cc="http://creativecommons.org/ns#"
   xmlns:rdf="http://www.w3.org/1999/02/22-rdf-syntax-ns#"
   xmlns:svg="http://www.w3.org/2000/svg"
   xmlns="http://www.w3.org/2000/svg"
   xmlns:sodipodi="http://sodipodi.sourceforge.net/DTD/sodipodi-0.dtd"
   xmlns:inkscape="http://www.inkscape.org/namespaces/inkscape"
   viewBox="0 0 16 16"
   version="1.1"
   id="svg4"
   sodipodi:docname="sc_editdoc.svg"
   inkscape:version="0.92.4 (unknown)">
  <metadata
     id="metadata10">
    <rdf:RDF>
      <cc:Work
         rdf:about="">
        <dc:format>image/svg+xml</dc:format>
        <dc:type
           rdf:resource="http://purl.org/dc/dcmitype/StillImage" />
        <dc:title />
      </cc:Work>
    </rdf:RDF>
  </metadata>
  <defs
     id="defs8" />
  <sodipodi:namedview
     pagecolor="#ffffff"
     bordercolor="#666666"
     borderopacity="1"
     objecttolerance="10"
     gridtolerance="10"
     guidetolerance="10"
     inkscape:pageopacity="0"
     inkscape:pageshadow="2"
     inkscape:window-width="1360"
     inkscape:window-height="714"
     id="namedview6"
     showgrid="true"
     inkscape:zoom="14.75"
     inkscape:cx="-13.349087"
     inkscape:cy="9.740948"
     inkscape:window-x="0"
     inkscape:window-y="28"
     inkscape:window-maximized="1"
     inkscape:current-layer="svg4">
    <inkscape:grid
       type="xygrid"
       id="grid817" />
  </sodipodi:namedview>
  <path
     sodipodi:type="inkscape:offset"
     inkscape:radius="1"
     inkscape:original="M 14 5 L 13 6 L 15 8 L 16 7 C 15.870995 5.6420539 15.074357 5.1424929 14 5 z M 12 7 L 5 14 L 5 16 L 7 16 L 14 9 L 12 7 z "
     style="fill:#ff00ff"
     id="path819"
     d="m 14.03125,4 a 1.0001,1.0001 0 0 0 -0.738281,0.2929688 l -1,1 A 1.0001,1.0001 0 0 0 12,6 1.0001,1.0001 0 0 0 11.292969,6.2929688 L 4.2929688,13.292969 A 1.0001,1.0001 0 0 0 4,14 v 2 a 1.0001,1.0001 0 0 0 1,1 H 7 A 1.0001,1.0001 0 0 0 7.7070312,16.707031 L 14.707031,9.7070312 A 1.0001,1.0001 0 0 0 15,9 1.0001,1.0001 0 0 0 15.707031,8.7070312 l 1,-1 A 1.0001,1.0001 0 0 0 16.996094,6.90625 C 16.914355,6.0458385 16.574644,5.2932276 16.021484,4.7988281 15.468325,4.3044286 14.787096,4.0948497 14.130859,4.0078125 A 1.0001,1.0001 0 0 0 14.03125,4 Z" />
  <path
     d="m 14,5 -1,1 2,2 1,-1 C 15.870995,5.6420539 15.074357,5.1424929 14,5 Z m -2,2 -7,7 v 2 h 2 l 7,-7 z"
     id="path2"
     inkscape:connector-curvature="0"
     style="fill:#555753"
     sodipodi:nodetypes="ccccccccccc" />
</svg>
