<?xml version="1.0" encoding="UTF-8" standalone="no"?>
<svg
   xmlns:dc="http://purl.org/dc/elements/1.1/"
   xmlns:cc="http://creativecommons.org/ns#"
   xmlns:rdf="http://www.w3.org/1999/02/22-rdf-syntax-ns#"
   xmlns:svg="http://www.w3.org/2000/svg"
   xmlns="http://www.w3.org/2000/svg"
   xmlns:sodipodi="http://sodipodi.sourceforge.net/DTD/sodipodi-0.dtd"
   xmlns:inkscape="http://www.inkscape.org/namespaces/inkscape"
   viewBox="0 0 16 16"
   version="1.1"
   id="svg4"
   sodipodi:docname="sc_framedialog.svg"
   inkscape:version="0.92.4 (unknown)">
  <metadata
     id="metadata10">
    <rdf:RDF>
      <cc:Work
         rdf:about="">
        <dc:format>image/svg+xml</dc:format>
        <dc:type
           rdf:resource="http://purl.org/dc/dcmitype/StillImage" />
        <dc:title></dc:title>
      </cc:Work>
    </rdf:RDF>
  </metadata>
  <defs
     id="defs8" />
  <sodipodi:namedview
     pagecolor="#ffffff"
     bordercolor="#666666"
     borderopacity="1"
     objecttolerance="10"
     gridtolerance="10"
     guidetolerance="10"
     inkscape:pageopacity="0"
     inkscape:pageshadow="2"
     inkscape:window-width="1360"
     inkscape:window-height="714"
     id="namedview6"
     showgrid="true"
     inkscape:zoom="29.5"
     inkscape:cx="5.3416049"
     inkscape:cy="6.9486389"
     inkscape:window-x="0"
     inkscape:window-y="28"
     inkscape:window-maximized="1"
     inkscape:current-layer="svg4">
    <inkscape:grid
       type="xygrid"
       id="grid817" />
  </sodipodi:namedview>
  <path
     sodipodi:type="inkscape:offset"
     inkscape:radius="1"
     inkscape:original="M 12 9 L 12 10 C 13.56 11.6 11.433517 13.5 10 12 L 9 12 L 9 13 C 9.8 13.77 10.640782 14 11.400391 14 L 13 14 L 15 16 L 16 16 L 16 15 L 14 13 L 14 11.400391 C 14 10.500391 13.8 9.8 13 9 L 12 9 z "
     style="fill:#ff00ff"
     id="path819"
     d="m 12,8 a 1.0001,1.0001 0 0 0 -1,1 v 1 a 1.0001,1.0001 0 0 0 0.283203,0.697266 c 0.241665,0.247861 0.264267,0.399269 0.263672,0.49414 -5.95e-4,0.09487 -0.03728,0.17416 -0.111328,0.244141 -0.148091,0.139963 -0.312479,0.292028 -0.712891,-0.126953 A 1.0001,1.0001 0 0 0 10,11 H 9 a 1.0001,1.0001 0 0 0 -1,1 v 1 a 1.0001,1.0001 0 0 0 0.3066406,0.720703 C 9.2871771,14.664469 10.438923,15 11.400391,15 h 1.185547 l 1.707031,1.707031 A 1.0001,1.0001 0 0 0 15,17 h 1 a 1.0001,1.0001 0 0 0 1,-1 V 15 A 1.0001,1.0001 0 0 0 16.707031,14.292969 L 15,12.585938 V 11.400391 C 15,10.352242 14.65446,9.2403979 13.707031,8.2929688 A 1.0001,1.0001 0 0 0 13,8 Z" />
  <path
     d="m 12,9 v 1 c 1.56,1.6 -0.566483,3.5 -2,2 H 9 v 1 c 0.8,0.77 1.640391,1 2.4,1 H 13 l 2,2 h 1 V 15 L 14,13 V 11.4 C 14,10.5 13.8,9.8 13,9 Z"
     id="path2"
     inkscape:connector-curvature="0"
     style="fill:#555753"
     sodipodi:nodetypes="cccccscccccscc" />
</svg>
