<?xml version="1.0" encoding="UTF-8" standalone="no"?>
<svg
   xmlns:dc="http://purl.org/dc/elements/1.1/"
   xmlns:cc="http://creativecommons.org/ns#"
   xmlns:rdf="http://www.w3.org/1999/02/22-rdf-syntax-ns#"
   xmlns:svg="http://www.w3.org/2000/svg"
   xmlns="http://www.w3.org/2000/svg"
   xmlns:sodipodi="http://sodipodi.sourceforge.net/DTD/sodipodi-0.dtd"
   xmlns:inkscape="http://www.inkscape.org/namespaces/inkscape"
   viewBox="0 0 16 16"
   version="1.1"
   id="svg8"
   sodipodi:docname="sc_show.svg"
   inkscape:version="0.92.4 (unknown)">
  <metadata
     id="metadata14">
    <rdf:RDF>
      <cc:Work
         rdf:about="">
        <dc:format>image/svg+xml</dc:format>
        <dc:type
           rdf:resource="http://purl.org/dc/dcmitype/StillImage" />
        <dc:title></dc:title>
      </cc:Work>
    </rdf:RDF>
  </metadata>
  <defs
     id="defs12" />
  <sodipodi:namedview
     pagecolor="#ffffff"
     bordercolor="#666666"
     borderopacity="1"
     objecttolerance="10"
     gridtolerance="10"
     guidetolerance="10"
     inkscape:pageopacity="0"
     inkscape:pageshadow="2"
     inkscape:window-width="1360"
     inkscape:window-height="714"
     id="namedview10"
     showgrid="true"
     inkscape:zoom="20.85965"
     inkscape:cx="11.302946"
     inkscape:cy="1.6496199"
     inkscape:window-x="0"
     inkscape:window-y="28"
     inkscape:window-maximized="1"
     inkscape:current-layer="svg8">
    <inkscape:grid
       type="xygrid"
       id="grid827" />
  </sodipodi:namedview>
  <path
     style="fill:#ff00ff"
     d="M 8.5 6 C 7.8550302 6 7.2742152 6.2837536 6.8574219 6.6503906 C 6.8534919 6.6536206 6.8495821 6.6568662 6.8457031 6.6601562 L 2.1289062 10.935547 C 2.1262863 10.938747 2.1236738 10.942012 2.1210938 10.945312 C 2.0830637 10.980292 2.0478018 11.018162 2.015625 11.058594 C 1.4084819 11.977701 0.87297342 12.416467 1 13.494141 C 0.99999428 13.496141 0.99999428 13.498 1 13.5 C 1 13.52741 1.0071725 13.552808 1.0078125 13.580078 C 1.0037288 13.636598 1.0011212 13.693301 1 13.75 C 1 15.544925 2.4550746 17 4.25 17 C 4.312543 16.999852 4.3750694 16.997941 4.4375 16.994141 C 4.4587987 16.994571 4.4786147 17 4.5 17 C 5.7985211 17 6.8960739 16.248265 7.5 15.1875 C 8.1039261 16.248265 9.2014789 17 10.5 17 C 12.420489 17 13.99891 15.422205 14 13.501953 C 14.0015 12.42438 13.40266 11.572043 12.609375 10.921875 L 14.34375 9.3203125 C 14.617629 9.7060233 15.000328 10 15.5 10 C 16.316583 10 17 9.3165834 17 8.5 L 17 8 C 17 7.5744863 16.986517 7.0480051 16.5625 6.5722656 C 16.138483 6.0965262 15.539431 6 15 6 L 14.5 6 C 13.85503 6 13.273695 6.2722155 12.84375 6.6464844 C 12.83845 6.6509844 12.833295 6.6555442 12.828125 6.6601562 L 11 8.3183594 L 11 8 C 11 7.5744861 10.986517 7.048005 10.5625 6.5722656 C 10.138483 6.0965263 9.5394307 6 9 6 L 8.5 6 z M 8.34375 9.3183594 C 8.5663227 9.6326039 8.8698748 9.8240197 9.2578125 9.8984375 L 9.1464844 10 L 7.5957031 10 L 8.34375 9.3183594 z M 4.5 13 A 0.5 0.5 0 0 1 5 13.5 A 0.5 0.5 0 0 1 4.5 14 A 0.5 0.5 0 0 1 4 13.5 A 0.5 0.5 0 0 1 4.5 13 z M 10.5 13 C 10.787987 13 11 13.212013 11 13.5 C 11 13.787987 10.787987 14 10.5 14 C 10.212013 14 10 13.787987 10 13.5 C 10 13.212013 10.212013 13 10.5 13 z "
     id="path835" />
  <path
     inkscape:connector-curvature="0"
     style="fill:#555753;fill-opacity:1"
     d="m 2,11.052693 c -1.33333333,3.298205 -0.6666667,1.649102 0,0 z M 8.5,7 C 8.1256185,7 7.8,7.1519549 7.5175781,7.4003906 L 2.8007812,11.675781 v 0.0039 C 2.2936227,12.149627 2.003727,12.808602 2,13.5 2,14.880712 3.1192881,16 4.5,16 5.8807119,16 7,14.880712 7,13.5 7,12.959074 6.8245553,12.43274 6.5,12 H 8.5019531 C 8.1767006,12.432496 8.0005633,12.958852 8,13.5 8,14.880712 9.1192881,16 10.5,16 11.880712,16 13,14.880712 13,13.5 13.0017,12.310655 12.165317,11.284743 11,11.046875 L 14.130859,8.1582031 C 14.281933,8 14.364128,8 14.5,8 H 15 V 8.5 C 15,8.7761424 15.223858,9 15.5,9 15.776142,9 16,8.7761424 16,8.5 V 8 C 16,7.2987292 15.84247,7 15,7 h -0.5 c -0.374381,0 -0.714607,0.1519549 -1,0.4003906 L 9.5332031,11 H 5.015625 L 8.1308594,8.1582031 C 8.2819325,8 8.3641276,8 8.5,8 H 9 V 8.5 C 9,8.7761424 9.2238576,9 9.5,9 9.7761424,9 10,8.7761424 10,8.5 V 8 C 10,7.2987292 9.8424697,7 9,7 Z m -4,5 C 5.3284271,12 6,12.671573 6,13.5 6,14.328427 5.3284271,15 4.5,15 3.6715729,15 3,14.328427 3,13.5 3,12.671573 3.6715729,12 4.5,12 Z m 6,0 C 11.328427,12 12,12.671573 12,13.5 12,14.328427 11.328427,15 10.5,15 9.6715729,15 9,14.328427 9,13.5 9,12.671573 9.6715729,12 10.5,12 Z"
     id="path2-3"
     sodipodi:nodetypes="ccsccccsscccscccscssssssccccscssssssssssssssss" />
</svg>
