<?xml version="1.0" encoding="UTF-8" standalone="no"?>
<svg
   xmlns:dc="http://purl.org/dc/elements/1.1/"
   xmlns:cc="http://creativecommons.org/ns#"
   xmlns:rdf="http://www.w3.org/1999/02/22-rdf-syntax-ns#"
   xmlns:svg="http://www.w3.org/2000/svg"
   xmlns="http://www.w3.org/2000/svg"
   xmlns:sodipodi="http://sodipodi.sourceforge.net/DTD/sodipodi-0.dtd"
   xmlns:inkscape="http://www.inkscape.org/namespaces/inkscape"
   height="32"
   viewBox="0 0 32 32"
   width="32"
   version="1.1"
   id="svg4"
   sodipodi:docname="strikeout.svg"
   inkscape:version="0.92.4 (unknown)">
  <metadata
     id="metadata10">
    <rdf:RDF>
      <cc:Work
         rdf:about="">
        <dc:format>image/svg+xml</dc:format>
        <dc:type
           rdf:resource="http://purl.org/dc/dcmitype/StillImage" />
        <dc:title />
      </cc:Work>
    </rdf:RDF>
  </metadata>
  <defs
     id="defs8" />
  <sodipodi:namedview
     pagecolor="#ffffff"
     bordercolor="#666666"
     borderopacity="1"
     objecttolerance="10"
     gridtolerance="10"
     guidetolerance="10"
     inkscape:pageopacity="0"
     inkscape:pageshadow="2"
     inkscape:window-width="1360"
     inkscape:window-height="714"
     id="namedview6"
     showgrid="true"
     inkscape:zoom="8"
     inkscape:cx="38.775486"
     inkscape:cy="-7.7010838"
     inkscape:window-x="0"
     inkscape:window-y="28"
     inkscape:window-maximized="1"
     inkscape:current-layer="svg4">
    <inkscape:grid
       type="xygrid"
       id="grid12" />
  </sodipodi:namedview>
  <path
     style="fill:#555753;fill-opacity:1"
     d="M 15.25,3 C 11.245936,3 8,6.2459356 8,10.25 8.0009919,11.19339 8.1860925,12.127517 8.5449219,13 H 11.759766 C 11.264825,12.260152 11.000421,11.390136 11,10.5 11,8.0147186 13.014719,6 15.5,6 15.667118,6.00112 15.834043,5.980307 16,6 h 9 V 3 H 16 C 15.750978,2.97142 15.500642,3.00265 15.25,3 Z M 3,15 v 2 h 26 v -2 z m 18.785156,4 C 21.925635,19.487693 21.997936,19.992482 22,20.5 22,23.537566 19.537566,26 16.5,26 H 8 v 3 h 9 c 0.249022,0.02857 0.499358,-0.0026 0.75,0 C 21.754064,29 25,25.754064 25,21.75 24.999008,20.80661 24.813907,19.872483 24.455078,19 Z"
     id="path2"
     inkscape:connector-curvature="0"
     sodipodi:nodetypes="ccccccccccccccccccsccccccc" />
</svg>
