<?xml version="1.0" encoding="UTF-8" standalone="no"?>
<svg
   xmlns:dc="http://purl.org/dc/elements/1.1/"
   xmlns:cc="http://creativecommons.org/ns#"
   xmlns:rdf="http://www.w3.org/1999/02/22-rdf-syntax-ns#"
   xmlns:svg="http://www.w3.org/2000/svg"
   xmlns="http://www.w3.org/2000/svg"
   xmlns:sodipodi="http://sodipodi.sourceforge.net/DTD/sodipodi-0.dtd"
   xmlns:inkscape="http://www.inkscape.org/namespaces/inkscape"
   viewBox="0 0 32 32"
   version="1.1"
   id="svg4"
   sodipodi:docname="alphaliststyle.svg"
   inkscape:version="0.92.4 (5da689c313, 2019-01-14)"
   width="32"
   height="32">
  <metadata
     id="metadata10">
    <rdf:RDF>
      <cc:Work
         rdf:about="">
        <dc:format>image/svg+xml</dc:format>
        <dc:type
           rdf:resource="http://purl.org/dc/dcmitype/StillImage" />
        <dc:title />
      </cc:Work>
    </rdf:RDF>
  </metadata>
  <defs
     id="defs8" />
  <sodipodi:namedview
     pagecolor="#ffffff"
     bordercolor="#666666"
     borderopacity="1"
     objecttolerance="10"
     gridtolerance="10"
     guidetolerance="10"
     inkscape:pageopacity="0"
     inkscape:pageshadow="2"
     inkscape:window-width="1366"
     inkscape:window-height="704"
     id="namedview6"
     showgrid="true"
     inkscape:zoom="27.812866"
     inkscape:cx="16.308321"
     inkscape:cy="13.914445"
     inkscape:window-x="0"
     inkscape:window-y="0"
     inkscape:window-maximized="1"
     inkscape:current-layer="svg4"
     inkscape:snap-global="true"
     inkscape:snap-bbox="true"
     inkscape:snap-page="false">
    <inkscape:grid
       type="xygrid"
       id="grid836"
       spacingx="0.5"
       spacingy="0.5"
       empspacing="2" />
  </sodipodi:namedview>
  <path
     d="m 20,2.0244321 c -1.32054,0 -2.008475,1.2118869 -2.008475,2.4755679 v 8.492968 H 20 v -1.956094 h 5 v 1.956094 h 2 V 4.5 C 27,3.236319 26.473082,2.0244321 25.152542,2.0244321 Z M 4,3.9735847 V 5.9915254 H 16.004912 V 3.9735847 Z M 20,4.5 h 5 V 8.612153 H 20 Z M 9.0307791,9.0189327 V 10.986026 H 16.004912 V 9.0189327 Z M 18,15.988009 V 27 h 2.447331 4.801965 c 1.32054,0 1.825709,-0.552652 1.825709,-1.821582 V 22.880815 C 27.075005,21.617134 26.32054,20.583213 25,20.583213 V 18.28561 c 0,-1.263681 -0.831147,-2.297602 -2.151687,-2.297602 H 20.447331 Z M 4,17 v 2 h 12.004912 v -2 z m 16,1 h 2.848313 v 2.5 H 20 Z M 9,22 v 2 h 7.004912 v -2 z m 11,1 h 4 v 2 h -4 z"
     id="path2"
     inkscape:connector-curvature="0"
     style="fill:#555753;stroke-width:0.99999982"
     sodipodi:nodetypes="ssccccccsssccccccccccccccccccssscsscccccccccccccccccccccc" />
</svg>
