<?xml version="1.0" encoding="UTF-8" standalone="no"?>
<svg
   xmlns:dc="http://purl.org/dc/elements/1.1/"
   xmlns:cc="http://creativecommons.org/ns#"
   xmlns:rdf="http://www.w3.org/1999/02/22-rdf-syntax-ns#"
   xmlns:svg="http://www.w3.org/2000/svg"
   xmlns="http://www.w3.org/2000/svg"
   xmlns:sodipodi="http://sodipodi.sourceforge.net/DTD/sodipodi-0.dtd"
   xmlns:inkscape="http://www.inkscape.org/namespaces/inkscape"
   viewBox="0 0 32 32"
   version="1.1"
   id="svg4"
   sodipodi:docname="lc_linenumberdialog.svg"
   inkscape:version="0.92.4 (5da689c313, 2019-01-14)"
   width="32"
   height="32">
  <metadata
     id="metadata10">
    <rdf:RDF>
      <cc:Work
         rdf:about="">
        <dc:format>image/svg+xml</dc:format>
        <dc:type
           rdf:resource="http://purl.org/dc/dcmitype/StillImage" />
        <dc:title></dc:title>
      </cc:Work>
    </rdf:RDF>
  </metadata>
  <defs
     id="defs8" />
  <sodipodi:namedview
     pagecolor="#ffffff"
     bordercolor="#666666"
     borderopacity="1"
     objecttolerance="10"
     gridtolerance="10"
     guidetolerance="10"
     inkscape:pageopacity="0"
     inkscape:pageshadow="2"
     inkscape:window-width="1366"
     inkscape:window-height="704"
     id="namedview6"
     showgrid="false"
     inkscape:zoom="9.8333333"
     inkscape:cx="12"
     inkscape:cy="12"
     inkscape:window-x="0"
     inkscape:window-y="0"
     inkscape:window-maximized="1"
     inkscape:current-layer="svg4"
     inkscape:snap-global="true"
     inkscape:snap-page="true">
    <inkscape:grid
       type="xygrid"
       id="grid836"
       spacingx="0.5"
       spacingy="0.5" />
  </sodipodi:namedview>
  <path
     d="m 24.734991,3.5214425 c 0,1.3726413 -1.123071,2.4957116 -2.495711,2.4957116 v 2.4957116 h 2.495711 v 6.2392793 h 2.495712 V 3.5214425 Z M 3.5214422,4.7692983 V 7.2650099 H 17.247856 V 4.7692983 Z M 8.5128654,9.7607215 V 12.256432 H 17.247856 V 9.7607215 Z m 1.4257723,3.7435665 c -1.6799093,1.711347 -2.1398773,3.248506 -2.1398773,5.135221 v 3.421854 l -4.2773182,4.277318 v 2.139876 H 5.6613199 L 9.9386377,24.20124 h 3.4218553 c 1.635715,0 3.423873,-0.490399 5.135219,-2.139877 v -2.317796 h -1.874221 c -0.588642,0.784858 -1.512203,1.24709 -2.493275,1.247856 -1.722929,0 -3.119638,-1.39671 -3.119638,-3.119639 0.0015,-0.980214 0.463682,-1.90271 1.247855,-2.490838 V 13.504288 Z M 24.734991,16 c -2.071441,0 -3.743568,1.672127 -3.743568,3.743567 h 2.495712 c 0,-0.68632 0.561535,-1.247855 1.247856,-1.247855 0.686321,0 1.247855,0.561535 1.247855,1.247855 0,0.349399 -0.07449,0.524492 -0.224224,0.711668 l -4.767199,5.976059 v 2.047263 h 7.487135 v -2.495712 h -3.992164 l 3.119641,-3.992163 C 28.007113,21.616326 28.478558,20.92903 28.478558,19.743567 28.478558,17.672127 26.806431,16 24.734991,16 Z"
     id="path2"
     inkscape:connector-curvature="0"
     style="fill:#555753;stroke-width:1" />
</svg>
