<?xml version="1.0" encoding="UTF-8" standalone="no"?>
<svg
   xmlns:dc="http://purl.org/dc/elements/1.1/"
   xmlns:cc="http://creativecommons.org/ns#"
   xmlns:rdf="http://www.w3.org/1999/02/22-rdf-syntax-ns#"
   xmlns:svg="http://www.w3.org/2000/svg"
   xmlns="http://www.w3.org/2000/svg"
   xmlns:sodipodi="http://sodipodi.sourceforge.net/DTD/sodipodi-0.dtd"
   xmlns:inkscape="http://www.inkscape.org/namespaces/inkscape"
   viewBox="0 0 32 32"
   version="1.1"
   id="svg8"
   sodipodi:docname="numberliststyle.svg"
   inkscape:version="0.92.4 (5da689c313, 2019-01-14)"
   width="32"
   height="32">
  <metadata
     id="metadata14">
    <rdf:RDF>
      <cc:Work
         rdf:about="">
        <dc:format>image/svg+xml</dc:format>
        <dc:type
           rdf:resource="http://purl.org/dc/dcmitype/StillImage" />
        <dc:title />
      </cc:Work>
    </rdf:RDF>
  </metadata>
  <defs
     id="defs12" />
  <sodipodi:namedview
     pagecolor="#ffffff"
     bordercolor="#666666"
     borderopacity="1"
     objecttolerance="10"
     gridtolerance="10"
     guidetolerance="10"
     inkscape:pageopacity="0"
     inkscape:pageshadow="2"
     inkscape:window-width="1366"
     inkscape:window-height="704"
     id="namedview10"
     showgrid="true"
     inkscape:zoom="9.8333334"
     inkscape:cx="12.252143"
     inkscape:cy="12.538036"
     inkscape:window-x="0"
     inkscape:window-y="0"
     inkscape:window-maximized="1"
     inkscape:current-layer="svg8"
     inkscape:snap-page="true"
     inkscape:snap-global="true">
    <inkscape:grid
       type="xygrid"
       id="grid840"
       spacingx="0.5"
       spacingy="0.5"
       empspacing="2" />
  </sodipodi:namedview>
  <path
     sodipodi:nodetypes="cccccccccccccccccc"
     style="fill:#555753;stroke-width:1"
     inkscape:connector-curvature="0"
     id="path2"
     d="M 25.014515,18.000941 C 25.014515,19.365756 23.369908,20 22.000001,20 v 2 h 3 v 7.027777 H 26.98407 V 18.000941 Z M 4,19.018519 V 21.5 H 17 V 19.018519 Z M 9,24 v 2 h 8 v -2 z" />
  <path
     sodipodi:nodetypes="sccsscccccccsscccccccccc"
     style="opacity:1;fill:#555753;stroke-width:1;fill-opacity:1"
     inkscape:connector-curvature="0"
     id="path4"
     d="M 24.671295,2.9722227 C 22.60398,2.9722227 20.935184,4.9403705 20.935184,7 h 2.064817 c 0,-0.6824074 0.152203,-1.9988126 1.493328,-1.9988126 1.506671,0 1.486895,1.01085 1.486895,1.6932574 0,0.3474074 -0.137895,0.5214988 -0.287337,0.7076099 L 20.999999,13 v 2 H 28 V 13 H 24.423194 L 27.104416,8.9287473 C 27.5,8.1969794 27.975203,7.3900976 27.975203,6.6944448 c 0,-2.0596296 -1.236593,-3.7222221 -3.303908,-3.7222221 z M 4,5.0185186 V 7 H 17 V 5.0185186 Z M 10.972222,11 v 2 H 17 v -2 z" />
</svg>
