<?xml version="1.0" encoding="UTF-8" standalone="no"?>
<svg
   xmlns:dc="http://purl.org/dc/elements/1.1/"
   xmlns:cc="http://creativecommons.org/ns#"
   xmlns:rdf="http://www.w3.org/1999/02/22-rdf-syntax-ns#"
   xmlns:svg="http://www.w3.org/2000/svg"
   xmlns="http://www.w3.org/2000/svg"
   xmlns:sodipodi="http://sodipodi.sourceforge.net/DTD/sodipodi-0.dtd"
   xmlns:inkscape="http://www.inkscape.org/namespaces/inkscape"
   viewBox="0 0 32 32"
   version="1.1"
   id="svg8"
   sodipodi:docname="numberingstart.svg"
   inkscape:version="0.92.4 (5da689c313, 2019-01-14)"
   width="32"
   height="32">
  <metadata
     id="metadata14">
    <rdf:RDF>
      <cc:Work
         rdf:about="">
        <dc:format>image/svg+xml</dc:format>
        <dc:type
           rdf:resource="http://purl.org/dc/dcmitype/StillImage" />
        <dc:title></dc:title>
      </cc:Work>
    </rdf:RDF>
  </metadata>
  <defs
     id="defs12" />
  <sodipodi:namedview
     pagecolor="#ffffff"
     bordercolor="#666666"
     borderopacity="1"
     objecttolerance="10"
     gridtolerance="10"
     guidetolerance="10"
     inkscape:pageopacity="0"
     inkscape:pageshadow="2"
     inkscape:window-width="1366"
     inkscape:window-height="704"
     id="namedview10"
     showgrid="true"
     inkscape:zoom="9.8333334"
     inkscape:cx="-5.3410776"
     inkscape:cy="18.029561"
     inkscape:window-x="0"
     inkscape:window-y="0"
     inkscape:window-maximized="1"
     inkscape:current-layer="svg8"
     inkscape:snap-page="true"
     inkscape:snap-global="true">
    <inkscape:grid
       type="xygrid"
       id="grid840"
       spacingx="0.5"
       spacingy="0.5"
       empspacing="2" />
  </sodipodi:namedview>
  <g
     id="g6"
     style="fill:#555753;stroke-width:0.80447072"
     transform="matrix(1.2453703,0,0,1.2407407,1.0092593,1.731482)">
    <path
       d="m 19.275597,13.112699 c 0,1.1 -1.320577,1.611182 -2.420577,1.611182 v 1.61194 h 2.408922 V 22 h 1.593156 V 13.112699 Z M 2.4014871,13.932836 v 2 H 12.840149 v -2 z m 4.0148701,4.014925 v 1.611941 h 6.4237918 v -1.611941 z"
       id="path2"
       inkscape:connector-curvature="0"
       style="stroke-width:0.80447072"
       sodipodi:nodetypes="cccccccccccccccccc" />
    <path
       d="m 19,1 c -1.66,0 -3,1.5862684 -3,3.2462684 h 1.657994 c 0,-0.55 0.122215,-1.6109834 1.199104,-1.6109834 1.209818,0 1.193938,0.814715 1.193938,1.364715 0,0.28 -0.110726,0.4203125 -0.230724,0.5703125 L 16.052045,9.0820894 V 10.69403 h 5.620819 V 9.0820894 H 18.800781 L 20.953733,5.8007812 C 21.271377,5.2109981 21.652952,4.5606754 21.652952,4 21.652952,2.34 20.66,1 19,1 Z M 2.4014871,2.6492535 V 4.2462684 H 12.840149 V 2.6492535 Z M 8,7.4701491 v 1.6119403 h 4.840149 V 7.4701491 Z"
       id="path4"
       inkscape:connector-curvature="0"
       style="opacity:0.35;stroke-width:0.80447072"
       sodipodi:nodetypes="sccsscccccccsscccccccccc" />
  </g>
</svg>
