<svg height="128" viewBox="0 0 128 128" width="128" xmlns="http://www.w3.org/2000/svg"><path d="m18.000147 5.9918v2 112 2h1.999997 88.000006 2v-2-70-.8752l-.62497-.6248-41.750007-42-.499969-.5h-.875016-46.250044z" fill="#fff"/><g fill="#555753" transform="translate(-187.42857 -391.21935)"><path d="m17.251953 0c-.250372 0-.500725.01115625-.75.03515625-3.66708.6998-4.56576 2.26624685-4.5 5.99804685v115.9687469c.0004 4.1875 1.81149 5.99765 6 5.99805h78.386719c-.842553-.73495-1.388672-1.80191-1.388672-3v-3h-75-2v-2-112-2h2 46.25.875l.5.5 41.75 42 .625.625v.875 42.191406c.64974-.120134 1.31613-.191406 2-.191406 1.41107 0 2.75703.276949 3.99805.763672v-42.580078c.048-2.1119-.78004-4.230247-2.25-5.748047l-42.160159-42.1503908c-1.51819-1.4691999-3.63759-2.29889995-5.75-2.24999995h-47.835938c-.249195-.024-.499627-.03515625-.75-.03515625zm94.748047 98c-.71339 0-1.38754.15188-2 .417969v9.582031h5.99805v-7.98242c-.90944-1.219929-2.35015-2.01758-3.99805-2.01758z" transform="translate(187.42857 391.21935)"/><path d="m274.06356 391.28095c-2.66247.8528-3.55852 4.9061-1.50595 6.8121l24.09514 24.2209c2.22593 2.1217 6.65946.3063 6.77674-2.7753v-24.2208c-.00024-2.1137-1.91322-4.0366-4.01587-4.0369h-24.09514c-.41518-.064-.83997-.064-1.25492 0z"/><path d="m218.42781 439.21575v4h18v-4zm0 8v4h18v-4zm0 8v4h18v-4zm0 8v4h18v-4zm0 8v4h64v-4zm0 8v4h64v-4zm0 8v4h42v-4z"/><g transform="translate(187.42857 391.21935)"><path d="m52.998047 47.998047v28h42v-28zm3.001953 3h36v22h-36z"/><path d="m57 51.998047v20h34v-20z" opacity=".35"/><path d="m65.599609 52.443359s-3.209558 4.858885-4.798828 7.333985c-1.14912 1.789713-2.78266 3.741999-3.800781 4.93164v2.103516c.744748-.121325 1.944125-.417627 3.800781-1.146484.56249-.1145 1.423828 1.832031 1.423828 1.832031 2.99993-.5347 4.159826-1.832031 5.166016-1.832031.60984 0 3.188635 1.220703 3.609375 1.220703.60033 0 3.807674-.609375 4.808594-.609375 1.01872 0 7.791015 1.832031 7.791015 1.832031l6.853516-1.222656h.546875v-3.228516c-2.900728-2.939487-6.447106-6.451558-8.601562-7.548828-2.852661 1.162246-5.972128 2.61477-8.980469 4.460937-2.834752-2.585487-4.49878-4.887504-6.619141-8.126953-.70179.2159-.674219.1338-1.199219 0z"/><path d="m60.800781 65.666016c-1.854503.728011-3.055848 1.024496-3.800781 1.146484v5.185547h34v-5.111328h-.546875l-6.853516 1.222656s-6.772295-1.832031-7.791015-1.832031c-1.00092 0-4.208264.609375-4.808594.609375-.42074 0-2.999535-1.220703-3.609375-1.220703-1.00619 0-2.166086 1.297331-5.166016 1.832031 0 0-.861338-1.946531-1.423828-1.832031z" opacity=".33"/><path d="m86.082031 51.998047a6 6.0000038 0 0 0 4.917969 4.914062v-4.914062z"/></g><path d="m299.42857 484.21935c-5.52285 0-10 4.47715-10 10v6h-3c-1.662 0-3 1.338-3 3v13c0 1.662 1.338 3 3 3h26c1.662 0 3-1.338 3-3v-13c0-1.662-1.338-3-3-3h-3v-6c0-5.52285-4.47715-10-10-10zm0 4c3.31371 0 6 2.68629 6 6v6h-12v-6c0-3.31371 2.68629-6 6-6z"/></g></svg>