<?xml version="1.0" encoding="UTF-8" standalone="no"?>
<svg
   xmlns:dc="http://purl.org/dc/elements/1.1/"
   xmlns:cc="http://creativecommons.org/ns#"
   xmlns:rdf="http://www.w3.org/1999/02/22-rdf-syntax-ns#"
   xmlns:svg="http://www.w3.org/2000/svg"
   xmlns="http://www.w3.org/2000/svg"
   xmlns:sodipodi="http://sodipodi.sourceforge.net/DTD/sodipodi-0.dtd"
   xmlns:inkscape="http://www.inkscape.org/namespaces/inkscape"
   viewBox="0 0 32 32"
   version="1.1"
   id="svg4"
   sodipodi:docname="italic.svg"
   inkscape:version="0.92.4 (5da689c313, 2019-01-14)"
   width="32"
   height="32">
  <metadata
     id="metadata10">
    <rdf:RDF>
      <cc:Work
         rdf:about="">
        <dc:format>image/svg+xml</dc:format>
        <dc:type
           rdf:resource="http://purl.org/dc/dcmitype/StillImage" />
        <dc:title></dc:title>
      </cc:Work>
    </rdf:RDF>
  </metadata>
  <defs
     id="defs8" />
  <sodipodi:namedview
     pagecolor="#ffffff"
     bordercolor="#666666"
     borderopacity="1"
     objecttolerance="10"
     gridtolerance="10"
     guidetolerance="10"
     inkscape:pageopacity="0"
     inkscape:pageshadow="2"
     inkscape:window-width="1366"
     inkscape:window-height="704"
     id="namedview6"
     showgrid="true"
     inkscape:zoom="9.8333333"
     inkscape:cx="12"
     inkscape:cy="11.186441"
     inkscape:window-x="0"
     inkscape:window-y="0"
     inkscape:window-maximized="1"
     inkscape:current-layer="svg4"
     inkscape:snap-page="true"
     inkscape:snap-grids="false">
    <inkscape:grid
       type="xygrid"
       id="grid836"
       spacingx="0.5"
       spacingy="0.5" />
  </sodipodi:namedview>
  <path
     d="m 18.695756,3.6101696 c -6.842714,0 -12.38983,5.5471157 -12.38983,12.3898304 0,6.842713 5.547116,12.38983 12.38983,12.38983 0.850552,-8.07e-4 1.698759,-0.0892 2.531204,-0.263769 0.276098,-1.380095 0.551481,-2.760336 0.827602,-4.140429 -1.062719,0.450294 -2.204628,0.683942 -3.358806,0.687249 -4.7899,0 -8.672881,-3.882982 -8.672881,-8.672881 0,-4.7899 3.882981,-8.6728809 8.672881,-8.6728809 2.320604,9.132e-4 4.54405,0.9317797 6.173136,2.5844418 C 25.143417,8.5385695 25.419669,7.165925 25.694074,5.7929095 23.634882,4.3760594 21.195297,3.6151652 18.695756,3.6101696 Z"
     id="path2"
     inkscape:connector-curvature="0"
     style="fill:#555753;stroke-width:0.99999994" />
</svg>
