<?xml version="1.0" encoding="UTF-8" standalone="no"?>
<svg
   xmlns:dc="http://purl.org/dc/elements/1.1/"
   xmlns:cc="http://creativecommons.org/ns#"
   xmlns:rdf="http://www.w3.org/1999/02/22-rdf-syntax-ns#"
   xmlns:svg="http://www.w3.org/2000/svg"
   xmlns="http://www.w3.org/2000/svg"
   xmlns:sodipodi="http://sodipodi.sourceforge.net/DTD/sodipodi-0.dtd"
   xmlns:inkscape="http://www.inkscape.org/namespaces/inkscape"
   viewBox="0 0 32 32"
   version="1.1"
   id="svg4"
   sodipodi:docname="underlinedouble.svg"
   inkscape:version="0.92.4 (5da689c313, 2019-01-14)"
   width="32"
   height="32">
  <metadata
     id="metadata10">
    <rdf:RDF>
      <cc:Work
         rdf:about="">
        <dc:format>image/svg+xml</dc:format>
        <dc:type
           rdf:resource="http://purl.org/dc/dcmitype/StillImage" />
        <dc:title></dc:title>
      </cc:Work>
    </rdf:RDF>
  </metadata>
  <defs
     id="defs8" />
  <sodipodi:namedview
     pagecolor="#ffffff"
     bordercolor="#666666"
     borderopacity="1"
     objecttolerance="10"
     gridtolerance="10"
     guidetolerance="10"
     inkscape:pageopacity="0"
     inkscape:pageshadow="2"
     inkscape:window-width="1366"
     inkscape:window-height="707"
     id="namedview6"
     showgrid="true"
     inkscape:zoom="13.906433"
     inkscape:cx="11.829342"
     inkscape:cy="20.767478"
     inkscape:window-x="0"
     inkscape:window-y="0"
     inkscape:window-maximized="1"
     inkscape:current-layer="svg4"
     inkscape:snap-page="true"
     inkscape:snap-grids="true">
    <inkscape:grid
       type="xygrid"
       id="grid836"
       spacingx="0.5"
       spacingy="0.5"
       empspacing="2" />
  </sodipodi:namedview>
  <path
     d="m 11.996387,2.985472 c -2.6905495,0 -4.9733656,1.8251891 -4.9733656,4.5157388 V 18.46247 c 0,0.891902 0.3587934,1.818484 0.7772586,2.53753 H 22.5 c 0.418465,-0.719046 1.391042,-1.59478 1.391042,-2.486682 V 7.5520582 c 0,-2.6905497 -1.896598,-4.5665862 -4.587148,-4.5665862 z m 0,3.0435836 h 6.697338 c 0.672637,0 1.217918,0.8503648 1.217918,1.5230026 V 18.513318 c 0,0.672637 -0.341895,1.472154 -1.014529,1.472154 h -7.002422 c -0.672637,0 -0.96368,-1.206297 -0.96368,-1.878934 V 7.1452785 c 0,-0.6726378 0.392738,-1.1162229 1.065375,-1.1162229 z M 4,23 v 2 h 24 v -2 z m 0,3 v 2 h 24 v -2 z"
     id="path2"
     inkscape:connector-curvature="0"
     style="fill:#555753;stroke-width:1"
     sodipodi:nodetypes="sssccssssssssssssscccccccccc" />
</svg>
