<?xml version="1.0" encoding="UTF-8" standalone="no"?>
<svg
   xmlns:dc="http://purl.org/dc/elements/1.1/"
   xmlns:cc="http://creativecommons.org/ns#"
   xmlns:rdf="http://www.w3.org/1999/02/22-rdf-syntax-ns#"
   xmlns:svg="http://www.w3.org/2000/svg"
   xmlns="http://www.w3.org/2000/svg"
   xmlns:sodipodi="http://sodipodi.sourceforge.net/DTD/sodipodi-0.dtd"
   xmlns:inkscape="http://www.inkscape.org/namespaces/inkscape"
   viewBox="0 0 32 32"
   version="1.1"
   id="svg4"
   sodipodi:docname="underline.svg"
   inkscape:version="0.92.4 (5da689c313, 2019-01-14)"
   width="32"
   height="32">
  <metadata
     id="metadata10">
    <rdf:RDF>
      <cc:Work
         rdf:about="">
        <dc:format>image/svg+xml</dc:format>
        <dc:type
           rdf:resource="http://purl.org/dc/dcmitype/StillImage" />
        <dc:title></dc:title>
      </cc:Work>
    </rdf:RDF>
  </metadata>
  <defs
     id="defs8" />
  <sodipodi:namedview
     pagecolor="#ffffff"
     bordercolor="#666666"
     borderopacity="1"
     objecttolerance="10"
     gridtolerance="10"
     guidetolerance="10"
     inkscape:pageopacity="0"
     inkscape:pageshadow="2"
     inkscape:window-width="1366"
     inkscape:window-height="707"
     id="namedview6"
     showgrid="true"
     inkscape:zoom="13.906433"
     inkscape:cx="11.279182"
     inkscape:cy="22.773987"
     inkscape:window-x="0"
     inkscape:window-y="0"
     inkscape:window-maximized="1"
     inkscape:current-layer="svg4"
     inkscape:snap-page="true"
     inkscape:snap-grids="true">
    <inkscape:grid
       type="xygrid"
       id="grid836"
       spacingx="0.5"
       spacingy="0.5"
       empspacing="2" />
  </sodipodi:namedview>
  <path
     d="m 4,29 v -3 h 24 v 3 z m 8.363681,-4.968766 c -2.6777124,0 -5.3158363,-2.323256 -5.3158363,-5.000968 V 8.1213077 c 0,-2.6777117 2.6381239,-5.1720171 5.3158363,-5.1720171 h 7.272639 c 2.677712,0 5.35179,2.4943054 5.35179,5.1720171 V 19.030266 c 0,2.677712 -2.674078,5.000968 -5.35179,5.000968 z m 0,-4.017675 h 7.272639 c 0.669428,0 1.337665,-0.313867 1.339225,-0.983293 l 0.02542,-10.9089583 c 0.0016,-0.6694264 -0.69522,-1.1231234 -1.364648,-1.1231234 h -7.272639 c -0.669429,0 -1.364649,0.4282715 -1.364649,1.0976997 v 10.934382 c 0,0.669428 0.69522,0.983293 1.364649,0.983293 z"
     id="path2"
     inkscape:connector-curvature="0"
     style="fill:#555753;stroke-width:0.99999994"
     sodipodi:nodetypes="cccccssssssssssssssssss" />
</svg>
