<svg viewBox="0 0 32 32" xmlns="http://www.w3.org/2000/svg"><path d="m16 3c-.55228 0-1 .44772-1 1v18.58594l-5.29297-5.29297c-.1875-.18755-.44183-.29293-.70703-.29297-.2652.00004-.51953.10542-.70703.29297-.39042.39051-.39042 1.02355 0 1.41406l7 7c.39053.39037 1.02353.39037 1.41406 0l7-7c.39042-.39051.39042-1.02355 0-1.41406-.39051-.39042-1.02355-.39042-1.41406 0l-5.29297 5.29297v-18.58594c0-.55228-.44772-1-1-1zm-12 24v2h24v-2z" fill="#aaa8ac"/><circle cx="24.5" cy="7.5" fill="#1c99e0" r="5.5"/></svg>