<?xml version="1.0" encoding="UTF-8" standalone="no"?>
<svg
   xmlns:dc="http://purl.org/dc/elements/1.1/"
   xmlns:cc="http://creativecommons.org/ns#"
   xmlns:rdf="http://www.w3.org/1999/02/22-rdf-syntax-ns#"
   xmlns:svg="http://www.w3.org/2000/svg"
   xmlns="http://www.w3.org/2000/svg"
   xmlns:sodipodi="http://sodipodi.sourceforge.net/DTD/sodipodi-0.dtd"
   xmlns:inkscape="http://www.inkscape.org/namespaces/inkscape"
   viewBox="0 0 32 32"
   version="1.1"
   id="svg4"
   sodipodi:docname="defaultnumbering.svg">
  <metadata
     id="metadata10">
    <rdf:RDF>
      <cc:Work
         rdf:about="">
        <dc:format>image/svg+xml</dc:format>
        <dc:type
           rdf:resource="http://purl.org/dc/dcmitype/StillImage" />
      </cc:Work>
    </rdf:RDF>
  </metadata>
  <defs
     id="defs8" />
  <sodipodi:namedview
     pagecolor="#ffffff"
     bordercolor="#666666"
     borderopacity="1"
     objecttolerance="10"
     gridtolerance="10"
     guidetolerance="10"
     inkscape:pageopacity="0"
     inkscape:pageshadow="2"
     inkscape:window-width="640"
     inkscape:window-height="480"
     id="namedview6"
     showgrid="true">
    <inkscape:grid
       type="xygrid"
       id="grid817" />
  </sodipodi:namedview>
  <path
     d="M 4 18 L 4 20 L 19 20 L 19 18 L 4 18 z M 24.5 18 C 22.761353 18.0016 21.28744 19.279185 21.039062 21 L 23.048828 21 C 23.264973 20.390697 23.841386 19.983219 24.488281 19.982422 C 25.135176 19.983219 25.711589 20.390697 25.927734 21 L 26 21.5 C 26.413826 23.396466 23 24.333333 21 26 L 21 29 L 28 29 L 28 27 L 23 27 L 23.085938 26.810547 C 23.303424 26.331419 27.329609 24.626621 27.599609 23.400391 C 27.999609 23.000391 28 21.73 28 21.5 L 27.958984 21 C 27.710713 19.279918 26.237905 18.002541 24.5 18 z M 4 22 L 4 24 L 19 24 L 19 22 L 4 22 z M 12 26 L 12 28 L 19 28 L 19 26 L 12 26 z "
     id="path2"
     style="fill:#555753;fill-opacity:1" />
  <path
     id="path819"
     d="M 4,3 V 5 H 19 V 3 Z m 21,0 c 0,1.4 -1.7,2 -3,2 v 2 h 3 v 7 h 2 V 3 Z M 4,7 V 9 H 19 V 7 Z m 6,4 v 2 h 9 v -2 z"
     inkscape:connector-curvature="0"
     style="fill:#555753;fill-opacity:1"
     sodipodi:nodetypes="ccccccccccccccccccccccc" />
</svg>
