<?xml version="1.0" encoding="UTF-8" standalone="no"?>
<svg
   xmlns:dc="http://purl.org/dc/elements/1.1/"
   xmlns:cc="http://creativecommons.org/ns#"
   xmlns:rdf="http://www.w3.org/1999/02/22-rdf-syntax-ns#"
   xmlns:svg="http://www.w3.org/2000/svg"
   xmlns="http://www.w3.org/2000/svg"
   xmlns:sodipodi="http://sodipodi.sourceforge.net/DTD/sodipodi-0.dtd"
   xmlns:inkscape="http://www.inkscape.org/namespaces/inkscape"
   viewBox="0 0 32 32"
   version="1.1"
   id="svg8"
   sodipodi:docname="numberformatthousands.svg"
   inkscape:version="0.92.4 (5da689c313, 2019-01-14)"
   width="32"
   height="32">
  <metadata
     id="metadata14">
    <rdf:RDF>
      <cc:Work
         rdf:about="">
        <dc:format>image/svg+xml</dc:format>
        <dc:type
           rdf:resource="http://purl.org/dc/dcmitype/StillImage" />
        <dc:title></dc:title>
      </cc:Work>
    </rdf:RDF>
  </metadata>
  <defs
     id="defs12" />
  <sodipodi:namedview
     pagecolor="#ffffff"
     bordercolor="#666666"
     borderopacity="1"
     objecttolerance="10"
     gridtolerance="10"
     guidetolerance="10"
     inkscape:pageopacity="0"
     inkscape:pageshadow="2"
     inkscape:window-width="1366"
     inkscape:window-height="704"
     id="namedview10"
     showgrid="true"
     inkscape:zoom="9.8333333"
     inkscape:cx="12.786254"
     inkscape:cy="7.8298444"
     inkscape:window-x="0"
     inkscape:window-y="0"
     inkscape:window-maximized="1"
     inkscape:current-layer="svg8"
     inkscape:snap-page="true"
     inkscape:snap-grids="false">
    <inkscape:grid
       type="xygrid"
       id="grid1628"
       spacingx="0.5"
       spacingy="0.5" />
  </sodipodi:namedview>
  <g
     id="g6"
     style="fill:#555753;stroke-width:0.82352942"
     transform="matrix(1.2142857,0,0,1.2142857,1.4285716,2.0357145)">
    <path
       d="m 9,14 v 3 h 1 2 v -3 z"
       id="path2"
       inkscape:connector-curvature="0"
       style="stroke-width:0.82352942" />
    <path
       d="M 5,6 C 5,7.380708 3.3807325,9 2,9 v 2 C 3.1312865,11 4.1621838,10.610022 5,9.9765625 V 17 H 7 V 6 Z m 13,0 c -2.198703,0 -4,1.8012972 -4,4 v 3 c 0,2.198703 1.801297,4 4,4 2.198703,0 4,-1.801297 4,-4 V 10 C 22,7.8012972 20.198703,6 18,6 Z m 0,2 c 1.125297,0 2,0.8747028 2,2 v 3 c 0,1.125297 -0.874703,2 -2,2 -1.125297,0 -2,-0.874703 -2,-2 v -3 c 0,-1.1252972 0.874703,-2 2,-2 z"
       id="path4"
       inkscape:connector-curvature="0"
       style="opacity:0.35;stroke-width:0.82352942" />
  </g>
</svg>
