<?xml version="1.0" encoding="UTF-8" standalone="no"?>
<svg
   xmlns:dc="http://purl.org/dc/elements/1.1/"
   xmlns:cc="http://creativecommons.org/ns#"
   xmlns:rdf="http://www.w3.org/1999/02/22-rdf-syntax-ns#"
   xmlns:svg="http://www.w3.org/2000/svg"
   xmlns="http://www.w3.org/2000/svg"
   xmlns:sodipodi="http://sodipodi.sourceforge.net/DTD/sodipodi-0.dtd"
   xmlns:inkscape="http://www.inkscape.org/namespaces/inkscape"
   viewBox="0 0 32 32"
   version="1.1"
   id="svg4"
   sodipodi:docname="numberformatdecimal.svg"
   inkscape:version="0.92.4 (5da689c313, 2019-01-14)"
   width="32"
   height="32">
  <metadata
     id="metadata10">
    <rdf:RDF>
      <cc:Work
         rdf:about="">
        <dc:format>image/svg+xml</dc:format>
        <dc:type
           rdf:resource="http://purl.org/dc/dcmitype/StillImage" />
        <dc:title></dc:title>
      </cc:Work>
    </rdf:RDF>
  </metadata>
  <defs
     id="defs8" />
  <sodipodi:namedview
     pagecolor="#ffffff"
     bordercolor="#666666"
     borderopacity="1"
     objecttolerance="10"
     gridtolerance="10"
     guidetolerance="10"
     inkscape:pageopacity="0"
     inkscape:pageshadow="2"
     inkscape:window-width="1366"
     inkscape:window-height="707"
     id="namedview6"
     showgrid="true"
     inkscape:zoom="9.8333333"
     inkscape:cx="-4.881356"
     inkscape:cy="11.186441"
     inkscape:window-x="0"
     inkscape:window-y="0"
     inkscape:window-maximized="1"
     inkscape:current-layer="svg4"
     inkscape:snap-page="true"
     inkscape:snap-grids="true">
    <inkscape:grid
       type="xygrid"
       id="grid836"
       spacingx="0.5"
       spacingy="0.5"
       empspacing="2" />
  </sodipodi:namedview>
  <path
     d="m 7.9891042,3.059322 c -2.7097816,0 -4.929782,2.2200003 -4.929782,4.9297822 V 20.313559 c 0,2.709782 2.2200004,4.929782 4.929782,4.929782 2.7097818,0 5.1331728,-2.22 5.1331728,-4.929782 V 7.9891041 c 0,-2.7097819 -2.423391,-4.9297821 -5.1331728,-4.9297821 z m 16.0217918,0 c -2.709781,0 -4.929782,2.2200003 -4.929782,4.9297822 V 20.313559 c 0,2.709782 2.220001,4.929782 4.929782,4.929782 2.709782,0 4.929782,-2.22 4.929782,-4.929782 V 7.9891041 c 0,-2.7097819 -2.22,-4.9297821 -4.929782,-4.9297821 z M 7.9891042,5.524213 c 1.3868673,0 2.4648918,1.078024 2.4648918,2.4648912 V 20.313559 c 0,1.386867 -1.0780245,2.464891 -2.4648918,2.464891 -1.3868672,0 -2.464891,-1.078024 -2.464891,-2.464891 V 7.9891041 c 0,-1.3868672 1.0780238,-2.4648911 2.464891,-2.4648911 z m 16.0217918,0 c 1.386868,0 2.464891,1.078024 2.464891,2.4648912 V 20.313559 c 0,1.386867 -1.078023,2.464891 -2.464891,2.464891 -1.386867,0 -2.464891,-1.078024 -2.464891,-2.464891 V 7.9891041 c 0,-1.3868672 1.078024,-2.4648911 2.464891,-2.4648911 z M 14.151332,22 v 3.243341 h 1.232446 c 0,0.677712 0.05848,1.346585 -0.284041,2.034017 C 14.757216,27.96479 14.151332,29 14.151332,29 H 17 c 1.671208,-1.424335 0.848669,-2.736671 0.848669,-3.756659 V 22 Z"
     id="path2"
     inkscape:connector-curvature="0"
     style="fill:#555753;stroke-width:0.99999994"
     sodipodi:nodetypes="sssssssssssssssssssssssssssscccsccscc" />
</svg>
