<?xml version="1.0" encoding="UTF-8" standalone="no"?>
<svg
   xmlns:dc="http://purl.org/dc/elements/1.1/"
   xmlns:cc="http://creativecommons.org/ns#"
   xmlns:rdf="http://www.w3.org/1999/02/22-rdf-syntax-ns#"
   xmlns:svg="http://www.w3.org/2000/svg"
   xmlns="http://www.w3.org/2000/svg"
   id="svg4"
   version="1.1"
   viewBox="0 0 24 24">
  <metadata
     id="metadata10">
    <rdf:RDF>
      <cc:Work
         rdf:about="">
        <dc:format>image/svg+xml</dc:format>
        <dc:type
           rdf:resource="http://purl.org/dc/dcmitype/StillImage" />
        <dc:title></dc:title>
      </cc:Work>
    </rdf:RDF>
  </metadata>
  <defs
     id="defs8" />
  <path
     id="path839"
     d="M 2 3 L 2 5 L 13 5 L 13 3 L 2 3 z M 19 3 A 3 3 0 0 0 16 6 A 3 3 0 0 0 19 9 A 3 3 0 0 0 22 6 A 3 3 0 0 0 19 3 z M 19 5 A 1 1 0 0 1 20 6 A 1 1 0 0 1 19 7 A 1 1 0 0 1 18 6 A 1 1 0 0 1 19 5 z M 6 7 L 6 9 L 13 9 L 13 7 L 6 7 z M 2 14 L 2 16 L 13 16 L 13 14 L 2 14 z M 8 18 L 8 20 L 13 20 L 13 18 L 8 18 z "
     style="font-variant-east_asian:normal;opacity:1;vector-effect:none;fill:#555753;fill-opacity:1;stroke-width:1;stroke-linecap:butt;stroke-linejoin:miter;stroke-miterlimit:4;stroke-dasharray:none;stroke-dashoffset:0;stroke-opacity:1" />
</svg>
