<?xml version="1.0" encoding="UTF-8" standalone="no"?>
<svg
   xmlns:dc="http://purl.org/dc/elements/1.1/"
   xmlns:cc="http://creativecommons.org/ns#"
   xmlns:rdf="http://www.w3.org/1999/02/22-rdf-syntax-ns#"
   xmlns:svg="http://www.w3.org/2000/svg"
   xmlns="http://www.w3.org/2000/svg"
   xmlns:sodipodi="http://sodipodi.sourceforge.net/DTD/sodipodi-0.dtd"
   xmlns:inkscape="http://www.inkscape.org/namespaces/inkscape"
   viewBox="0 0 32 32"
   version="1.1"
   id="svg4"
   sodipodi:docname="underlinedouble.svg"
   inkscape:version="0.92.4 (5da689c313, 2019-01-14)"
   width="32"
   height="32">
  <metadata
     id="metadata10">
    <rdf:RDF>
      <cc:Work
         rdf:about="">
        <dc:format>image/svg+xml</dc:format>
        <dc:type
           rdf:resource="http://purl.org/dc/dcmitype/StillImage" />
        <dc:title></dc:title>
      </cc:Work>
    </rdf:RDF>
  </metadata>
  <defs
     id="defs8" />
  <sodipodi:namedview
     pagecolor="#ffffff"
     bordercolor="#666666"
     borderopacity="1"
     objecttolerance="10"
     gridtolerance="10"
     guidetolerance="10"
     inkscape:pageopacity="0"
     inkscape:pageshadow="2"
     inkscape:window-width="1366"
     inkscape:window-height="704"
     id="namedview6"
     showgrid="true"
     inkscape:zoom="9.8333333"
     inkscape:cx="12"
     inkscape:cy="11.186441"
     inkscape:window-x="0"
     inkscape:window-y="0"
     inkscape:window-maximized="1"
     inkscape:current-layer="svg4"
     inkscape:snap-page="true"
     inkscape:snap-grids="false">
    <inkscape:grid
       type="xygrid"
       id="grid836"
       spacingx="0.5"
       spacingy="0.5" />
  </sodipodi:namedview>
  <path
     d="m 7.5423732,3.3135597 v 7.1833193 c 0,1.645567 0.3355177,2.942561 1.007647,3.891358 0.6721293,0.948796 1.5912558,1.615686 2.7562808,2.001135 1.17996,0.370665 2.554319,0.496172 4.12262,0.377572 1.583238,-0.1186 3.596727,-0.415256 5.404008,-0.889655 v 5.559756 h 3.624698 V 3.3135597 h -3.624698 v 9.8286873 c -1.478684,0.355798 -3.103099,0.585294 -4.238252,0.68907 -1.120215,0.08895 -2.062968,0.02178 -2.824715,-0.200586 -0.74681,-0.237198 -1.313095,-0.650634 -1.701437,-1.243629 -0.388342,-0.607823 -0.582878,-1.430636 -0.582878,-2.4683811 V 3.3135597 Z M 3.917676,22.645278 v 2.416464 h 24.164648 v -2.416464 z m 0,3.624697 v 2.416465 h 24.164648 v -2.416465 z"
     id="path2"
     inkscape:connector-curvature="0"
     style="fill:#555753;stroke-width:0.99999994" />
</svg>
