<?xml version="1.0" encoding="UTF-8" standalone="no"?>
<svg
   xmlns:dc="http://purl.org/dc/elements/1.1/"
   xmlns:cc="http://creativecommons.org/ns#"
   xmlns:rdf="http://www.w3.org/1999/02/22-rdf-syntax-ns#"
   xmlns:svg="http://www.w3.org/2000/svg"
   xmlns="http://www.w3.org/2000/svg"
   xmlns:sodipodi="http://sodipodi.sourceforge.net/DTD/sodipodi-0.dtd"
   xmlns:inkscape="http://www.inkscape.org/namespaces/inkscape"
   viewBox="0 0 32 32"
   version="1.1"
   id="svg4"
   sodipodi:docname="underline.svg"
   inkscape:version="0.92.4 (5da689c313, 2019-01-14)"
   width="32"
   height="32">
  <metadata
     id="metadata10">
    <rdf:RDF>
      <cc:Work
         rdf:about="">
        <dc:format>image/svg+xml</dc:format>
        <dc:type
           rdf:resource="http://purl.org/dc/dcmitype/StillImage" />
        <dc:title></dc:title>
      </cc:Work>
    </rdf:RDF>
  </metadata>
  <defs
     id="defs8" />
  <sodipodi:namedview
     pagecolor="#ffffff"
     bordercolor="#666666"
     borderopacity="1"
     objecttolerance="10"
     gridtolerance="10"
     guidetolerance="10"
     inkscape:pageopacity="0"
     inkscape:pageshadow="2"
     inkscape:window-width="1366"
     inkscape:window-height="707"
     id="namedview6"
     showgrid="true"
     inkscape:zoom="13.906433"
     inkscape:cx="19.738888"
     inkscape:cy="12.060809"
     inkscape:window-x="0"
     inkscape:window-y="0"
     inkscape:window-maximized="1"
     inkscape:current-layer="svg4"
     inkscape:snap-page="true"
     inkscape:snap-grids="true">
    <inkscape:grid
       type="xygrid"
       id="grid836"
       spacingx="0.5"
       spacingy="0.5"
       empspacing="2" />
  </sodipodi:namedview>
  <path
     d="m 8.0169492,2.9515722 v 7.2121118 c 0,1.652162 0.3368624,3.495475 1.0116858,4.448075 0.6748232,0.952599 1.597634,1.622161 2.767327,2.009155 1.18469,0.372109 2.564558,0.498161 4.139145,0.379086 1.589583,-0.119075 3.291289,-0.523702 5.105814,-1 v 8 H 25 V 2.9515722 H 21.040921 V 13 c -1.484611,0.357224 -2.795686,0.895809 -3.935386,1 -1.124706,0.08931 -2.071237,0.02187 -2.836037,-0.201389 -0.749804,-0.238149 -1.318359,-0.65324 -1.708256,-1.248614 -0.389898,-0.610259 -0.585214,-1.924883 -0.585214,-2.9667893 V 2.9515722 Z M 4,26 v 3 h 24 v -3 z"
     id="path2"
     inkscape:connector-curvature="0"
     style="fill:#555753;stroke-width:1"
     sodipodi:nodetypes="csscccccccccccsccccccc" />
</svg>
