<?xml version="1.0" encoding="UTF-8" standalone="no"?>
<svg
   xmlns:dc="http://purl.org/dc/elements/1.1/"
   xmlns:cc="http://creativecommons.org/ns#"
   xmlns:rdf="http://www.w3.org/1999/02/22-rdf-syntax-ns#"
   xmlns:svg="http://www.w3.org/2000/svg"
   xmlns="http://www.w3.org/2000/svg"
   xmlns:sodipodi="http://sodipodi.sourceforge.net/DTD/sodipodi-0.dtd"
   xmlns:inkscape="http://www.inkscape.org/namespaces/inkscape"
   viewBox="0 0 32 32"
   version="1.1"
   id="svg4"
   sodipodi:docname="showdetail.svg"
   inkscape:version="0.92.4 (unknown)">
  <metadata
     id="metadata10">
    <rdf:RDF>
      <cc:Work
         rdf:about="">
        <dc:format>image/svg+xml</dc:format>
        <dc:type
           rdf:resource="http://purl.org/dc/dcmitype/StillImage" />
        <dc:title></dc:title>
      </cc:Work>
    </rdf:RDF>
  </metadata>
  <defs
     id="defs8" />
  <sodipodi:namedview
     pagecolor="#ffffff"
     bordercolor="#666666"
     borderopacity="1"
     objecttolerance="10"
     gridtolerance="10"
     guidetolerance="10"
     inkscape:pageopacity="0"
     inkscape:pageshadow="2"
     inkscape:window-width="1366"
     inkscape:window-height="698"
     id="namedview6"
     showgrid="true"
     inkscape:zoom="14.75"
     inkscape:cx="5.8304203"
     inkscape:cy="14.589155"
     inkscape:window-x="0"
     inkscape:window-y="0"
     inkscape:window-maximized="1"
     inkscape:current-layer="svg4">
    <inkscape:grid
       type="xygrid"
       id="grid817" />
  </sodipodi:namedview>
  <path
     style="fill:#555753"
     d="M 13 3 L 13 5 L 28 5 L 28 3 L 13 3 z M 13 7 L 13 9 L 28 9 L 28 7 L 13 7 z M 6 11 L 6 14 L 3 14 L 3 16 L 6 16 L 6 19 L 8 19 L 8 16 L 11 16 L 11 14 L 8 14 L 8 11 L 6 11 z M 13 11 L 13 13 L 22 13 L 22 11 L 13 11 z M 13 18 L 13 20 L 28 20 L 28 18 L 13 18 z M 13 22 L 13 24 L 28 24 L 28 22 L 13 22 z M 13 26 L 13 28 L 20 28 L 20 26 L 13 26 z "
     id="path2" />
</svg>
