<?xml version="1.0" encoding="UTF-8" standalone="no"?>
<svg
   xmlns:dc="http://purl.org/dc/elements/1.1/"
   xmlns:cc="http://creativecommons.org/ns#"
   xmlns:rdf="http://www.w3.org/1999/02/22-rdf-syntax-ns#"
   xmlns:svg="http://www.w3.org/2000/svg"
   xmlns="http://www.w3.org/2000/svg"
   xmlns:sodipodi="http://sodipodi.sourceforge.net/DTD/sodipodi-0.dtd"
   xmlns:inkscape="http://www.inkscape.org/namespaces/inkscape"
   viewBox="0 0 32 32"
   version="1.1"
   id="svg4"
   sodipodi:docname="numberformatdecimal.svg"
   inkscape:version="0.92.4 (5da689c313, 2019-01-14)"
   width="32"
   height="32">
  <metadata
     id="metadata10">
    <rdf:RDF>
      <cc:Work
         rdf:about="">
        <dc:format>image/svg+xml</dc:format>
        <dc:type
           rdf:resource="http://purl.org/dc/dcmitype/StillImage" />
        <dc:title></dc:title>
      </cc:Work>
    </rdf:RDF>
  </metadata>
  <defs
     id="defs8" />
  <sodipodi:namedview
     pagecolor="#ffffff"
     bordercolor="#666666"
     borderopacity="1"
     objecttolerance="10"
     gridtolerance="10"
     guidetolerance="10"
     inkscape:pageopacity="0"
     inkscape:pageshadow="2"
     inkscape:window-width="1366"
     inkscape:window-height="704"
     id="namedview6"
     showgrid="true"
     inkscape:zoom="9.8333333"
     inkscape:cx="12"
     inkscape:cy="11.186441"
     inkscape:window-x="0"
     inkscape:window-y="0"
     inkscape:window-maximized="1"
     inkscape:current-layer="svg4"
     inkscape:snap-page="true"
     inkscape:snap-grids="false">
    <inkscape:grid
       type="xygrid"
       id="grid855"
       spacingx="0.5"
       spacingy="0.5" />
  </sodipodi:namedview>
  <path
     d="m 8.2723969,3.5169483 c -2.6139545,0 -4.755448,2.1414942 -4.755448,4.7554492 V 20.161018 c 0,2.613954 2.1414935,4.755448 4.755448,4.755448 2.6139541,0 4.7554481,-2.141494 4.7554481,-4.755448 V 8.2723975 c 0,-2.6139551 -2.141494,-4.7554493 -4.7554481,-4.7554492 z m 15.4552061,0 c -2.613954,0 -4.755448,2.1414942 -4.755448,4.7554492 V 20.161018 c 0,2.613954 2.141494,4.755448 4.755448,4.755448 2.613955,0 4.755448,-2.141494 4.755448,-4.755448 V 8.2723975 c 0,-2.6139551 -2.141493,-4.7554493 -4.755448,-4.7554492 z M 8.2723969,5.8946728 c 1.3378228,0 2.3777241,1.0399018 2.3777241,2.3777247 V 20.161018 c 0,1.337823 -1.0399013,2.377724 -2.3777241,2.377724 -1.3378229,0 -2.377724,-1.039901 -2.377724,-2.377724 V 8.2723975 c 0,-1.3378229 1.0399011,-2.3777247 2.377724,-2.3777247 z m 15.4552061,0 c 1.337823,0 2.377724,1.0399018 2.377724,2.3777247 V 20.161018 c 0,1.337823 -1.039901,2.377724 -2.377724,2.377724 -1.337823,0 -2.377724,-1.039901 -2.377724,-2.377724 V 8.2723975 c 0,-1.3378229 1.039901,-2.3777247 2.377724,-2.3777247 z M 14.216707,21.34988 v 3.566586 h 1.188862 c 0,0.653745 0.05641,1.298965 -0.273996,1.962087 -0.330408,0.663122 -0.914866,1.604499 -0.914866,1.604499 h 2.377724 c 1.394922,-1.188862 1.188862,-2.582669 1.188862,-3.566586 V 21.34988 Z"
     id="path2"
     inkscape:connector-curvature="0"
     style="fill:#555753;stroke-width:1" />
</svg>
