<svg height="32" viewBox="0 0 32 32" width="32" xmlns="http://www.w3.org/2000/svg"><path d="m7 3c-2.2159802 0-4 1.7840186-4 4v5 8 5c0 2.215982 1.7840198 4 4 4h18c2.215982 0 4-1.784018 4-4v-5-8-5c0-2.2159814-1.784018-4-4-4zm0 2h4 1 8 1 4c1.107991 0 2 .8920093 2 2v2 1 2 3 1 4 1 1 3c0 1.107991-.892009 2-2 2h-4-1-8-1-4c-1.1079901 0-2-.892009-2-2v-3-1-1-4-1-3-2-1-2c0-1.1079907.8920099-2 2-2z" fill="#aaa8ac"/><path d="m106 813c-.55228 0-1 .44772-1 1s.44772 1 1 1 1-.44772 1-1-.44772-1-1-1zm3.5 3-2 2-1.5-1-2 2v.5c0 .5.5.5.5.5h7s.4729-.0342.5-.5v-1z" fill="#2e3436"/><path d="m11.499828 9.2582822c-1.242132 0-2.2490977 1.0069658-2.2490977 2.2490968 0 1.242132 1.0069657 2.249098 2.2490977 2.249098 1.242131 0 2.249097-1.006966 2.249097-2.249098 0-1.242131-1.006966-2.2490968-2.249097-2.2490968zm7.871841 6.7472928-4.498196 4.498195-3.373645-2.249097-4.4981953 4.498195v1.124547c0 1.12455 1.1245488 1.12455 1.1245488 1.12455h15.7436825s1.063598-.07693 1.124549-1.12455v-2.249097z" fill="#aaa8ac" stroke-width="2.2491"/></svg>