<svg viewBox="0 0 32 32" xmlns="http://www.w3.org/2000/svg"><g fill="#aaa8ac"><path d="m15 6v16.585938l-5.2929688-5.292969c-.1874998-.18755-.4418315-.292929-.7070312-.292969-.2651997.00004-.5195314.105419-.7070312.292969-.3904197.390509-.3904197 1.023553 0 1.414062l7.0000002 7c.390529.39037 1.023533.39037 1.414062 0l7-7c.39042-.390509.39042-1.023553 0-1.414062-.390509-.39042-1.023553-.39042-1.414062 0l-5.292969 5.292969v-16.585938zm-11 21v2h24v-2z"/><path d="m11.5 3c-.277 0-.5.2230003-.5.5v1c0 .2769997.223.5.5.5h1c.277 0 .5-.2230003.5-.5v-1c0-.2769997-.223-.5-.5-.5zm4 0c-.277 0-.5.2230003-.5.5v1c0 .2769997.223.5.5.5h1c.277 0 .5-.2230003.5-.5v-1c0-.2769997-.223-.5-.5-.5zm4 0c-.277 0-.5.2230003-.5.5v1c0 .2769997.223.5.5.5h1c.277 0 .5-.2230003.5-.5v-1c0-.2769997-.223-.5-.5-.5z"/></g></svg>