<svg height="33" viewBox="0 0 33 33" width="33" xmlns="http://www.w3.org/2000/svg"><g fill="#aaa8ac"><path d="m7 3c-2.2159868 0-4 1.7840126-4 4v12c0 2.215986 1.7840154 4 4 4v7h.3378906c.4483487 0 .8746541-.5905 1.2519532-.998047l5.5566402-6.001953h11.853516c2.215986 0 4-1.784014 4-4v-12c0-2.2159874-1.784012-4-4-4zm0 2h19c1.107994 0 2 .8920063 2 2v12c0 1.107993-.892007 2-2 2h-12-.476562c-.524356 0-.94131.468642-1.410157.996094l-3.113281 3.503906v-3.5l-1-1h-1c-1.1079923 0-2-.892007-2-2v-12c0-1.1079937.8920066-2 2-2z"/><circle cx="8" cy="22" r="1"/></g></svg>