<svg viewBox="0 0 32 32" xmlns="http://www.w3.org/2000/svg"><path d="m17 3v16h7c3.499997 0 5-3.238579 5-6s-1.500003-6-5-6h-4v-4zm-12 4v2 1h6v2h-4c-2.2091368 0-4 1.290863-4 3.5s1.7908632 3.5 4 3.5h7v-10c0-1.1045684-.895432-2-2-2zm15 3h4c1.499999 0 2 1.895432 2 3s-.500001 3-2 3h-4zm-13.3886719 5c.1196383-.003728.2506009 0 .3886719 0h4v1h-4c-.5522841 0-1 .052284-1-.5 0-.414213.2524134-.488817.6113281-.5zm-2.8789062 8-1.7324219 2.597656v1.402344h.2675781l.1484375-.222656 1.5839844-2.375 1.5839844 2.375.1484375.222656h.2675781.2675781l.1484375-.222656 1.5839844-2.375 1.5839844 2.375.1484375.222656h.2675781.267578l.148438-.222656 1.583984-2.375 1.583984 2.375.148438.222656h.267578.267578l.148438-.222656 1.583984-2.375 1.583984 2.375.148438.222656h.267578.267578l.148438-.222656 1.583984-2.375 1.583984 2.375.148438.222656h.267578.267578l.148438-.222656 1.583984-2.375 1.583984 2.375.148438.222656h.267578.267578l.148438-.222656 1.583984-2.375 1.583984 2.375.148438.222656h.267578v-1.402344l-1.732422-2.597656h-.267578-.267578l-1.732422 2.597656-1.732422-2.597656h-.267578-.267578l-1.732422 2.597656-1.732422-2.597656h-.267578-.267578l-1.732422 2.597656-1.732422-2.597656h-.267578-.267578l-1.732422 2.597656-1.732422-2.597656h-.267578-.267578l-1.732422 2.597656-1.7324219-2.597656h-.2675781-.2675781l-1.7324219 2.597656-1.7324219-2.597656h-.2675781z" fill="#aaa8ac"/></svg>