<svg height="32" viewBox="0 0 32 32" width="32" xmlns="http://www.w3.org/2000/svg"><g fill="#aaa8ac"><path d="m20 3v15h3 3c2.761424 0 5-2.238576 5-5s-2.238576-5-5-5h-3v-5zm3 8h3c1.104569 0 2 .895431 2 2s-.895431 2-2 2h-3z"/><path d="m6 7v4h6c1.104568 0 2 .895432 2 2v2h-7c-3.3137052 0-6 2.686295-6 6s2.6862948 6 6 6h7 4v-10-4c0-3.3137052-2.686295-6-6-6zm14-4v15h3 3c2.761421 0 5-2.238579 5-5s-2.238579-5-5-5h-3v-5zm-13 16h7v4h-7c-1.1045684 0-2-.895432-2-2s.8954316-2 2-2zm16-8h3c1.104568 0 2 .895432 2 2s-.895432 2-2 2h-3z"/></g></svg>