<?xml version="1.0" encoding="UTF-8" standalone="no"?>
<svg
   xmlns:dc="http://purl.org/dc/elements/1.1/"
   xmlns:cc="http://creativecommons.org/ns#"
   xmlns:rdf="http://www.w3.org/1999/02/22-rdf-syntax-ns#"
   xmlns:svg="http://www.w3.org/2000/svg"
   xmlns="http://www.w3.org/2000/svg"
   xmlns:sodipodi="http://sodipodi.sourceforge.net/DTD/sodipodi-0.dtd"
   xmlns:inkscape="http://www.inkscape.org/namespaces/inkscape"
   viewBox="0 0 32 32"
   version="1.1"
   id="svg4"
   sodipodi:docname="bold.svg"
   inkscape:version="0.92.4 (5da689c313, 2019-01-14)"
   width="32"
   height="32">
  <metadata
     id="metadata10">
    <rdf:RDF>
      <cc:Work
         rdf:about="">
        <dc:format>image/svg+xml</dc:format>
        <dc:type
           rdf:resource="http://purl.org/dc/dcmitype/StillImage" />
        <dc:title></dc:title>
      </cc:Work>
    </rdf:RDF>
  </metadata>
  <defs
     id="defs8" />
  <sodipodi:namedview
     pagecolor="#ffffff"
     bordercolor="#666666"
     borderopacity="1"
     objecttolerance="10"
     gridtolerance="10"
     guidetolerance="10"
     inkscape:pageopacity="0"
     inkscape:pageshadow="2"
     inkscape:window-width="1366"
     inkscape:window-height="704"
     id="namedview6"
     showgrid="true"
     inkscape:zoom="9.8333333"
     inkscape:cx="12"
     inkscape:cy="11.186441"
     inkscape:window-x="0"
     inkscape:window-y="0"
     inkscape:window-maximized="1"
     inkscape:current-layer="svg4"
     inkscape:snap-page="true"
     inkscape:snap-grids="false">
    <inkscape:grid
       type="xygrid"
       id="grid836"
       spacingx="0.5"
       spacingy="0.5" />
  </sodipodi:namedview>
  <path
     d="m 14.760157,3.3728808 c -3.30601,0 -4.9593728,1.1681807 -4.9593728,3.5065372 0,1.4030134 0.4605128,2.1052671 1.3788488,2.1052671 h 7.741733 v 3.2262829 c 0,0.46767 -0.516223,0.701755 -1.544759,0.701755 H 13.078633 V 11.089952 H 9.1124806 v 4.461642 H 19.580524 c 2.204006,0 3.306995,-1.114512 3.306995,-3.340626 V 8.9846851 H 22.199216 V 6.879418 C 21.189046,5.9440756 20.041126,5.1259003 18.755456,4.4243934 17.460602,3.7228868 16.128476,3.3728808 14.760157,3.3728808 Z m 0,2.5245273 c 1.708103,0 3.076621,0.4226974 4.105158,1.2645049 h -5.620771 c 0,-0.8418075 0.505442,-1.2645049 1.515613,-1.2645049 z M 9.1124806,17.080659 v 11.54646 h 3.7060774 l 3.194894,-2.946029 3.181442,2.946029 h 3.692625 v -11.54646 h -3.966153 v 7.856076 l -2.907914,-2.692679 -2.934819,2.721826 v -7.885223 z"
     id="path2"
     inkscape:connector-curvature="0"
     style="fill:#555753;stroke-width:1" />
</svg>
