<?xml version="1.0" encoding="UTF-8" standalone="no"?>
<svg
   xmlns:dc="http://purl.org/dc/elements/1.1/"
   xmlns:cc="http://creativecommons.org/ns#"
   xmlns:rdf="http://www.w3.org/1999/02/22-rdf-syntax-ns#"
   xmlns:svg="http://www.w3.org/2000/svg"
   xmlns="http://www.w3.org/2000/svg"
   xmlns:sodipodi="http://sodipodi.sourceforge.net/DTD/sodipodi-0.dtd"
   xmlns:inkscape="http://www.inkscape.org/namespaces/inkscape"
   viewBox="0 0 32 32"
   version="1.1"
   id="svg4"
   sodipodi:docname="bold.svg"
   inkscape:version="0.92.4 (5da689c313, 2019-01-14)"
   width="32"
   height="32">
  <metadata
     id="metadata10">
    <rdf:RDF>
      <cc:Work
         rdf:about="">
        <dc:format>image/svg+xml</dc:format>
        <dc:type
           rdf:resource="http://purl.org/dc/dcmitype/StillImage" />
        <dc:title></dc:title>
      </cc:Work>
    </rdf:RDF>
  </metadata>
  <defs
     id="defs8" />
  <sodipodi:namedview
     pagecolor="#ffffff"
     bordercolor="#666666"
     borderopacity="1"
     objecttolerance="10"
     gridtolerance="10"
     guidetolerance="10"
     inkscape:pageopacity="0"
     inkscape:pageshadow="2"
     inkscape:window-width="1366"
     inkscape:window-height="707"
     id="namedview6"
     showgrid="true"
     inkscape:zoom="19.666667"
     inkscape:cx="5.587587"
     inkscape:cy="23.111809"
     inkscape:window-x="0"
     inkscape:window-y="0"
     inkscape:window-maximized="1"
     inkscape:current-layer="svg4"
     inkscape:snap-page="true"
     inkscape:snap-grids="true">
    <inkscape:grid
       type="xygrid"
       id="grid836"
       spacingx="0.5"
       spacingy="0.5"
       empspacing="2" />
  </sodipodi:namedview>
  <path
     d="m 14.988971,3.0095022 c -3.30601,0 -5.0102207,1.5315593 -5.0102207,3.8699158 0,1.4030134 0.2825467,2.1052671 1.2008827,2.1052671 L 19,9 l 0.01125,3.210968 c 0.0016,0.467667 -0.974651,0.769721 -2.003179,0.773664 L 13,13 V 11 H 9 v 5 l 11.029956,0.001 C 22.233962,16.001205 23,14.437056 23,12.210942 V 8.9846851 H 22 V 7 C 21.5,6 20.28567,4.7015069 19,4 17.705146,3.2984934 16.35729,3.0095022 14.988971,3.0095022 Z m -0.228814,2.8879059 c 1.708103,0 3.076621,0.4226974 4.105158,1.2645049 h -5.620771 c 0,-0.8418075 0.505442,-1.2645049 1.515613,-1.2645049 z M 9,17 v 12 h 4 L 16.013452,26 19,29 h 4 V 17 h -4 v 8 L 16.013452,22 13,25 v -8 z"
     id="path2"
     inkscape:connector-curvature="0"
     style="fill:#555753;stroke-width:1"
     sodipodi:nodetypes="ssscssccccssccccssccsccccccccccccc" />
</svg>
