<?xml version="1.0" encoding="UTF-8" standalone="no"?>
<svg
   xmlns:dc="http://purl.org/dc/elements/1.1/"
   xmlns:cc="http://creativecommons.org/ns#"
   xmlns:rdf="http://www.w3.org/1999/02/22-rdf-syntax-ns#"
   xmlns:svg="http://www.w3.org/2000/svg"
   xmlns="http://www.w3.org/2000/svg"
   xmlns:sodipodi="http://sodipodi.sourceforge.net/DTD/sodipodi-0.dtd"
   xmlns:inkscape="http://www.inkscape.org/namespaces/inkscape"
   viewBox="0 0 32 32"
   version="1.1"
   id="svg4"
   sodipodi:docname="italic.svg"
   inkscape:version="0.92.4 (5da689c313, 2019-01-14)"
   width="32"
   height="32">
  <metadata
     id="metadata10">
    <rdf:RDF>
      <cc:Work
         rdf:about="">
        <dc:format>image/svg+xml</dc:format>
        <dc:type
           rdf:resource="http://purl.org/dc/dcmitype/StillImage" />
        <dc:title></dc:title>
      </cc:Work>
    </rdf:RDF>
  </metadata>
  <defs
     id="defs8" />
  <sodipodi:namedview
     pagecolor="#ffffff"
     bordercolor="#666666"
     borderopacity="1"
     objecttolerance="10"
     gridtolerance="10"
     guidetolerance="10"
     inkscape:pageopacity="0"
     inkscape:pageshadow="2"
     inkscape:window-width="1366"
     inkscape:window-height="707"
     id="namedview6"
     showgrid="true"
     inkscape:zoom="27.812867"
     inkscape:cx="17.189171"
     inkscape:cy="17.620094"
     inkscape:window-x="0"
     inkscape:window-y="0"
     inkscape:window-maximized="1"
     inkscape:current-layer="svg4"
     inkscape:snap-page="true"
     inkscape:snap-grids="true">
    <inkscape:grid
       type="xygrid"
       id="grid836"
       spacingx="0.5"
       spacingy="0.5"
       empspacing="2" />
  </sodipodi:namedview>
  <path
     d="m 22.030966,19.27065 -0.571805,2.997966 C 20.574225,26.751685 17.449718,28.99322 12.085641,28.99322 6.7215635,28.99322 4.2662656,27 5.2231115,22.5 L 6,19 h 4 l -1,4 c -0.503733,2.567701 0.725759,2.993049 3.530327,2.993049 C 15.334895,25.993049 17.496265,25.567701 18,23 l 1,-4 -3.034252,-0.395566 C 8.8998692,17.549594 5.7753621,14.926374 6.5922266,10.734773 6.9734302,8.8194061 7.9740893,7.2163274 9.594204,5.9255368 11.200704,4.6486256 13.705755,4.01017 17.109358,4.01017 c 3.403603,0 5.663594,0.6384556 6.779975,1.9153668 C 25.016964,7.7742179 25.160737,9 25,11 h -4 l 0.214104,-0.68161 c 0.204215,-0.9993222 -0.03404,-1.8251508 -0.714757,-2.4774857 -0.667105,-0.638456 -1.987703,-0.957684 -3.961794,-0.957684 -1.97409,0 -3.424024,0.319228 -4.349803,0.957684 -0.912167,0.6523349 -1.497587,1.6169578 -1.75626,2.8938687 -0.5173473,2.637101 1.579272,4.309577 6.289857,5.01743 L 19,16 c 0.5,-2 2.01834,-1.968384 2.919948,-1.95775 C 23.5,14.259797 24,14.5 24,17 c 0,1.73265 -1,2 -1.969034,2.27065 z"
     id="path2"
     inkscape:connector-curvature="0"
     style="fill:#555753;stroke-width:0.99999994"
     sodipodi:nodetypes="ccsccccscccccscccccsccccccc" />
</svg>
