<?xml version="1.0" encoding="UTF-8" standalone="no"?>
<svg
   xmlns:dc="http://purl.org/dc/elements/1.1/"
   xmlns:cc="http://creativecommons.org/ns#"
   xmlns:rdf="http://www.w3.org/1999/02/22-rdf-syntax-ns#"
   xmlns:svg="http://www.w3.org/2000/svg"
   xmlns="http://www.w3.org/2000/svg"
   xmlns:sodipodi="http://sodipodi.sourceforge.net/DTD/sodipodi-0.dtd"
   xmlns:inkscape="http://www.inkscape.org/namespaces/inkscape"
   viewBox="0 0 32 32"
   version="1.1"
   id="svg4"
   sodipodi:docname="underlinedouble.svg"
   inkscape:version="0.92.4 (5da689c313, 2019-01-14)"
   width="32"
   height="32">
  <metadata
     id="metadata10">
    <rdf:RDF>
      <cc:Work
         rdf:about="">
        <dc:format>image/svg+xml</dc:format>
        <dc:type
           rdf:resource="http://purl.org/dc/dcmitype/StillImage" />
        <dc:title></dc:title>
      </cc:Work>
    </rdf:RDF>
  </metadata>
  <defs
     id="defs8" />
  <sodipodi:namedview
     pagecolor="#ffffff"
     bordercolor="#666666"
     borderopacity="1"
     objecttolerance="10"
     gridtolerance="10"
     guidetolerance="10"
     inkscape:pageopacity="0"
     inkscape:pageshadow="2"
     inkscape:window-width="1366"
     inkscape:window-height="707"
     id="namedview6"
     showgrid="true"
     inkscape:zoom="9.8333333"
     inkscape:cx="13.680737"
     inkscape:cy="9.0352085"
     inkscape:window-x="0"
     inkscape:window-y="0"
     inkscape:window-maximized="1"
     inkscape:current-layer="svg4"
     inkscape:snap-page="true"
     inkscape:snap-grids="true">
    <inkscape:grid
       type="xygrid"
       id="grid836"
       spacingx="0.5"
       spacingy="0.5"
       empspacing="2" />
  </sodipodi:namedview>
  <path
     d="M 8,3.990315 C 6.9906026,4.5817869 6.0128978,5.2617243 5.3413814,6.1865969 5.1183274,6.4800593 5.0070328,6.7743826 5.0070328,7.0678439 c 0,0.3056901 0.1236386,0.6113801 0.3701716,0.9170702 l 0.70452,0.9170702 1.5865565,1.9248927 v 8.559322 C 7.6682809,20.299938 7.7060117,21.282064 8,22 h 8.227603 c -2.488809,0 -3.668281,-0.963075 -3.668281,-2.613801 V 10.826877 L 8.8910412,7.1585959 H 13.782082 V 3.990315 Z M 16.227603,22 H 24 c 0.5,0 0.956318,0 0.966698,-2.613801 L 25,11 20,7 h 5 V 4 L 18.658794,3.99031 c -0.767384,0.6488827 -1.783231,1.3906711 -2.368156,2.1962819 -0.187832,0.244552 -0.281808,0.4955052 -0.281808,0.7522849 0,0.3423729 0.182969,0.6914318 0.546899,1.0460323 l 1.310182,0.9170702 2.029973,1.9248927 v 8.559322 C 19.895884,21.036925 18.716413,22 16.227603,22 Z M 4,23.05448 V 25 H 28 V 23.05448 Z M 4,27 v 2.168281 H 28 V 27 Z"
     id="path2"
     inkscape:connector-curvature="0"
     style="fill:#555753;stroke-width:1"
     sodipodi:nodetypes="ccscccsccscccccccsccccccscccsccccccccccc" />
</svg>
