<?xml version="1.0" encoding="UTF-8" standalone="no"?>
<svg
   xmlns:dc="http://purl.org/dc/elements/1.1/"
   xmlns:cc="http://creativecommons.org/ns#"
   xmlns:rdf="http://www.w3.org/1999/02/22-rdf-syntax-ns#"
   xmlns:svg="http://www.w3.org/2000/svg"
   xmlns="http://www.w3.org/2000/svg"
   xmlns:sodipodi="http://sodipodi.sourceforge.net/DTD/sodipodi-0.dtd"
   xmlns:inkscape="http://www.inkscape.org/namespaces/inkscape"
   viewBox="0 0 32 32"
   version="1.1"
   id="svg4"
   sodipodi:docname="underlinedouble.svg"
   inkscape:version="0.92.4 (5da689c313, 2019-01-14)"
   width="32"
   height="32">
  <metadata
     id="metadata10">
    <rdf:RDF>
      <cc:Work
         rdf:about="">
        <dc:format>image/svg+xml</dc:format>
        <dc:type
           rdf:resource="http://purl.org/dc/dcmitype/StillImage" />
        <dc:title></dc:title>
      </cc:Work>
    </rdf:RDF>
  </metadata>
  <defs
     id="defs8" />
  <sodipodi:namedview
     pagecolor="#ffffff"
     bordercolor="#666666"
     borderopacity="1"
     objecttolerance="10"
     gridtolerance="10"
     guidetolerance="10"
     inkscape:pageopacity="0"
     inkscape:pageshadow="2"
     inkscape:window-width="1366"
     inkscape:window-height="704"
     id="namedview6"
     showgrid="true"
     inkscape:zoom="9.8333333"
     inkscape:cx="12"
     inkscape:cy="11.186441"
     inkscape:window-x="0"
     inkscape:window-y="0"
     inkscape:window-maximized="1"
     inkscape:current-layer="svg4"
     inkscape:snap-page="true"
     inkscape:snap-grids="false">
    <inkscape:grid
       type="xygrid"
       id="grid836"
       spacingx="0.5"
       spacingy="0.5" />
  </sodipodi:namedview>
  <path
     d="M 7.3021624,3.161017 5.9814856,4.9593343 5.3295061,5.8572989 c -0.223054,0.2934624 -0.3343486,0.5877857 -0.3343486,0.881247 0,0.3056901 0.1236386,0.6113801 0.3701716,0.9170702 l 0.70452,0.9170702 1.370829,1.9248927 v 8.559322 c 0,0.913739 0.1502176,1.727584 0.4442059,2.44552 H 16 c -2.488809,0 -3.668281,-0.794794 -3.668281,-2.44552 V 10.497579 L 8.6634384,6.8292979 H 13.554479 V 3.161017 Z M 16,21.502421 h 8.115116 c 0.293989,-0.717936 0.444206,-1.531781 0.444206,-2.44552 V 10.497579 L 19.668281,6.8292979 h 4.891041 V 3.161017 h -6.128131 l -1.320676,1.7983173 -0.65198,0.8979646 c -0.187832,0.244552 -0.281808,0.4955052 -0.281808,0.7522849 0,0.3423729 0.182969,0.6914318 0.546899,1.0460323 l 0.914682,0.9170702 2.029973,1.9248927 v 8.559322 c 0,1.650726 -1.179471,2.44552 -3.668281,2.44552 z M 3.7723972,22.725182 v 2.44552 H 28.227603 v -2.44552 z m 0,3.668281 v 2.44552 H 28.227603 v -2.44552 z"
     id="path2"
     inkscape:connector-curvature="0"
     style="fill:#555753;stroke-width:1" />
</svg>
