<?xml version="1.0" encoding="UTF-8" standalone="no"?>
<svg
   xmlns:dc="http://purl.org/dc/elements/1.1/"
   xmlns:cc="http://creativecommons.org/ns#"
   xmlns:rdf="http://www.w3.org/1999/02/22-rdf-syntax-ns#"
   xmlns:svg="http://www.w3.org/2000/svg"
   xmlns="http://www.w3.org/2000/svg"
   xmlns:sodipodi="http://sodipodi.sourceforge.net/DTD/sodipodi-0.dtd"
   xmlns:inkscape="http://www.inkscape.org/namespaces/inkscape"
   viewBox="0 0 32 32"
   version="1.1"
   id="svg4"
   sodipodi:docname="underline.svg"
   inkscape:version="0.92.4 (5da689c313, 2019-01-14)"
   width="32"
   height="32">
  <metadata
     id="metadata10">
    <rdf:RDF>
      <cc:Work
         rdf:about="">
        <dc:format>image/svg+xml</dc:format>
        <dc:type
           rdf:resource="http://purl.org/dc/dcmitype/StillImage" />
        <dc:title></dc:title>
      </cc:Work>
    </rdf:RDF>
  </metadata>
  <defs
     id="defs8" />
  <sodipodi:namedview
     pagecolor="#ffffff"
     bordercolor="#666666"
     borderopacity="1"
     objecttolerance="10"
     gridtolerance="10"
     guidetolerance="10"
     inkscape:pageopacity="0"
     inkscape:pageshadow="2"
     inkscape:window-width="1366"
     inkscape:window-height="707"
     id="namedview6"
     showgrid="true"
     inkscape:zoom="13.906433"
     inkscape:cx="13.059943"
     inkscape:cy="17.54709"
     inkscape:window-x="0"
     inkscape:window-y="0"
     inkscape:window-maximized="1"
     inkscape:current-layer="svg4"
     inkscape:snap-page="true"
     inkscape:snap-grids="true">
    <inkscape:grid
       type="xygrid"
       id="grid836"
       spacingx="0.5"
       spacingy="0.5"
       empspacing="2" />
  </sodipodi:namedview>
  <path
     d="M 8,3 C 7.5174371,3.9483924 7,4.5 6.3304423,5.6896703 6.1100385,5.9796461 6.0000662,6.2704713 6.0000662,6.5604471 c 0,0.3020581 0.1221696,0.6041162 0.3657736,0.9061743 L 7.0619892,8.3727957 8,10 8.00975,18.70702 c 0.00437,3.90259 2.78465,6.220935 8.584745,6.220935 5.800097,0 8.383247,-2.343838 8.40678,-6.246359 L 25,10 21,7 h 5 V 3 h -7.003199 l -1.304985,1.776951 -0.644233,0.8872956 c -0.185601,0.2416465 -0.27846,0.4896168 -0.27846,0.7433468 0,0.3383052 0.180795,0.6832169 0.540401,1.0336042 l 0.903815,0.9061744 2.005854,1.902022 v 8.457626 c 0,1.631114 -1.165456,2.416465 -3.624697,2.416465 -2.45924,0 -3.624697,-0.785351 -3.624697,-2.416465 V 10.249394 L 10,7 h 4 V 3 Z M 5,25.956415 V 28 h 24 v -2.043585 z"
     id="path2"
     inkscape:connector-curvature="0"
     style="fill:#555753;stroke-width:0.99999994"
     sodipodi:nodetypes="ccscccssscccccccscccssscccccccccc" />
</svg>
