<?xml version="1.0" encoding="UTF-8" standalone="no"?>
<svg
   xmlns:dc="http://purl.org/dc/elements/1.1/"
   xmlns:cc="http://creativecommons.org/ns#"
   xmlns:rdf="http://www.w3.org/1999/02/22-rdf-syntax-ns#"
   xmlns:svg="http://www.w3.org/2000/svg"
   xmlns="http://www.w3.org/2000/svg"
   xmlns:sodipodi="http://sodipodi.sourceforge.net/DTD/sodipodi-0.dtd"
   xmlns:inkscape="http://www.inkscape.org/namespaces/inkscape"
   viewBox="0 0 32 32"
   version="1.1"
   id="svg4"
   sodipodi:docname="underline.svg"
   inkscape:version="0.92.4 (5da689c313, 2019-01-14)"
   width="32"
   height="32">
  <metadata
     id="metadata10">
    <rdf:RDF>
      <cc:Work
         rdf:about="">
        <dc:format>image/svg+xml</dc:format>
        <dc:type
           rdf:resource="http://purl.org/dc/dcmitype/StillImage" />
        <dc:title></dc:title>
      </cc:Work>
    </rdf:RDF>
  </metadata>
  <defs
     id="defs8" />
  <sodipodi:namedview
     pagecolor="#ffffff"
     bordercolor="#666666"
     borderopacity="1"
     objecttolerance="10"
     gridtolerance="10"
     guidetolerance="10"
     inkscape:pageopacity="0"
     inkscape:pageshadow="2"
     inkscape:window-width="1366"
     inkscape:window-height="704"
     id="namedview6"
     showgrid="true"
     inkscape:zoom="9.8333333"
     inkscape:cx="12"
     inkscape:cy="11.186441"
     inkscape:window-x="0"
     inkscape:window-y="0"
     inkscape:window-maximized="1"
     inkscape:current-layer="svg4"
     inkscape:snap-page="true"
     inkscape:snap-grids="false">
    <inkscape:grid
       type="xygrid"
       id="grid836"
       spacingx="0.5"
       spacingy="0.5" />
  </sodipodi:namedview>
  <path
     d="M 7.405503,3.3135597 6.1005176,5.0905107 5.4562843,5.9778063 c -0.2204038,0.2899758 -0.3303761,0.580801 -0.3303761,0.8707768 0,0.3020581 0.1221696,0.6041162 0.3657736,0.9061743 L 6.1878312,8.6609317 7.542373,10.562954 v 8.457626 c 0,3.902592 2.657532,6.041162 8.457627,6.041162 5.800097,0 8.457627,-2.13857 8.457627,-6.041162 v -8.457626 l -4.83293,-3.6246971 h 4.83293 V 3.3135597 h -6.055322 l -1.304985,1.776951 -0.644233,0.8872956 c -0.185601,0.2416465 -0.27846,0.4896168 -0.27846,0.7433468 0,0.3383052 0.180795,0.6832169 0.540401,1.0336042 l 0.903815,0.9061744 2.005854,1.9020223 v 8.457626 c 0,1.631114 -1.165456,2.416465 -3.624697,2.416465 -2.45924,0 -3.624697,-0.785351 -3.624697,-2.416465 V 10.562954 L 8.7506054,6.9382569 H 13.583535 V 3.3135597 Z M 3.9176758,26.269975 V 28.68644 H 28.082324 v -2.416465 z"
     id="path2"
     inkscape:connector-curvature="0"
     style="fill:#555753;stroke-width:0.99999994" />
</svg>
