<?xml version="1.0" encoding="UTF-8" standalone="no"?>
<svg
   xmlns:dc="http://purl.org/dc/elements/1.1/"
   xmlns:cc="http://creativecommons.org/ns#"
   xmlns:rdf="http://www.w3.org/1999/02/22-rdf-syntax-ns#"
   xmlns:svg="http://www.w3.org/2000/svg"
   xmlns="http://www.w3.org/2000/svg"
   xmlns:sodipodi="http://sodipodi.sourceforge.net/DTD/sodipodi-0.dtd"
   xmlns:inkscape="http://www.inkscape.org/namespaces/inkscape"
   viewBox="0 0 32 32"
   version="1.1"
   id="svg20"
   sodipodi:docname="datasubtotals.svg"
   inkscape:version="0.92.4 (unknown)">
  <metadata
     id="metadata26">
    <rdf:RDF>
      <cc:Work
         rdf:about="">
        <dc:format>image/svg+xml</dc:format>
        <dc:type
           rdf:resource="http://purl.org/dc/dcmitype/StillImage" />
        <dc:title></dc:title>
      </cc:Work>
    </rdf:RDF>
  </metadata>
  <defs
     id="defs24" />
  <sodipodi:namedview
     pagecolor="#ffffff"
     bordercolor="#666666"
     borderopacity="1"
     objecttolerance="10"
     gridtolerance="10"
     guidetolerance="10"
     inkscape:pageopacity="0"
     inkscape:pageshadow="2"
     inkscape:window-width="1360"
     inkscape:window-height="714"
     id="namedview22"
     showgrid="true"
     inkscape:zoom="20.85965"
     inkscape:cx="14.918362"
     inkscape:cy="17.576208"
     inkscape:window-x="0"
     inkscape:window-y="28"
     inkscape:window-maximized="1"
     inkscape:current-layer="g18">
    <inkscape:grid
       type="xygrid"
       id="grid833" />
  </sodipodi:namedview>
  <g
     id="g18"
     transform="matrix(-1,0,0,1,32,0)"
     style="fill:#555753">
    <path
       d="M 17,3 V 30 H 29 V 3 Z m 2,2 h 3 v 3 h -3 z m 5,0 h 3 v 3 h -3 z m -5,5 h 3 v 3 h -3 z m 5,0 h 3 v 3 h -3 z m -5,5 h 3 v 3 h -3 z m 5,0 h 3 v 3 h -3 z m -5,5 h 3 v 3 h -3 z m 5,0 h 3 v 3 h -3 z m -5,5 h 3 v 3 h -3 z m 5,0 h 3 v 3 h -3 z"
       id="path2"
       inkscape:connector-curvature="0" />
    <path
       inkscape:connector-curvature="0"
       style="fill:#ff00ff"
       d="M 21,5 23.15625,7.7109375 26.410156,6.75 24.449219,9.6210938 26.367187,12.417969 23.03125,11.439453 21,14 21.03125,10.677734 17.666016,9.5175781 21,8.2519531 Z M 18.253906,11.5 19.5,12.5 5,30 3,28 Z"
       id="path4"
       sodipodi:nodetypes="cccccccccccccccc" />
  </g>
</svg>
