<?xml version="1.0" encoding="UTF-8" standalone="no"?>
<svg
   xmlns:dc="http://purl.org/dc/elements/1.1/"
   xmlns:cc="http://creativecommons.org/ns#"
   xmlns:rdf="http://www.w3.org/1999/02/22-rdf-syntax-ns#"
   xmlns:svg="http://www.w3.org/2000/svg"
   xmlns="http://www.w3.org/2000/svg"
   xmlns:sodipodi="http://sodipodi.sourceforge.net/DTD/sodipodi-0.dtd"
   xmlns:inkscape="http://www.inkscape.org/namespaces/inkscape"
   height="32"
   viewBox="0 0 32 32"
   width="32"
   version="1.1"
   id="svg4"
   sodipodi:docname="defaultcharstyle.svg"
   inkscape:version="0.92.4 (unknown)">
  <metadata
     id="metadata10">
    <rdf:RDF>
      <cc:Work
         rdf:about="">
        <dc:format>image/svg+xml</dc:format>
        <dc:type
           rdf:resource="http://purl.org/dc/dcmitype/StillImage" />
        <dc:title></dc:title>
      </cc:Work>
    </rdf:RDF>
  </metadata>
  <defs
     id="defs8" />
  <sodipodi:namedview
     pagecolor="#ffffff"
     bordercolor="#666666"
     borderopacity="1"
     objecttolerance="10"
     gridtolerance="10"
     guidetolerance="10"
     inkscape:pageopacity="0"
     inkscape:pageshadow="2"
     inkscape:window-width="1360"
     inkscape:window-height="714"
     id="namedview6"
     showgrid="true"
     inkscape:zoom="11.313709"
     inkscape:cx="19.465527"
     inkscape:cy="8.4262424"
     inkscape:window-x="0"
     inkscape:window-y="28"
     inkscape:window-maximized="1"
     inkscape:current-layer="svg4">
    <inkscape:grid
       type="xygrid"
       id="grid12" />
  </sodipodi:namedview>
  <path
     style="fill:#555753;fill-opacity:1"
     d="M 10 6 L 10 9 L 21 9 L 21.5 9 C 22.880712 9 24 10.119288 24 11.5 L 24 12 L 24 12.5 L 24 14 L 24 15 L 10.5 15 A 5.5 5.5 0 0 0 5.0292969 20 L 5 20 C 5 20.06727 5.0075687 20.132483 5.0097656 20.199219 A 5.5 5.5 0 0 0 5.0097656 20.205078 C 5.0100339 20.212996 5.0114199 20.220606 5.0117188 20.228516 C 5.0187168 20.413811 5.0332071 20.59672 5.0566406 20.777344 C 5.0577495 20.785901 5.059402 20.794188 5.0605469 20.802734 C 5.3663744 23.083157 6.9482165 24.954433 9.0683594 25.675781 C 9.2456472 25.736101 9.4270191 25.788279 9.6113281 25.832031 C 9.7881003 25.873995 9.9679476 25.907658 10.150391 25.933594 C 10.162795 25.935357 10.175071 25.937766 10.1875 25.939453 C 10.364889 25.963535 10.544599 25.978104 10.726562 25.986328 C 10.737005 25.9868 10.747356 25.987863 10.757812 25.988281 C 10.838794 25.991522 10.918223 26 11 26 L 23 26 L 27 26 L 27 16 L 27 12 C 27 8.6862915 24.313708 6 21 6 L 10 6 z M 10.5 18 L 11 18 L 15.398438 18 L 23 18 L 24 18 L 24 20 L 24 23 L 15.398438 23 L 10.5 23 A 2.5 2.5 0 0 1 8 20.5 A 2.5 2.5 0 0 1 8.0507812 20 A 2.5 2.5 0 0 1 10.5 18 z "
     id="path2" />
</svg>
