<?xml version="1.0" encoding="UTF-8" standalone="no"?>
<svg
   xmlns:dc="http://purl.org/dc/elements/1.1/"
   xmlns:cc="http://creativecommons.org/ns#"
   xmlns:rdf="http://www.w3.org/1999/02/22-rdf-syntax-ns#"
   xmlns:svg="http://www.w3.org/2000/svg"
   xmlns="http://www.w3.org/2000/svg"
   xmlns:sodipodi="http://sodipodi.sourceforge.net/DTD/sodipodi-0.dtd"
   xmlns:inkscape="http://www.inkscape.org/namespaces/inkscape"
   viewBox="0 0 24 24"
   version="1.1"
   id="svg4"
   sodipodi:docname="lc_editdoc.svg"
   inkscape:version="0.92.4 (unknown)">
  <metadata
     id="metadata10">
    <rdf:RDF>
      <cc:Work
         rdf:about="">
        <dc:format>image/svg+xml</dc:format>
        <dc:type
           rdf:resource="http://purl.org/dc/dcmitype/StillImage" />
        <dc:title></dc:title>
      </cc:Work>
    </rdf:RDF>
  </metadata>
  <defs
     id="defs8" />
  <sodipodi:namedview
     pagecolor="#ffffff"
     bordercolor="#666666"
     borderopacity="1"
     objecttolerance="10"
     gridtolerance="10"
     guidetolerance="10"
     inkscape:pageopacity="0"
     inkscape:pageshadow="2"
     inkscape:window-width="1360"
     inkscape:window-height="714"
     id="namedview6"
     showgrid="true"
     inkscape:snap-global="false"
     inkscape:zoom="55.625733"
     inkscape:cx="15.816965"
     inkscape:cy="15.555449"
     inkscape:window-x="0"
     inkscape:window-y="28"
     inkscape:window-maximized="1"
     inkscape:current-layer="svg4">
    <inkscape:grid
       type="xygrid"
       id="grid817" />
  </sodipodi:namedview>
  <path
     sodipodi:type="inkscape:offset"
     inkscape:radius="0.9996379"
     inkscape:original="M 20.257812 11 L 18.884766 12.388672 C 19.801909 13.303618 20.711764 14.217745 21.628906 15.115234 L 23 13.742188 C 23 13.570759 22.99989 13.400558 22.957031 13.207031 C 22.914171 13.057701 22.840151 12.918611 22.785156 12.777344 C 22.451936 11.921362 21.731596 11.257366 20.814453 11.085938 C 20.629122 11.000222 20.429241 11 20.257812 11 z M 17.513672 13.742188 L 11 20.257812 L 11 23 L 13.742188 23 L 20.257812 16.486328 L 17.513672 13.742188 z "
     style="fill:#ff00ff"
     id="path819"
     d="m 20.257812,10 a 0.99973787,0.99973787 0 0 0 -0.710937,0.296875 l -1.373047,1.388672 a 0.99973787,0.99973787 0 0 0 -0.160156,1.191406 0.99973787,0.99973787 0 0 0 -1.207031,0.158203 l -6.513672,6.515625 A 0.99973787,0.99973787 0 0 0 10,20.257812 V 23 a 0.99973787,0.99973787 0 0 0 1,1 h 2.742188 a 0.99973787,0.99973787 0 0 0 0.707031,-0.292969 l 6.515625,-6.513672 a 0.99973787,0.99973787 0 0 0 0.148437,-1.222656 0.99973787,0.99973787 0 0 0 1.222657,-0.148437 l 1.371093,-1.373047 A 0.99973787,0.99973787 0 0 0 24,13.742188 c 0,-0.171857 0.0031,-0.437975 -0.06641,-0.751954 a 0.99973787,0.99973787 0 0 0 -0.01563,-0.05859 C 23.836322,12.647172 23.742258,12.479465 23.716797,12.414062 23.283918,11.302074 22.325427,10.426791 21.099609,10.154297 20.743131,10.030387 20.406362,10 20.257812,10 Z" />
  <path
     d="m 20.257812,11 -1.373046,1.388672 c 0.917143,0.914946 1.826998,1.829073 2.74414,2.726562 L 23,13.742188 c 0,-0.171429 -1.11e-4,-0.34163 -0.04297,-0.535157 -0.04286,-0.14933 -0.11688,-0.28842 -0.171875,-0.429687 -0.33322,-0.855982 -1.05356,-1.519978 -1.970703,-1.691406 C 20.629121,11.000223 20.429241,11 20.257812,11 Z M 17.513672,13.742188 11,20.257812 V 23 h 2.742188 l 6.515624,-6.513672 z"
     id="path2"
     inkscape:connector-curvature="0"
     style="fill:#555753"
     sodipodi:nodetypes="cccccccccccccc" />
</svg>
