<?xml version="1.0" encoding="UTF-8" standalone="no"?>
<svg
   xmlns:dc="http://purl.org/dc/elements/1.1/"
   xmlns:cc="http://creativecommons.org/ns#"
   xmlns:rdf="http://www.w3.org/1999/02/22-rdf-syntax-ns#"
   xmlns:svg="http://www.w3.org/2000/svg"
   xmlns="http://www.w3.org/2000/svg"
   xmlns:sodipodi="http://sodipodi.sourceforge.net/DTD/sodipodi-0.dtd"
   xmlns:inkscape="http://www.inkscape.org/namespaces/inkscape"
   viewBox="0 0 24 24"
   version="1.1"
   id="svg4"
   sodipodi:docname="lc_hide.svg"
   inkscape:version="0.92.4 (unknown)">
  <metadata
     id="metadata10">
    <rdf:RDF>
      <cc:Work
         rdf:about="">
        <dc:format>image/svg+xml</dc:format>
        <dc:type
           rdf:resource="http://purl.org/dc/dcmitype/StillImage" />
        <dc:title></dc:title>
      </cc:Work>
    </rdf:RDF>
  </metadata>
  <defs
     id="defs8" />
  <sodipodi:namedview
     pagecolor="#ffffff"
     bordercolor="#666666"
     borderopacity="1"
     objecttolerance="10"
     gridtolerance="10"
     guidetolerance="10"
     inkscape:pageopacity="0"
     inkscape:pageshadow="2"
     inkscape:window-width="1360"
     inkscape:window-height="714"
     id="namedview6"
     showgrid="true"
     inkscape:zoom="19.666667"
     inkscape:cx="8.0755924"
     inkscape:cy="12.718684"
     inkscape:window-x="0"
     inkscape:window-y="28"
     inkscape:window-maximized="1"
     inkscape:current-layer="svg4">
    <inkscape:grid
       type="xygrid"
       id="grid817" />
  </sodipodi:namedview>
  <path
     style="fill:#ff00ff"
     d="m 21,7 c -1.019351,0 -1.925785,0.4357084 -2.625,1.0507812 a 1.0001,1.0001 0 0 0 -0.02344,0.021484 l -6.603515,6.1992184 a 1.0001,1.0001 0 0 0 -0.03125,0.03125 l -0.0098,-0.0098 A 1.0001,1.0001 0 0 0 11,14 h -1 a 1.0001,1.0001 0 0 0 -1,1 v 1 a 1.0001,1.0001 0 0 0 0.2929688,0.707031 l 2.2617192,2.261719 c -0.110559,0.100087 -0.137125,0.125959 -0.257813,0.236328 C 10.83652,19.62607 10.312787,20.121234 9.875,20.634766 9.4372128,21.148297 8.9680642,21.59324 8.984375,22.5 c 0.00816,0.45338 0.3439664,1.005875 0.7519531,1.232422 C 10.144315,23.958969 10.543655,24 11,24 a 1.0001,1.0001 0 0 0 0.707031,-0.292969 L 14,21.414062 16.292969,23.707031 A 1.0001,1.0001 0 0 0 17,24 h 1 a 1.0001,1.0001 0 0 0 1,-1 V 22 A 1.0001,1.0001 0 0 0 18.707031,21.292969 L 16.414062,19 18.707031,16.707031 A 1.0001,1.0001 0 0 0 19,16 v -1 a 1.0001,1.0001 0 0 0 -1,-1 h -0.292969 l 3.228516,-2.945312 a 1.0001,1.0001 0 0 0 0.04883,-0.04688 c 0.08852,-0.09269 0.06523,-0.05236 -0.01172,-0.02539 C 20.895709,11.009394 20.864128,11 21,11 c 0,1.092725 0.907274,2 2,2 1.092726,0 2,-0.907275 2,-2 V 10 C 25,9.2238504 24.947614,8.4466741 24.378906,7.8085938 23.810198,7.1705134 22.960665,7 22,7 Z m -7.585938,9 h 1.171876 L 14,16.585938 Z"
     id="path819" />
  <path
     d="M 21,8 C 20.251237,8 19.6,8.3039097 19.035156,8.8007812 L 12.431641,15 h 2.695312 l 5.134766,-4.683594 C 20.563865,10 20.728255,10 21,10 h 1 v 1 c 0,0.552284 0.447715,1 1,1 0.552285,0 1,-0.447716 1,-1 V 10 C 24,8.597458 23.684939,8 22,8 Z m -11,7 v 1 l 3,3 c -0.729073,0.754158 -4.9061724,4 -2,4 l 3,-3 3,3 h 1 v -1 l -3,-3 3,-3 v -1 h -1 l -3,3 -3,-3 z"
     id="path2"
     inkscape:connector-curvature="0"
     style="fill:#555753"
     sodipodi:nodetypes="sccccscssssssccccccccccccccc" />
</svg>
