<?xml version="1.0" encoding="UTF-8" standalone="no"?>
<svg
   xmlns:dc="http://purl.org/dc/elements/1.1/"
   xmlns:cc="http://creativecommons.org/ns#"
   xmlns:rdf="http://www.w3.org/1999/02/22-rdf-syntax-ns#"
   xmlns:svg="http://www.w3.org/2000/svg"
   xmlns="http://www.w3.org/2000/svg"
   xmlns:sodipodi="http://sodipodi.sourceforge.net/DTD/sodipodi-0.dtd"
   xmlns:inkscape="http://www.inkscape.org/namespaces/inkscape"
   viewBox="0 0 32 32"
   version="1.1"
   id="svg4"
   sodipodi:docname="open.svg"
   inkscape:version="0.92.4 (unknown)">
  <metadata
     id="metadata10">
    <rdf:RDF>
      <cc:Work
         rdf:about="">
        <dc:format>image/svg+xml</dc:format>
        <dc:type
           rdf:resource="http://purl.org/dc/dcmitype/StillImage" />
        <dc:title></dc:title>
      </cc:Work>
    </rdf:RDF>
  </metadata>
  <defs
     id="defs8" />
  <sodipodi:namedview
     pagecolor="#ffffff"
     bordercolor="#666666"
     borderopacity="1"
     objecttolerance="10"
     gridtolerance="10"
     guidetolerance="10"
     inkscape:pageopacity="0"
     inkscape:pageshadow="2"
     inkscape:window-width="1360"
     inkscape:window-height="714"
     id="namedview6"
     showgrid="true"
     inkscape:zoom="10.429825"
     inkscape:cx="10.033368"
     inkscape:cy="-0.60742009"
     inkscape:window-x="0"
     inkscape:window-y="28"
     inkscape:window-maximized="1"
     inkscape:current-layer="svg4">
    <inkscape:grid
       type="xygrid"
       id="grid823" />
  </sodipodi:namedview>
  <path
     d="m10.625 1c-.9168.175-1.64144 1.0668-1.625 2v14h2v-14h10v6h6v8h2v-8.875c.012-.5282-.1952-1.0579-.5625-1.4375l-5.125-5.125c-.37956-.3674-.90938-.57474-1.4375-.5625h-10.875c-.0624-.002-.1251-.002-.1875 0-.0624-.002-.1251-.002-.1875 0zm-3.625 8c-1.70901.0527-.1948169.0018375-1.9042969.0234375-1.60378-.00005-4.0957031 1.3734325-4.0957031 2.9765625v16c0 1.60314 1.3962246 3 3 3h21.134766 1.453125c1.60877 0 2.516023-1.341284 2.902343-2.902344l1.509766-6.097656c.400827-1.547789-.949824-3-2.558594-3h-9.441406-10l-2.6914062 8.189453c-.1372101.52701-.7383938.810547-1.3085938.810547-.65509 0-1-.565258-1-1.242188 0 0-.004-5.757812 0-8.757812 0-1.60313 1.2048037-2.964844 2.8085938-2.964844l.1914062-.035156z"
     fill="#555753"
     id="path2"
     style="fill:#555753;fill-opacity:1" />
  <path
     sodipodi:type="inkscape:offset"
     inkscape:radius="1"
     inkscape:original="M 31 15 L 5 30 L 5 31 L 31 31 L 31 15 z M 28 20.5 L 28 28 L 15 28 L 28 20.5 z "
     style="fill:#555753;fill-opacity:1"
     id="path825"
     d="M 30.970703,14 A 1.0001,1.0001 0 0 0 30.5,14.134766 l -26,15 A 1.0001,1.0001 0 0 0 4,30 v 1 a 1.0001,1.0001 0 0 0 1,1 h 26 a 1.0001,1.0001 0 0 0 1,-1 V 15 A 1.0001,1.0001 0 0 0 30.970703,14 Z M 27,22.230469 V 27 h -8.267578 z" />
  <path
     inkscape:connector-curvature="0"
     style="fill:#555753;fill-opacity:1"
     d="M 31,15 V 31 H 5 V 30 Z M 28,20.5 15,28 h 13 z"
     id="path2-3"
     sodipodi:nodetypes="ccccccccc" />
</svg>
