<?xml version="1.0" encoding="UTF-8" standalone="no"?>
<svg
   xmlns:dc="http://purl.org/dc/elements/1.1/"
   xmlns:cc="http://creativecommons.org/ns#"
   xmlns:rdf="http://www.w3.org/1999/02/22-rdf-syntax-ns#"
   xmlns:svg="http://www.w3.org/2000/svg"
   xmlns="http://www.w3.org/2000/svg"
   xmlns:sodipodi="http://sodipodi.sourceforge.net/DTD/sodipodi-0.dtd"
   xmlns:inkscape="http://www.inkscape.org/namespaces/inkscape"
   viewBox="0 0 16 16"
   version="1.1"
   id="svg4"
   sodipodi:docname="sc_display1.svg"
   inkscape:version="0.92.4 (unknown)">
  <metadata
     id="metadata10">
    <rdf:RDF>
      <cc:Work
         rdf:about="">
        <dc:format>image/svg+xml</dc:format>
        <dc:type
           rdf:resource="http://purl.org/dc/dcmitype/StillImage" />
        <dc:title></dc:title>
      </cc:Work>
    </rdf:RDF>
  </metadata>
  <defs
     id="defs8" />
  <sodipodi:namedview
     pagecolor="#ffffff"
     bordercolor="#666666"
     borderopacity="1"
     objecttolerance="10"
     gridtolerance="10"
     guidetolerance="10"
     inkscape:pageopacity="0"
     inkscape:pageshadow="2"
     inkscape:window-width="1360"
     inkscape:window-height="714"
     id="namedview6"
     showgrid="true"
     inkscape:zoom="20.85965"
     inkscape:cx="5.6257332"
     inkscape:cy="11.363478"
     inkscape:window-x="0"
     inkscape:window-y="28"
     inkscape:window-maximized="1"
     inkscape:current-layer="svg4">
    <inkscape:grid
       type="xygrid"
       id="grid825" />
  </sodipodi:namedview>
  <path
     sodipodi:type="inkscape:offset"
     inkscape:radius="1"
     inkscape:original="M 8.5 7 C 8.1256185 7 7.8 7.1519549 7.5175781 7.4003906 C 5.4854859 9.3351884 2.6704599 10.889209 2 13.5 C 2 14.880712 3.1192881 16 4.5 16 C 5.8807119 16 7 14.880712 7 13.5 C 7 12.959074 6.8245553 12.43274 6.5 12 L 8.5019531 12 C 8.1767006 12.432496 8.0005633 12.958852 8 13.5 C 8 14.880712 9.1192881 16 10.5 16 C 11.880712 16 13 14.880712 13 13.5 C 13.0017 12.310655 12.165317 11.284743 11 11.046875 L 14.130859 8.1582031 C 14.281933 8 14.364128 8 14.5 8 L 15 8 L 15 8.5 C 15 8.7761424 15.223858 9 15.5 9 C 15.776142 9 16 8.7761424 16 8.5 L 16 8 C 16 7.2987292 15.84247 7 15 7 L 14.5 7 C 14.125619 7 13.785393 7.1519549 13.5 7.4003906 L 9.5332031 11 L 5.015625 11 L 8.1308594 8.1582031 C 8.2819325 8 8.3641276 8 8.5 8 L 9 8 L 9 8.5 C 9 8.7761424 9.2238576 9 9.5 9 C 9.7761424 9 10 8.7761424 10 8.5 L 10 8 C 10 7.2987292 9.8424697 7 9 7 L 8.5 7 z M 4.5 12 C 5.3284271 12 6 12.671573 6 13.5 C 6 14.328427 5.3284271 15 4.5 15 C 3.6715729 15 3 14.328427 3 13.5 C 3 12.671573 3.6715729 12 4.5 12 z M 10.5 12 C 11.328427 12 12 12.671573 12 13.5 C 12 14.328427 11.328427 15 10.5 15 C 9.6715729 15 9 14.328427 9 13.5 C 9 12.671573 9.6715729 12 10.5 12 z "
     style="fill:#ff00ff;fill-opacity:1"
     id="path823"
     d="M 8.5,6 C 7.8550302,6 7.2742152,6.2837536 6.8574219,6.6503906 A 1.0001,1.0001 0 0 0 6.828125,6.6757812 C 4.9363864,8.4769455 1.845663,10.080605 1.03125,13.251953 A 1.0001,1.0001 0 0 0 1,13.5 c 0,1.921152 1.5788481,3.5 3.5,3.5 1.2985211,0 2.3960739,-0.751735 3,-1.8125 0.6039261,1.060765 1.7014789,1.8125 3,1.8125 1.920489,0 3.49891,-1.577795 3.5,-3.498047 0.0015,-1.077573 -0.59734,-1.92991 -1.390625,-2.580078 L 14.34375,9.3203125 C 14.617629,9.7060233 15.000328,10 15.5,10 16.316583,10 17,9.3165834 17,8.5 V 8 C 17,7.5744863 16.986517,7.0480051 16.5625,6.5722656 16.138483,6.0965262 15.539431,6 15,6 h -0.5 c -0.64497,0 -1.226305,0.2722155 -1.65625,0.6464844 a 1.0001,1.0001 0 0 0 -0.01563,0.013672 L 11,8.3183594 V 8 C 11,7.5744861 10.986517,7.048005 10.5625,6.5722656 10.138483,6.0965263 9.5394307,6 9,6 Z M 8.34375,9.3183594 C 8.5663227,9.6326039 8.8698748,9.8240197 9.2578125,9.8984375 L 9.1464844,10 H 7.5957031 Z M 4.5,13 C 4.7879869,13 5,13.212013 5,13.5 5,13.787987 4.7879869,14 4.5,14 4.2120131,14 4,13.787987 4,13.5 4,13.212013 4.2120131,13 4.5,13 Z m 6,0 C 10.787987,13 11,13.212013 11,13.5 11,13.787987 10.787987,14 10.5,14 10.212013,14 10,13.787987 10,13.5 10,13.212013 10.212013,13 10.5,13 Z" />
  <path
     inkscape:connector-curvature="0"
     style="fill:#555753;fill-opacity:1"
     d="M 8.5,7 C 8.1256185,7 7.8,7.1519549 7.5175781,7.4003906 5.4854859,9.3351884 2.6704599,10.889209 2,13.5 2,14.880712 3.1192881,16 4.5,16 5.8807119,16 7,14.880712 7,13.5 7,12.959074 6.8245553,12.43274 6.5,12 H 8.5019531 C 8.1767006,12.432496 8.0005633,12.958852 8,13.5 8,14.880712 9.1192881,16 10.5,16 11.880712,16 13,14.880712 13,13.5 13.0017,12.310655 12.165317,11.284743 11,11.046875 L 14.130859,8.1582031 C 14.281933,8 14.364128,8 14.5,8 H 15 V 8.5 C 15,8.7761424 15.223858,9 15.5,9 15.776142,9 16,8.7761424 16,8.5 V 8 C 16,7.2987292 15.84247,7 15,7 h -0.5 c -0.374381,0 -0.714607,0.1519549 -1,0.4003906 L 9.5332031,11 H 5.015625 L 8.1308594,8.1582031 C 8.2819325,8 8.3641276,8 8.5,8 H 9 V 8.5 C 9,8.7761424 9.2238576,9 9.5,9 9.7761424,9 10,8.7761424 10,8.5 V 8 C 10,7.2987292 9.8424697,7 9,7 Z m -4,5 C 5.3284271,12 6,12.671573 6,13.5 6,14.328427 5.3284271,15 4.5,15 3.6715729,15 3,14.328427 3,13.5 3,12.671573 3.6715729,12 4.5,12 Z m 6,0 C 11.328427,12 12,12.671573 12,13.5 12,14.328427 11.328427,15 10.5,15 9.6715729,15 9,14.328427 9,13.5 9,12.671573 9.6715729,12 10.5,12 Z"
     id="path2-3"
     sodipodi:nodetypes="sccsscccscccscssssssccccscssssssssssssssss" />
</svg>
