<?xml version="1.0" encoding="UTF-8" standalone="no"?>
<svg
   xmlns:dc="http://purl.org/dc/elements/1.1/"
   xmlns:cc="http://creativecommons.org/ns#"
   xmlns:rdf="http://www.w3.org/1999/02/22-rdf-syntax-ns#"
   xmlns:svg="http://www.w3.org/2000/svg"
   xmlns="http://www.w3.org/2000/svg"
   xmlns:sodipodi="http://sodipodi.sourceforge.net/DTD/sodipodi-0.dtd"
   xmlns:inkscape="http://www.inkscape.org/namespaces/inkscape"
   viewBox="0 0 16 16"
   version="1.1"
   id="svg4"
   sodipodi:docname="sc_hide.svg"
   inkscape:version="0.92.4 (unknown)">
  <metadata
     id="metadata10">
    <rdf:RDF>
      <cc:Work
         rdf:about="">
        <dc:format>image/svg+xml</dc:format>
        <dc:type
           rdf:resource="http://purl.org/dc/dcmitype/StillImage" />
        <dc:title></dc:title>
      </cc:Work>
    </rdf:RDF>
  </metadata>
  <defs
     id="defs8" />
  <sodipodi:namedview
     pagecolor="#ffffff"
     bordercolor="#666666"
     borderopacity="1"
     objecttolerance="10"
     gridtolerance="10"
     guidetolerance="10"
     inkscape:pageopacity="0"
     inkscape:pageshadow="2"
     inkscape:window-width="1360"
     inkscape:window-height="714"
     id="namedview6"
     showgrid="true"
     inkscape:zoom="29.5"
     inkscape:cx="9.1601095"
     inkscape:cy="7.2349059"
     inkscape:window-x="0"
     inkscape:window-y="28"
     inkscape:window-maximized="1"
     inkscape:current-layer="svg4">
    <inkscape:grid
       type="xygrid"
       id="grid817" />
  </sodipodi:namedview>
  <path
     sodipodi:type="inkscape:offset"
     inkscape:radius="1"
     inkscape:original="M 14.5 6 C 14.13 6 13.8 6.1503906 13.5 6.4003906 L 9.5507812 10 L 11 10 L 14.130859 7.1601562 C 14.280859 7.0001562 14.37 7 14.5 7 L 15 7 L 15 7.5 C 15 7.78 15.22 8 15.5 8 C 15.78 8 16 7.78 16 7.5 L 16 7 C 16 6.3 15.84247 6 15 6 L 14.5 6 z M 8 10 L 8 11 L 9.5 12.5 L 8 14 L 8 15 L 9 15 L 10.5 13.5 L 12 15 L 13 15 L 13 14 L 11.5 12.5 L 13 11 L 13 10 L 12 10 L 10.5 11.5 L 9 10 L 8 10 z "
     style="fill:#ff00ff"
     id="path819"
     d="m 14.5,5 c -0.640974,0 -1.215081,0.2781922 -1.640625,0.6328125 a 1.0001,1.0001 0 0 0 -0.0332,0.029297 L 9.1503906,9.0136719 A 1.0001,1.0001 0 0 0 9,9 H 8 a 1.0001,1.0001 0 0 0 -1,1 v 1 a 1.0001,1.0001 0 0 0 0.2929688,0.707031 L 8.0859375,12.5 7.2929688,13.292969 A 1.0001,1.0001 0 0 0 7,14 v 1 a 1.0001,1.0001 0 0 0 1,1 H 9 A 1.0001,1.0001 0 0 0 9.7070312,15.707031 L 10.5,14.914062 11.292969,15.707031 A 1.0001,1.0001 0 0 0 12,16 h 1 a 1.0001,1.0001 0 0 0 1,-1 V 14 A 1.0001,1.0001 0 0 0 13.707031,13.292969 L 12.914062,12.5 13.707031,11.707031 A 1.0001,1.0001 0 0 0 14,11 V 10 A 1.0001,1.0001 0 0 0 13.462891,9.1152344 L 14.347656,8.3125 C 14.623895,8.7004832 15.006999,9 15.5,9 16.30381,9 17,8.3038095 17,7.5 V 7 C 17,6.5749857 16.986001,6.0478921 16.5625,5.5722656 16.138999,5.0966392 15.539934,5 15,5 Z" />
  <path
     d="m 14.5,6 c -0.37,0 -0.7,0.15 -1,0.4 L 9.55,10 H 11 L 14.13,7.16 C 14.28,7 14.37,7 14.5,7 H 15 V 7.5 C 15,7.78 15.22,8 15.5,8 15.78,8 16,7.78 16,7.5 V 7 C 16,6.3 15.84247,6 15,6 Z M 8,10 v 1 L 9.5,12.5 8,14 v 1 H 9 L 10.5,13.5 12,15 h 1 V 14 L 11.5,12.5 13,11 V 10 H 12 L 10.5,11.5 9,10 Z"
     id="path2"
     inkscape:connector-curvature="0"
     style="fill:#555753"
     sodipodi:nodetypes="sccccscssssssccccccccccccccccc" />
</svg>
