<?xml version="1.0" encoding="UTF-8" standalone="no"?>
<svg
   xmlns:dc="http://purl.org/dc/elements/1.1/"
   xmlns:cc="http://creativecommons.org/ns#"
   xmlns:rdf="http://www.w3.org/1999/02/22-rdf-syntax-ns#"
   xmlns:svg="http://www.w3.org/2000/svg"
   xmlns="http://www.w3.org/2000/svg"
   xmlns:sodipodi="http://sodipodi.sourceforge.net/DTD/sodipodi-0.dtd"
   xmlns:inkscape="http://www.inkscape.org/namespaces/inkscape"
   viewBox="0 0 32 32"
   version="1.1"
   id="svg4"
   sodipodi:docname="switchcontroldesignmode.svg"
   width="32"
   height="32"
   inkscape:version="0.92.4 (unknown)">
  <metadata
     id="metadata10">
    <rdf:RDF>
      <cc:Work
         rdf:about="">
        <dc:format>image/svg+xml</dc:format>
        <dc:type
           rdf:resource="http://purl.org/dc/dcmitype/StillImage" />
        <dc:title></dc:title>
      </cc:Work>
    </rdf:RDF>
  </metadata>
  <defs
     id="defs8" />
  <sodipodi:namedview
     pagecolor="#ffffff"
     bordercolor="#666666"
     borderopacity="1"
     objecttolerance="10"
     gridtolerance="10"
     guidetolerance="10"
     inkscape:pageopacity="0"
     inkscape:pageshadow="2"
     inkscape:window-width="1360"
     inkscape:window-height="714"
     id="namedview6"
     showgrid="true"
     inkscape:zoom="111.25147"
     inkscape:cx="25.146281"
     inkscape:cy="18.131788"
     inkscape:window-x="0"
     inkscape:window-y="28"
     inkscape:window-maximized="1"
     inkscape:current-layer="svg4"
     inkscape:snap-global="false">
    <inkscape:grid
       type="xygrid"
       id="grid817" />
  </sodipodi:namedview>
  <path
     sodipodi:type="inkscape:offset"
     inkscape:radius="0.97603375"
     inkscape:original="M 25.386719 12.980469 L 23.96875 14.400391 C 25.391399 15.819574 26.108942 16.532557 27.53125 17.953125 L 28.945312 16.539062 C 28.945339 16.279107 28.949313 15.98743 28.876953 15.705078 C 28.828593 15.469373 28.696875 15.258809 28.611328 15.039062 C 28.092988 13.707539 27.682362 13.37816 26.251953 13.085938 C 25.964698 13.033888 25.643142 13.036928 25.386719 12.980469 z M 22.580078 15.832031 L 11.976562 26.441406 L 12 30 L 15.535156 30 L 26.142578 19.392578 L 22.580078 15.832031 z "
     style="opacity:1;fill:#ffff00;fill-opacity:1;stroke:none;stroke-width:1;stroke-linecap:round;stroke-linejoin:round;stroke-miterlimit:4;stroke-dasharray:none;stroke-opacity:1"
     id="path816"
     d="m 25.402344,12.003906 a 0.97613135,0.97613135 0 0 0 -0.707032,0.28711 l -1.417968,1.419922 a 0.97613135,0.97613135 0 0 0 0.002,1.380859 c 1.423105,1.419638 2.140789,2.132762 3.5625,3.552734 a 0.97613135,0.97613135 0 0 0 1.378906,-0.002 l 1.414063,-1.414062 a 0.97613135,0.97613135 0 0 0 0.287109,-0.689454 c 2.5e-5,-0.245091 0.0096,-0.619044 -0.09766,-1.054687 -0.09725,-0.438683 -0.264801,-0.701386 -0.302735,-0.798828 -0.280907,-0.721602 -0.587336,-1.320977 -1.126953,-1.765625 -0.539617,-0.444649 -1.179546,-0.634176 -1.947265,-0.791016 a 0.97613135,0.97613135 0 0 0 -0.02148,-0.0039 c -0.419554,-0.07602 -0.748184,-0.07963 -0.830078,-0.09766 a 0.97613135,0.97613135 0 0 0 -0.193359,-0.02344 z m -2.835938,2.851563 a 0.97613135,0.97613135 0 0 0 -0.675781,0.287109 L 11.287109,25.751953 A 0.97613135,0.97613135 0 0 0 11,26.447266 l 0.02344,3.558593 A 0.97613135,0.97613135 0 0 0 12,30.976562 h 3.535156 a 0.97613135,0.97613135 0 0 0 0.689453,-0.287109 L 26.832031,20.082031 a 0.97613135,0.97613135 0 0 0 0,-1.378906 l -3.5625,-3.560547 a 0.97613135,0.97613135 0 0 0 -0.703125,-0.287109 z" />
  <path
     style="opacity:1;fill:#555753;fill-opacity:1;stroke:none;stroke-width:1;stroke-linecap:round;stroke-linejoin:round;stroke-miterlimit:4;stroke-dasharray:none;stroke-opacity:1"
     d="m 25.386719,12.980469 -1.417969,1.419922 c 1.422649,1.419183 2.140192,2.132166 3.5625,3.552734 l 1.414062,-1.414063 c 2.7e-5,-0.259955 0.004,-0.551632 -0.06836,-0.833984 -0.04836,-0.235705 -0.180078,-0.446269 -0.265625,-0.666016 -0.51834,-1.331523 -0.928966,-1.660902 -2.359375,-1.953124 -0.287255,-0.05205 -0.60881,-0.04901 -0.865234,-0.105469 z M 22.580078,15.832031 11.976562,26.441406 12,30 h 3.535156 L 26.142578,19.392578 Z"
     id="rect819"
     inkscape:connector-curvature="0"
     sodipodi:nodetypes="cccccccccccccc" />
</svg>
