<?xml version="1.0" encoding="UTF-8" standalone="no"?>
<svg
   xmlns:dc="http://purl.org/dc/elements/1.1/"
   xmlns:cc="http://creativecommons.org/ns#"
   xmlns:rdf="http://www.w3.org/1999/02/22-rdf-syntax-ns#"
   xmlns:svg="http://www.w3.org/2000/svg"
   xmlns="http://www.w3.org/2000/svg"
   xmlns:sodipodi="http://sodipodi.sourceforge.net/DTD/sodipodi-0.dtd"
   xmlns:inkscape="http://www.inkscape.org/namespaces/inkscape"
   viewBox="0 0 32 32"
   version="1.1"
   id="svg4"
   sodipodi:docname="underlinedouble.svg"
   inkscape:version="0.92.4 (5da689c313, 2019-01-14)"
   width="32"
   height="32">
  <metadata
     id="metadata10">
    <rdf:RDF>
      <cc:Work
         rdf:about="">
        <dc:format>image/svg+xml</dc:format>
        <dc:type
           rdf:resource="http://purl.org/dc/dcmitype/StillImage" />
        <dc:title></dc:title>
      </cc:Work>
    </rdf:RDF>
  </metadata>
  <defs
     id="defs8" />
  <sodipodi:namedview
     pagecolor="#ffffff"
     bordercolor="#666666"
     borderopacity="1"
     objecttolerance="10"
     gridtolerance="10"
     guidetolerance="10"
     inkscape:pageopacity="0"
     inkscape:pageshadow="2"
     inkscape:window-width="1366"
     inkscape:window-height="707"
     id="namedview6"
     showgrid="true"
     inkscape:zoom="13.906433"
     inkscape:cx="16.535602"
     inkscape:cy="13.208192"
     inkscape:window-x="0"
     inkscape:window-y="0"
     inkscape:window-maximized="1"
     inkscape:current-layer="svg4"
     inkscape:snap-page="true"
     inkscape:snap-grids="true">
    <inkscape:grid
       type="xygrid"
       id="grid836"
       spacingx="0.5"
       spacingy="0.5"
       empspacing="2" />
  </sodipodi:namedview>
  <path
     d="m 10,2.9902177 v 4.0143938 h 9.762712 c 1.385392,0 2.295122,1.3400182 2.237288,2.7242021 V 10.983051 H 11.610169 c -3.1171322,0 -5.6440674,2.526936 -5.6440674,5.644068 0,1.791866 0.8422327,3.358654 2.1312236,4.38983 H 26.033898 V 9.7288136 c 0,-3.463481 -2.807705,-6.7385959 -6.271186,-6.7385959 z M 11.610169,15 h 10.661018 v 4 H 11.610169 C 10.571125,19 10.052405,18.5 10.052405,16.627119 10.052405,15.588075 10.571125,15 11.610169,15 Z M 3,22 v 3 h 25 v -3 z m 0,4 v 3 h 25 v -3 z"
     id="path2"
     inkscape:connector-curvature="0"
     style="fill:#555753;stroke-width:1"
     sodipodi:nodetypes="ccsscssccsscsccssscccccccccc" />
</svg>
