<svg height="128" viewBox="0 0 128 128" width="128" xmlns="http://www.w3.org/2000/svg"><path d="m18.000147 5.9918v2 112 2h1.999997 88.000006 2v-2-70-.8752l-.62497-.6248-41.750007-42-.499969-.5h-.875016-46.250044z" fill="#000"/><g fill="#aaa8ac"><path d="m18 .02539063c-4.15175 0-6.01832 3.48502087-6 5.99804687v115.9687525c.0004 4.1875 1.81145 5.99765 6 5.99804h91.99805c4.18855-.00039 5.9996-1.81054 6-5.99804v-71.818362c.048-2.111901-.78003-4.232189-2.25-5.75l-42.162112-42.1484374c-1.51821-1.46918997-3.637561-2.29894098-5.75-2.24999997zm0 5.97070317h2 46.25.875l.5.5 41.75 42.0000002.625.625v.875 69.999996 2h-2-88-2v-2-111.9999962z"/><path d="m86.63453.058217c-2.66247.852789-3.55852 4.906018-1.50595 6.812079l24.09514 24.220931c2.22593 2.121657 6.65945.306281 6.77673-2.775324v-24.220851c-.00024-2.113661-1.91322-4.036595-4.01586-4.036835h-24.09514c-.41519-.06397-.83997-.06397-1.25492 0z"/><path d="m30.998047 47.996094v2 8 2 8 2 8 2 8 2 8 2h27v-2h-6.001953v-8h6.001953v-2h-6.001953v-8h6.001953v-2h-6.001953v-8h18v8h2.001953v-8h17v8h2v-30h-58zm2 2h17v8h-17zm18.998047 0h18v8h-18zm20.001953 0h17v8h-17zm-39 10h17v8h-17zm18.998047 0h18v8h-18zm20.001953 0h17v8h-17zm-39 10h17v8h-17zm0 10h17v8h-17zm0 10h17v8h-17z"/><path d="m55.998047 75.996094v27.999996h39v-27.999996zm2 2h35v23.999996h-35z"/><path d="m59.99878 84.995184h7v15.999906h-7z"/><path d="m67.99878 79.995184h7v20.999906h-7z"/><path d="m75.99878 90.995184h7v9.999906h-7z"/><path d="m83.99878 86.995184h7v14.000006h-7z"/></g><path d="m57.99878 100.99519h35v1h-35z" fill="none" opacity=".75"/></svg>