<?xml version="1.0" encoding="UTF-8" standalone="no"?>
<svg
   xmlns:dc="http://purl.org/dc/elements/1.1/"
   xmlns:cc="http://creativecommons.org/ns#"
   xmlns:rdf="http://www.w3.org/1999/02/22-rdf-syntax-ns#"
   xmlns:svg="http://www.w3.org/2000/svg"
   xmlns="http://www.w3.org/2000/svg"
   xmlns:sodipodi="http://sodipodi.sourceforge.net/DTD/sodipodi-0.dtd"
   xmlns:inkscape="http://www.inkscape.org/namespaces/inkscape"
   viewBox="0 0 32 32"
   version="1.1"
   id="svg4"
   sodipodi:docname="bold.svg"
   inkscape:version="0.92.4 (5da689c313, 2019-01-14)"
   width="32"
   height="32">
  <metadata
     id="metadata10">
    <rdf:RDF>
      <cc:Work
         rdf:about="">
        <dc:format>image/svg+xml</dc:format>
        <dc:type
           rdf:resource="http://purl.org/dc/dcmitype/StillImage" />
        <dc:title></dc:title>
      </cc:Work>
    </rdf:RDF>
  </metadata>
  <defs
     id="defs8" />
  <sodipodi:namedview
     pagecolor="#ffffff"
     bordercolor="#666666"
     borderopacity="1"
     objecttolerance="10"
     gridtolerance="10"
     guidetolerance="10"
     inkscape:pageopacity="0"
     inkscape:pageshadow="2"
     inkscape:window-width="1366"
     inkscape:window-height="704"
     id="namedview6"
     showgrid="true"
     inkscape:zoom="9.8333333"
     inkscape:cx="12"
     inkscape:cy="11.186441"
     inkscape:window-x="0"
     inkscape:window-y="0"
     inkscape:window-maximized="1"
     inkscape:current-layer="svg4"
     inkscape:snap-page="true"
     inkscape:snap-grids="false">
    <inkscape:grid
       type="xygrid"
       id="grid836"
       spacingx="0.5"
       spacingy="0.5" />
  </sodipodi:namedview>
  <path
     d="m 23.150475,3.440678 c -3.631637,0 -7.226958,2.8365228 -7.977677,6.2796609 L 14.082579,14.60452 H 12.99236 c -1.202331,0 -2.359888,0.933577 -2.572916,2.09322 -0.213969,1.159631 0.585627,2.09322 1.787959,2.09322 h 0.959392 l -0.741349,3.488701 c -0.257563,1.180771 -1.414717,2.09322 -2.6601332,2.09322 -1.2453769,0 -2.0454184,-0.912449 -1.787959,-2.09322 L 8.4570501,20.18644 H 6.2330035 c -1.0985581,-0.0013 -2.3525746,0.695251 -2.6574085,2.093221 -0.7507316,3.443138 1.6423352,6.279661 5.2739339,6.279661 3.6316371,0 7.2269461,-2.836523 7.9776761,-6.279661 l 0.784958,-3.488701 h 1.39548 c 1.202293,0 2.359888,-0.933589 2.572917,-2.09322 0.213983,-1.159643 -0.585667,-2.09322 -1.787959,-2.09322 h -1.264654 l 1.04661,-4.884181 c 0.257459,-1.180773 1.414729,-2.0932203 2.660134,-2.0932203 1.245389,0 2.001797,0.9124473 1.74435,2.0932203 l -0.436087,2.09322 H 25.767 c 1.098559,0 2.352575,-0.695236 2.657409,-2.09322 0.750718,-3.4431381 -1.642335,-6.2796609 -5.273934,-6.279661 z"
     id="path2"
     inkscape:connector-curvature="0"
     style="fill:#555753;stroke-width:0.99999994" />
</svg>
