<svg height="32" viewBox="0 0 32 32" width="32" xmlns="http://www.w3.org/2000/svg"><path d="m11.5 4c-1.385 0-2.5 1.115-2.5 2.5v2.5h2.5 9 2.5v-2.5c0-1.385-1.115-2.5-2.5-2.5zm-4.5 6c-2.216 0-4 1.784-4 4v4c0 2.216 1.784 4 4 4v.40625c0 .006914.0063978.011101.0078125.017578-.0011814.025768-.0078125.050069-.0078125.076172v.5c0 2.216 1.784 4 4 4h10c2.216 0 4-1.784 4-4v-.09375-.40625-.5c2.216 0 4-1.784 4-4v-4c0-2.216-1.784-4-4-4zm3.5 9h11c.831 0 1.5.669 1.5 1.5v3c0 .831-.669 1.5-1.5 1.5h-11c-.831 0-1.5-.669-1.5-1.5v-3c0-.831.669-1.5 1.5-1.5z" fill="#aaa8ac"/></svg>