<?xml version="1.0" encoding="UTF-8" standalone="no"?>
<svg
   xmlns:dc="http://purl.org/dc/elements/1.1/"
   xmlns:cc="http://creativecommons.org/ns#"
   xmlns:rdf="http://www.w3.org/1999/02/22-rdf-syntax-ns#"
   xmlns:svg="http://www.w3.org/2000/svg"
   xmlns="http://www.w3.org/2000/svg"
   xmlns:sodipodi="http://sodipodi.sourceforge.net/DTD/sodipodi-0.dtd"
   xmlns:inkscape="http://www.inkscape.org/namespaces/inkscape"
   height="32"
   viewBox="0 0 32 32"
   width="32"
   version="1.1"
   id="svg4"
   sodipodi:docname="fontworkgalleryfloater.svg"
   inkscape:version="0.92.4 (unknown)">
  <metadata
     id="metadata10">
    <rdf:RDF>
      <cc:Work
         rdf:about="">
        <dc:format>image/svg+xml</dc:format>
        <dc:type
           rdf:resource="http://purl.org/dc/dcmitype/StillImage" />
        <dc:title></dc:title>
      </cc:Work>
    </rdf:RDF>
  </metadata>
  <defs
     id="defs8" />
  <sodipodi:namedview
     pagecolor="#ffffff"
     bordercolor="#666666"
     borderopacity="1"
     objecttolerance="10"
     gridtolerance="10"
     guidetolerance="10"
     inkscape:pageopacity="0"
     inkscape:pageshadow="2"
     inkscape:window-width="1360"
     inkscape:window-height="714"
     id="namedview6"
     showgrid="true"
     inkscape:zoom="14.75"
     inkscape:cx="18.422968"
     inkscape:cy="14.170633"
     inkscape:window-x="0"
     inkscape:window-y="28"
     inkscape:window-maximized="1"
     inkscape:current-layer="svg4">
    <inkscape:grid
       type="xygrid"
       id="grid817" />
  </sodipodi:namedview>
  <path
     style="fill:#555753"
     d="M 5 5 L 5 8 L 8 8 L 8 5 L 5 5 z M 24 5 L 24 8 L 27 8 L 27 5 L 24 5 z M 12 8 L 12 11 L 19 11 C 19.552285 11 20 11.447715 20 12 L 20 14 L 14 14 C 11.238576 14 9 16.238576 9 19 C 9 21.761424 11.238576 24 14 24 L 23 24 L 23 11 C 23 9.343146 21.656854 8 20 8 L 12 8 z M 14 17 L 20 17 L 20 21 L 14 21 C 12.895431 21 12 20.104569 12 19 C 12 17.895431 12.895431 17 14 17 z M 5 24 L 5 27 L 8 27 L 8 24 L 5 24 z M 24 24 L 24 27 L 27 27 L 27 24 L 24 24 z "
     id="path2" />
</svg>
