<?xml version="1.0" encoding="UTF-8" standalone="no"?>
<svg
   xmlns:dc="http://purl.org/dc/elements/1.1/"
   xmlns:cc="http://creativecommons.org/ns#"
   xmlns:rdf="http://www.w3.org/1999/02/22-rdf-syntax-ns#"
   xmlns:svg="http://www.w3.org/2000/svg"
   xmlns="http://www.w3.org/2000/svg"
   xmlns:sodipodi="http://sodipodi.sourceforge.net/DTD/sodipodi-0.dtd"
   xmlns:inkscape="http://www.inkscape.org/namespaces/inkscape"
   viewBox="0 0 32 32"
   version="1.1"
   id="svg4"
   sodipodi:docname="alphaliststyle.svg"
   inkscape:version="0.92.4 (5da689c313, 2019-01-14)"
   width="32"
   height="32">
  <metadata
     id="metadata10">
    <rdf:RDF>
      <cc:Work
         rdf:about="">
        <dc:format>image/svg+xml</dc:format>
        <dc:type
           rdf:resource="http://purl.org/dc/dcmitype/StillImage" />
        <dc:title />
      </cc:Work>
    </rdf:RDF>
  </metadata>
  <defs
     id="defs8" />
  <sodipodi:namedview
     pagecolor="#ffffff"
     bordercolor="#666666"
     borderopacity="1"
     objecttolerance="10"
     gridtolerance="10"
     guidetolerance="10"
     inkscape:pageopacity="0"
     inkscape:pageshadow="2"
     inkscape:window-width="1366"
     inkscape:window-height="704"
     id="namedview6"
     showgrid="true"
     inkscape:zoom="39.333332"
     inkscape:cx="18.931058"
     inkscape:cy="9.3524864"
     inkscape:window-x="0"
     inkscape:window-y="0"
     inkscape:window-maximized="1"
     inkscape:current-layer="svg4"
     inkscape:snap-global="true"
     inkscape:snap-bbox="true"
     inkscape:snap-page="true">
    <inkscape:grid
       type="xygrid"
       id="grid836"
       spacingx="0.5"
       spacingy="0.5" />
  </sodipodi:namedview>
  <path
     d="m 20.806877,2.5484136 c -1.32054,0 -2.307945,1.2118874 -2.306877,2.4755679 V 14 h 2.306877 v -2.083213 h 4.801965 V 14 h 2.400982 V 5.0239815 c 0,-1.263681 -1.080442,-2.4755679 -2.400982,-2.4755679 z M 4,5.0239815 V 7.3215832 H 16.004912 V 5.0239815 Z m 16.806877,0 h 4.801965 V 9.6191854 H 20.806877 Z M 8.8019655,9.6191854 V 11.916787 H 16.004912 V 9.6191854 Z M 18.5,16.51199 V 28 h 2.306877 4.801965 c 1.32054,0 2.400982,-1.028671 2.400982,-2.297601 v -2.297602 c 0,-1.263682 -1.080442,-2.297602 -2.400982,-2.297602 v -2.297603 c 0,-1.263681 -1.080443,-2.297602 -2.400983,-2.297602 H 20.806877 Z M 4,17.660793 v 2.297601 h 12.004912 v -2.297601 z m 16.806877,1.148799 h 2.400982 v 2.297603 h -2.400982 z m -9.60393,3.446404 v 2.297602 h 4.801965 v -2.297602 z m 9.60393,1.148801 h 4.801965 v 2.297602 h -4.801965 z"
     id="path2"
     inkscape:connector-curvature="0"
     style="fill:#555753;stroke-width:0.99999982"
     sodipodi:nodetypes="ssccccccsssccccccccccccccccccssscsscccccccccccccccccccccc" />
</svg>
