<?xml version="1.0" encoding="UTF-8" standalone="no"?>
<svg
   xmlns:dc="http://purl.org/dc/elements/1.1/"
   xmlns:cc="http://creativecommons.org/ns#"
   xmlns:rdf="http://www.w3.org/1999/02/22-rdf-syntax-ns#"
   xmlns:svg="http://www.w3.org/2000/svg"
   xmlns="http://www.w3.org/2000/svg"
   xmlns:sodipodi="http://sodipodi.sourceforge.net/DTD/sodipodi-0.dtd"
   xmlns:inkscape="http://www.inkscape.org/namespaces/inkscape"
   viewBox="0 0 32 32"
   version="1.1"
   id="svg4"
   sodipodi:docname="lc_alphalowliststyle.svg"
   inkscape:version="0.92.4 (5da689c313, 2019-01-14)"
   width="32"
   height="32">
  <metadata
     id="metadata10">
    <rdf:RDF>
      <cc:Work
         rdf:about="">
        <dc:format>image/svg+xml</dc:format>
        <dc:type
           rdf:resource="http://purl.org/dc/dcmitype/StillImage" />
        <dc:title></dc:title>
      </cc:Work>
    </rdf:RDF>
  </metadata>
  <defs
     id="defs8" />
  <sodipodi:namedview
     pagecolor="#ffffff"
     bordercolor="#666666"
     borderopacity="1"
     objecttolerance="10"
     gridtolerance="10"
     guidetolerance="10"
     inkscape:pageopacity="0"
     inkscape:pageshadow="2"
     inkscape:window-width="1366"
     inkscape:window-height="704"
     id="namedview6"
     showgrid="false"
     inkscape:zoom="9.8333333"
     inkscape:cx="12"
     inkscape:cy="12"
     inkscape:window-x="0"
     inkscape:window-y="0"
     inkscape:window-maximized="1"
     inkscape:current-layer="svg4"
     inkscape:pagecheckerboard="false"
     inkscape:snap-global="true"
     inkscape:snap-page="true">
    <inkscape:grid
       type="xygrid"
       id="grid836"
       spacingx="0.5"
       spacingy="0.5" />
  </sodipodi:namedview>
  <path
     d="m 20.574388,3.4204336 v 2.2871938 h 4.574388 v 2.2871938 h -4.574388 c -1.257956,0 -2.287194,1.0292373 -2.287194,2.2871938 v 2.287193 c 0,1.257957 1.029238,2.287194 2.287194,2.287194 H 27.43597 V 12.569208 5.7076274 c 0,-1.2579566 -1.029238,-2.2871938 -2.287194,-2.2871938 z M 4.5640305,5.7076274 V 7.9948212 H 16 V 5.7076274 Z m 4.5743876,4.5743876 v 2.287193 H 16 v -2.287193 z m 11.4359699,0 h 4.574388 v 2.287193 h -4.574388 z m -2.287194,6.861582 v 11.435969 h 2.287194 4.574388 c 1.257956,0 2.287194,-1.029237 2.287194,-2.287194 v -2.287194 c 0,-1.257957 -1.029238,-2.287194 -2.287194,-2.287194 H 20.574388 V 17.143597 Z M 4.5640305,18.287193 v 2.287194 H 16 v -2.287194 z m 6.8615815,4.574388 v 2.287194 H 16 v -2.287194 z m 9.148776,1.143597 h 4.574388 v 2.287194 h -4.574388 z"
     id="path2"
     inkscape:connector-curvature="0"
     style="fill:#555753;stroke-width:0.99999994" />
</svg>
