<?xml version="1.0" encoding="UTF-8" standalone="no"?>
<svg
   xmlns:dc="http://purl.org/dc/elements/1.1/"
   xmlns:cc="http://creativecommons.org/ns#"
   xmlns:rdf="http://www.w3.org/1999/02/22-rdf-syntax-ns#"
   xmlns:svg="http://www.w3.org/2000/svg"
   xmlns="http://www.w3.org/2000/svg"
   xmlns:sodipodi="http://sodipodi.sourceforge.net/DTD/sodipodi-0.dtd"
   xmlns:inkscape="http://www.inkscape.org/namespaces/inkscape"
   viewBox="0 0 32 32"
   version="1.1"
   id="svg4"
   sodipodi:docname="lc_defaultnumbering.svg"
   width="32"
   height="32"
   inkscape:version="0.92.4 (5da689c313, 2019-01-14)">
  <metadata
     id="metadata10">
    <rdf:RDF>
      <cc:Work
         rdf:about="">
        <dc:format>image/svg+xml</dc:format>
        <dc:type
           rdf:resource="http://purl.org/dc/dcmitype/StillImage" />
        <dc:title></dc:title>
      </cc:Work>
    </rdf:RDF>
  </metadata>
  <defs
     id="defs8" />
  <sodipodi:namedview
     pagecolor="#ffffff"
     bordercolor="#666666"
     borderopacity="1"
     objecttolerance="10"
     gridtolerance="10"
     guidetolerance="10"
     inkscape:pageopacity="0"
     inkscape:pageshadow="2"
     inkscape:window-width="1366"
     inkscape:window-height="704"
     id="namedview6"
     showgrid="false"
     inkscape:snap-global="true"
     inkscape:snap-page="true"
     inkscape:zoom="9.8333333"
     inkscape:cx="12"
     inkscape:cy="12"
     inkscape:window-x="0"
     inkscape:window-y="0"
     inkscape:window-maximized="1"
     inkscape:current-layer="svg4">
    <inkscape:grid
       type="xygrid"
       id="grid817"
       spacingx="0.5"
       spacingy="0.5" />
  </sodipodi:namedview>
  <path
     d="M 3.6101696,3.6101694 V 6.0881355 H 18.477966 V 3.6101694 Z m 21.0627104,0 c 0,1.7345762 -0.867287,2.4779661 -2.477966,2.4779661 v 2.4779661 h 2.477966 v 6.1949154 h 2.477966 V 3.6101694 Z M 3.6101696,7.3271185 V 9.8050846 H 18.477966 V 7.3271185 Z m 7.4338974,3.7169495 v 2.477967 h 7.433899 v -2.477967 z m -7.4338974,6.194915 v 2.477966 H 18.477966 v -2.477966 z m 21.0627104,0 c -2.052813,0 -3.716948,1.664136 -3.716948,3.71695 h 2.477966 c 0,-0.684272 0.554711,-1.238984 1.238982,-1.238984 0.684272,0 1.238984,0.554712 1.238984,1.238984 l -4.955932,4.955932 v 2.477966 h 7.433898 v -2.477966 h -4.384838 l 3.88876,-3.840364 c 0.495594,-0.495593 0.496078,-0.830602 0.496078,-1.115568 0,-2.052814 -1.664135,-3.71695 -3.71695,-3.71695 z m -21.0627104,3.71695 v 2.477966 H 18.477966 v -2.477966 z m 7.4338974,3.716948 v 2.477967 h 7.433899 v -2.477967 z"
     id="path2"
     inkscape:connector-curvature="0"
     style="fill:#555753;stroke-width:1" />
</svg>
