<?xml version="1.0" encoding="UTF-8" standalone="no"?>
<svg
   xmlns:dc="http://purl.org/dc/elements/1.1/"
   xmlns:cc="http://creativecommons.org/ns#"
   xmlns:rdf="http://www.w3.org/1999/02/22-rdf-syntax-ns#"
   xmlns:svg="http://www.w3.org/2000/svg"
   xmlns="http://www.w3.org/2000/svg"
   xmlns:sodipodi="http://sodipodi.sourceforge.net/DTD/sodipodi-0.dtd"
   xmlns:inkscape="http://www.inkscape.org/namespaces/inkscape"
   viewBox="0 0 32 32"
   version="1.1"
   id="svg4"
   sodipodi:docname="redo.svg"
   inkscape:version="0.92.4 (5da689c313, 2019-01-14)"
   width="32"
   height="32">
  <metadata
     id="metadata10">
    <rdf:RDF>
      <cc:Work
         rdf:about="">
        <dc:format>image/svg+xml</dc:format>
        <dc:type
           rdf:resource="http://purl.org/dc/dcmitype/StillImage" />
        <dc:title />
      </cc:Work>
    </rdf:RDF>
  </metadata>
  <defs
     id="defs8" />
  <sodipodi:namedview
     pagecolor="#ffffff"
     bordercolor="#666666"
     borderopacity="1"
     objecttolerance="10"
     gridtolerance="10"
     guidetolerance="10"
     inkscape:pageopacity="0"
     inkscape:pageshadow="2"
     inkscape:window-width="1366"
     inkscape:window-height="704"
     id="namedview6"
     showgrid="true"
     inkscape:zoom="27.812867"
     inkscape:cx="14.516963"
     inkscape:cy="12.444324"
     inkscape:window-x="0"
     inkscape:window-y="0"
     inkscape:window-maximized="1"
     inkscape:current-layer="svg4"
     inkscape:snap-page="true">
    <inkscape:grid
       type="xygrid"
       id="grid836"
       spacingx="0.5"
       spacingy="0.5" />
  </sodipodi:namedview>
  <path
     d="m 12.166828,5.5000003 c -0.421204,0 -0.751784,0.1233963 -1.020854,0.384375 L 4.0000005,12.504168 v 2.330273 c 1.474745,1.309451 5.6712246,5.661355 7.1459735,6.782882 0.26907,0.260964 0.59965,0.384374 1.020854,0.384374 h 0.797541 0.563596 v -1.468361 c 0,-0.351083 -0.176716,-0.722228 -0.425355,-0.982291 L 8.325335,15.066669 h 13.369457 c 2.255208,0 4.083415,1.835633 4.083415,4.1 0,2.264367 -1.828207,4.100001 -4.083415,4.100001 v 2.733333 c 3.758678,0 6.80569,-3.059388 6.80569,-6.833334 0,-3.773947 -3.047012,-6.833335 -6.80569,-6.833335 H 8.3253349 L 13.10261,7.848959 C 13.351249,7.5888959 13.527965,7.2079429 13.527965,6.8666671 V 5.5000003 h -0.563596 z"
     id="path2"
     inkscape:connector-curvature="0"
     style="fill:#555753;stroke-width:1.00000012"
     sodipodi:nodetypes="sccccsccsccssccssccsccs" />
</svg>
