<?xml version="1.0" encoding="UTF-8" standalone="no"?>
<svg
   xmlns:dc="http://purl.org/dc/elements/1.1/"
   xmlns:cc="http://creativecommons.org/ns#"
   xmlns:rdf="http://www.w3.org/1999/02/22-rdf-syntax-ns#"
   xmlns:svg="http://www.w3.org/2000/svg"
   xmlns="http://www.w3.org/2000/svg"
   xmlns:sodipodi="http://sodipodi.sourceforge.net/DTD/sodipodi-0.dtd"
   xmlns:inkscape="http://www.inkscape.org/namespaces/inkscape"
   viewBox="0 0 32 32"
   version="1.1"
   id="svg4"
   sodipodi:docname="undo.svg"
   inkscape:version="0.92.4 (5da689c313, 2019-01-14)"
   width="32"
   height="32">
  <metadata
     id="metadata10">
    <rdf:RDF>
      <cc:Work
         rdf:about="">
        <dc:format>image/svg+xml</dc:format>
        <dc:type
           rdf:resource="http://purl.org/dc/dcmitype/StillImage" />
        <dc:title></dc:title>
      </cc:Work>
    </rdf:RDF>
  </metadata>
  <defs
     id="defs8" />
  <sodipodi:namedview
     pagecolor="#ffffff"
     bordercolor="#666666"
     borderopacity="1"
     objecttolerance="10"
     gridtolerance="10"
     guidetolerance="10"
     inkscape:pageopacity="0"
     inkscape:pageshadow="2"
     inkscape:window-width="1366"
     inkscape:window-height="704"
     id="namedview6"
     showgrid="true"
     inkscape:zoom="13.906434"
     inkscape:cx="4.9520518"
     inkscape:cy="17.562721"
     inkscape:window-x="0"
     inkscape:window-y="0"
     inkscape:window-maximized="1"
     inkscape:current-layer="svg4"
     inkscape:snap-page="true">
    <inkscape:grid
       type="xygrid"
       id="grid836"
       spacingx="0.5"
       spacingy="0.5"
       empspacing="2" />
  </sodipodi:namedview>
  <path
     d="m 20.378568,4.9958323 c 0.421204,0 0.751784,0.1233963 1.020854,0.384375 L 28.017431,12 v 2.330273 c -1.474745,1.309451 -5.14326,5.2299 -6.618009,6.351427 -0.26907,0.260964 -0.59965,0.384374 -1.020854,0.384374 h -0.797541 -0.563596 v -1.468361 c 0,-0.351083 0.176716,-0.722228 0.425355,-0.982291 L 24.017431,14 10.052981,14.0052 C 8.4727465,14.005788 6.0104105,16.398129 6.0104105,18.662496 6.0104105,20.926868 7.7622235,23 10.017432,23 v 2 c -3.7586785,0 -6.0174315,-2.563553 -6.0174315,-6.337499 0,-3.773947 2.276331,-6.628349 6.0350015,-6.635585 L 24.017431,12 19.442786,7.344791 C 19.194147,7.0847279 19.014503,6.7037623 19.017431,6.3624991 V 4.9958323 h 0.563596 z"
     id="path2"
     inkscape:connector-curvature="0"
     style="fill:#555753;stroke-width:1.00000012"
     sodipodi:nodetypes="sccccsccsccssccssccsccs" />
</svg>
