<?xml version="1.0" encoding="UTF-8" standalone="no"?>
<svg
   xmlns:dc="http://purl.org/dc/elements/1.1/"
   xmlns:cc="http://creativecommons.org/ns#"
   xmlns:rdf="http://www.w3.org/1999/02/22-rdf-syntax-ns#"
   xmlns:svg="http://www.w3.org/2000/svg"
   xmlns="http://www.w3.org/2000/svg"
   xmlns:sodipodi="http://sodipodi.sourceforge.net/DTD/sodipodi-0.dtd"
   xmlns:inkscape="http://www.inkscape.org/namespaces/inkscape"
   viewBox="0 0 32 32"
   version="1.1"
   id="svg4"
   sodipodi:docname="lc_alphaliststyle.svg"
   inkscape:version="0.92.4 (5da689c313, 2019-01-14)"
   width="32"
   height="32">
  <metadata
     id="metadata10">
    <rdf:RDF>
      <cc:Work
         rdf:about="">
        <dc:format>image/svg+xml</dc:format>
        <dc:type
           rdf:resource="http://purl.org/dc/dcmitype/StillImage" />
        <dc:title></dc:title>
      </cc:Work>
    </rdf:RDF>
  </metadata>
  <defs
     id="defs8" />
  <sodipodi:namedview
     pagecolor="#ffffff"
     bordercolor="#666666"
     borderopacity="1"
     objecttolerance="10"
     gridtolerance="10"
     guidetolerance="10"
     inkscape:pageopacity="0"
     inkscape:pageshadow="2"
     inkscape:window-width="1366"
     inkscape:window-height="704"
     id="namedview6"
     showgrid="false"
     inkscape:zoom="9.8333333"
     inkscape:cx="9.6358494"
     inkscape:cy="13.11133"
     inkscape:window-x="0"
     inkscape:window-y="0"
     inkscape:window-maximized="1"
     inkscape:current-layer="svg4"
     inkscape:snap-global="true"
     inkscape:snap-bbox="true"
     inkscape:snap-page="true">
    <inkscape:grid
       type="xygrid"
       id="grid836"
       spacingx="0.5"
       spacingy="0.5" />
  </sodipodi:namedview>
  <path
     d="m 20.634826,3.2542278 c -1.274577,0 -2.317413,1.0428359 -2.317413,2.3174131 v 9.2696521 h 2.317413 V 12.52388 h 4.634826 v 2.317413 h 2.317413 V 5.5716409 c 0,-1.2745772 -1.042836,-2.3174131 -2.317413,-2.3174131 z M 4.4129347,5.5716409 v 2.317413 H 16 v -2.317413 z m 16.2218913,0 h 4.634826 V 10.206467 H 20.634826 Z M 9.0477613,10.206467 V 12.52388 H 16 v -2.317413 z m 9.2696517,6.952239 v 11.587066 h 2.317413 4.634826 c 1.274577,0 2.317413,-1.037541 2.317413,-2.317413 v -2.317413 c 0,-1.274578 -1.042836,-2.317413 -2.317413,-2.317413 v -2.317414 c 0,-1.274577 -1.042836,-2.317413 -2.317413,-2.317413 H 20.634826 Z M 4.4129347,18.317413 v 2.317413 H 16 v -2.317413 z m 16.2218913,1.158706 h 2.317413 v 2.317414 h -2.317413 z m -9.269652,3.476121 v 2.317413 H 16 V 22.95224 Z m 9.269652,1.158706 h 4.634826 v 2.317413 h -4.634826 z"
     id="path2"
     inkscape:connector-curvature="0"
     style="fill:#555753;stroke-width:0.99999994" />
</svg>
