<?xml version="1.0" encoding="UTF-8" standalone="no"?>
<svg
   xmlns:dc="http://purl.org/dc/elements/1.1/"
   xmlns:cc="http://creativecommons.org/ns#"
   xmlns:rdf="http://www.w3.org/1999/02/22-rdf-syntax-ns#"
   xmlns:svg="http://www.w3.org/2000/svg"
   xmlns="http://www.w3.org/2000/svg"
   xmlns:sodipodi="http://sodipodi.sourceforge.net/DTD/sodipodi-0.dtd"
   xmlns:inkscape="http://www.inkscape.org/namespaces/inkscape"
   viewBox="0 0 32 32"
   version="1.1"
   id="svg4"
   sodipodi:docname="defaultnumbering.svg"
   width="32"
   height="32"
   inkscape:version="0.92.4 (5da689c313, 2019-01-14)">
  <metadata
     id="metadata10">
    <rdf:RDF>
      <cc:Work
         rdf:about="">
        <dc:format>image/svg+xml</dc:format>
        <dc:type
           rdf:resource="http://purl.org/dc/dcmitype/StillImage" />
        <dc:title />
      </cc:Work>
    </rdf:RDF>
  </metadata>
  <defs
     id="defs8" />
  <sodipodi:namedview
     pagecolor="#ffffff"
     bordercolor="#666666"
     borderopacity="1"
     objecttolerance="10"
     gridtolerance="10"
     guidetolerance="10"
     inkscape:pageopacity="0"
     inkscape:pageshadow="2"
     inkscape:window-width="1366"
     inkscape:window-height="704"
     id="namedview6"
     showgrid="true"
     inkscape:snap-global="true"
     inkscape:snap-page="true"
     inkscape:zoom="27.812867"
     inkscape:cx="19.98078"
     inkscape:cy="8.564054"
     inkscape:window-x="0"
     inkscape:window-y="0"
     inkscape:window-maximized="1"
     inkscape:current-layer="svg4"
     inkscape:snap-to-guides="false">
    <inkscape:grid
       type="xygrid"
       id="grid817"
       spacingx="0.5"
       spacingy="0.5" />
  </sodipodi:namedview>
  <path
     d="M 4,3.014613 V 5.5598925 H 18.389028 V 3.014613 Z m 20.384456,0 c 0,1.7816955 -0.839359,2.5452795 -2.398171,2.5452795 V 8.105172 h 2.398171 V 14.5 H 27 V 3.014613 Z M 4,6.8325321 V 9.3778117 H 18.389028 V 6.8325321 Z m 7.194513,3.8179199 v 2.545281 h 7.194515 V 10.650452 Z M 4,17.01365 v 2.54528 h 14.389028 v -2.54528 z m 20.384456,0 C 22.397747,17.01365 21,18.891421 21,21 h 2.185371 c 0,-0.70286 0.536849,-1.44107 1.199085,-1.44107 0.662237,0 1.199087,0.569781 1.199087,1.272641 L 21,25.92213 v 2.545279 h 6.981714 V 25.92213 h -4.243639 l 3.763535,-3.944687 c 0.479636,-0.509056 0.480104,-0.853165 0.480104,-1.145872 0,-2.108579 -1.610547,-3.817921 -3.597258,-3.817921 z M 4,20.831571 v 2.545279 h 14.389028 v -2.545279 z m 7.194513,3.817918 v 2.54528 h 7.194515 v -2.54528 z"
     id="path2"
     inkscape:connector-curvature="0"
     style="fill:#555753;stroke-width:1"
     sodipodi:nodetypes="ccccccccccccccccccccccccccccsccscccccccsscccccccccc" />
</svg>
