<?xml version="1.0" encoding="UTF-8" standalone="no"?>
<svg
   xmlns:dc="http://purl.org/dc/elements/1.1/"
   xmlns:cc="http://creativecommons.org/ns#"
   xmlns:rdf="http://www.w3.org/1999/02/22-rdf-syntax-ns#"
   xmlns:svg="http://www.w3.org/2000/svg"
   xmlns="http://www.w3.org/2000/svg"
   xmlns:sodipodi="http://sodipodi.sourceforge.net/DTD/sodipodi-0.dtd"
   xmlns:inkscape="http://www.inkscape.org/namespaces/inkscape"
   viewBox="0 0 32 32"
   version="1.1"
   id="svg4"
   sodipodi:docname="linenumberdialog.svg"
   inkscape:version="0.92.4 (5da689c313, 2019-01-14)"
   width="32"
   height="32">
  <metadata
     id="metadata10">
    <rdf:RDF>
      <cc:Work
         rdf:about="">
        <dc:format>image/svg+xml</dc:format>
        <dc:type
           rdf:resource="http://purl.org/dc/dcmitype/StillImage" />
        <dc:title></dc:title>
      </cc:Work>
    </rdf:RDF>
  </metadata>
  <defs
     id="defs8" />
  <sodipodi:namedview
     pagecolor="#ffffff"
     bordercolor="#666666"
     borderopacity="1"
     objecttolerance="10"
     gridtolerance="10"
     guidetolerance="10"
     inkscape:pageopacity="0"
     inkscape:pageshadow="2"
     inkscape:window-width="1366"
     inkscape:window-height="704"
     id="namedview6"
     showgrid="true"
     inkscape:zoom="13.906434"
     inkscape:cx="10.115636"
     inkscape:cy="15.758115"
     inkscape:window-x="0"
     inkscape:window-y="0"
     inkscape:window-maximized="1"
     inkscape:current-layer="svg4"
     inkscape:snap-global="true"
     inkscape:snap-page="true">
    <inkscape:grid
       type="xygrid"
       id="grid836"
       spacingx="0.5"
       spacingy="0.5"
       empspacing="2" />
  </sodipodi:namedview>
  <path
     d="m 25,3 c 0,1.3726413 -1.62736,3.0171541 -3,3.0171541 V 8 h 3 v 6 h 3 V 3 Z M 4,5 V 7 H 18 V 5 Z m 4.9914232,5 v 2 H 18 v -2 z m 0.5913818,4 c -1.6799098,1.711347 -1.7226818,2.752794 -1.7226818,4.639509 v 3.421854 L 4,25.860124 V 28 H 6.1398777 L 10,24.20124 h 3.421856 c 1.635715,0 3.866798,-0.490399 5.578144,-2.139877 V 20 h -2.317146 c -0.588642,0.784858 -1.512203,0.990657 -2.493275,0.991423 -1.722929,0 -3.119638,-1.39671 -3.119638,-3.119639 C 11.071441,16.89157 11.215827,15.969074 12,15.380946 V 14 Z m 15.160763,1.928223 C 22.672127,15.928223 21,17.92856 21,20 h 2.495712 c 0,-0.68632 0.561535,-1.576065 1.247856,-1.576065 0.686321,0 1.247855,0.561535 1.247855,1.247855 0,0.349399 -0.07449,0.524492 -0.224224,0.711668 L 21,25.952737 V 28 h 8 v -2.495712 h -4 l 3.127477,-3.585383 C 28.528555,21.544549 29,20.857253 29,19.67179 29,17.60035 26.815008,15.928223 24.743568,15.928223 Z"
     id="path2"
     inkscape:connector-curvature="0"
     style="fill:#555753;stroke-width:1"
     sodipodi:nodetypes="cccccccccccccccccccscccccsccccccccsccsscccccccss" />
</svg>
