<?xml version="1.0" encoding="UTF-8" standalone="no"?>
<svg
   xmlns:dc="http://purl.org/dc/elements/1.1/"
   xmlns:cc="http://creativecommons.org/ns#"
   xmlns:rdf="http://www.w3.org/1999/02/22-rdf-syntax-ns#"
   xmlns:svg="http://www.w3.org/2000/svg"
   xmlns="http://www.w3.org/2000/svg"
   xmlns:sodipodi="http://sodipodi.sourceforge.net/DTD/sodipodi-0.dtd"
   xmlns:inkscape="http://www.inkscape.org/namespaces/inkscape"
   viewBox="0 0 32 32"
   version="1.1"
   id="svg8"
   sodipodi:docname="numberingstart.svg"
   inkscape:version="0.92.4 (5da689c313, 2019-01-14)"
   width="32"
   height="32">
  <metadata
     id="metadata14">
    <rdf:RDF>
      <cc:Work
         rdf:about="">
        <dc:format>image/svg+xml</dc:format>
        <dc:type
           rdf:resource="http://purl.org/dc/dcmitype/StillImage" />
        <dc:title />
      </cc:Work>
    </rdf:RDF>
  </metadata>
  <defs
     id="defs12" />
  <sodipodi:namedview
     pagecolor="#ffffff"
     bordercolor="#666666"
     borderopacity="1"
     objecttolerance="10"
     gridtolerance="10"
     guidetolerance="10"
     inkscape:pageopacity="0"
     inkscape:pageshadow="2"
     inkscape:window-width="1366"
     inkscape:window-height="704"
     id="namedview10"
     showgrid="true"
     inkscape:zoom="27.812867"
     inkscape:cx="15.968165"
     inkscape:cy="22.382154"
     inkscape:window-x="0"
     inkscape:window-y="0"
     inkscape:window-maximized="1"
     inkscape:current-layer="svg8"
     inkscape:snap-page="true">
    <inkscape:grid
       type="xygrid"
       id="grid840"
       spacingx="0.5"
       spacingy="0.5" />
  </sodipodi:namedview>
  <g
     id="g6"
     style="fill:#555753;stroke-width:0.80447072"
     transform="matrix(1.2453703,0,0,1.2407407,1.0092593,1.731482)">
    <path
       d="m 19,13 c 0,1.1 -0.9,2 -2,2 v 2 h 2 v 5 h 2 V 13 Z M 2,14 v 2 h 11 v -2 z m 4,4 v 2 h 7 v -2 z"
       id="path2"
       inkscape:connector-curvature="0"
       style="stroke-width:0.80447072" />
    <path
       d="m 19,1 c -1.66,0 -3,1.34 -3,3 h 2 c 0,-0.55 0.45,-1 1,-1 0.55,0 1,0.45 1,1 0,0.28 -0.05969,0.4203125 -0.179688,0.5703125 L 16,9.359375 V 11 h 6 V 9 h -3.199219 l 2.5,-3.1992188 C 21.622196,5.5007813 22,4.95 22,4 22,2.34 20.66,1 19,1 Z M 2,3 V 5 H 13 V 3 Z m 6,4 v 2 h 5 V 7 Z"
       id="path4"
       inkscape:connector-curvature="0"
       style="opacity:0.35;stroke-width:0.80447072" />
  </g>
</svg>
