<?xml version="1.0" encoding="UTF-8" standalone="no"?>
<svg
   xmlns:dc="http://purl.org/dc/elements/1.1/"
   xmlns:cc="http://creativecommons.org/ns#"
   xmlns:rdf="http://www.w3.org/1999/02/22-rdf-syntax-ns#"
   xmlns:svg="http://www.w3.org/2000/svg"
   xmlns="http://www.w3.org/2000/svg"
   xmlns:sodipodi="http://sodipodi.sourceforge.net/DTD/sodipodi-0.dtd"
   xmlns:inkscape="http://www.inkscape.org/namespaces/inkscape"
   viewBox="0 0 32 32"
   version="1.1"
   id="svg4"
   sodipodi:docname="lc_redo.svg"
   inkscape:version="0.92.4 (5da689c313, 2019-01-14)"
   width="32"
   height="32">
  <metadata
     id="metadata10">
    <rdf:RDF>
      <cc:Work
         rdf:about="">
        <dc:format>image/svg+xml</dc:format>
        <dc:type
           rdf:resource="http://purl.org/dc/dcmitype/StillImage" />
        <dc:title></dc:title>
      </cc:Work>
    </rdf:RDF>
  </metadata>
  <defs
     id="defs8" />
  <sodipodi:namedview
     pagecolor="#ffffff"
     bordercolor="#666666"
     borderopacity="1"
     objecttolerance="10"
     gridtolerance="10"
     guidetolerance="10"
     inkscape:pageopacity="0"
     inkscape:pageshadow="2"
     inkscape:window-width="1366"
     inkscape:window-height="704"
     id="namedview6"
     showgrid="false"
     inkscape:zoom="4.9166667"
     inkscape:cx="-3.4639152"
     inkscape:cy="9.5445667"
     inkscape:window-x="0"
     inkscape:window-y="0"
     inkscape:window-maximized="1"
     inkscape:current-layer="svg4"
     inkscape:snap-page="true">
    <inkscape:grid
       type="xygrid"
       id="grid836"
       spacingx="0.5"
       spacingy="0.5" />
  </sodipodi:namedview>
  <path
     d="m 12.000001,6.0000004 c -0.4126,0 -0.736427,0.1203867 -1.000001,0.375 L 4.0000002,12.833334 v 2.273437 C 5.44462,16.384283 9.5553765,20.530828 11,21.625 11.263574,21.8796 11.587401,22 12.000001,22 h 0.781249 0.552084 v -1.333333 c 0,-0.34252 -0.173107,-0.704613 -0.416667,-0.958333 l -4.6796876,-4.375 H 21.333334 c 2.209139,0 4,1.790861 4,4 0,2.209138 -1.790861,4 -4,4 V 26 C 25.015232,26 28,23.015232 28,19.333334 28,15.651435 25.015232,12.666667 21.333334,12.666667 H 8.2369793 L 12.916667,8.2916671 c 0.24356,-0.25372 0.416667,-0.6253814 0.416667,-0.9583333 V 6.0000004 H 12.78125 Z"
     id="path2"
     inkscape:connector-curvature="0"
     style="fill:#555753;stroke-width:1" />
</svg>
