<?xml version="1.0" encoding="UTF-8" standalone="no"?>
<svg
   xmlns:dc="http://purl.org/dc/elements/1.1/"
   xmlns:cc="http://creativecommons.org/ns#"
   xmlns:rdf="http://www.w3.org/1999/02/22-rdf-syntax-ns#"
   xmlns:svg="http://www.w3.org/2000/svg"
   xmlns="http://www.w3.org/2000/svg"
   xmlns:sodipodi="http://sodipodi.sourceforge.net/DTD/sodipodi-0.dtd"
   xmlns:inkscape="http://www.inkscape.org/namespaces/inkscape"
   viewBox="0 0 32 32"
   version="1.1"
   id="svg4"
   sodipodi:docname="undo.svg"
   inkscape:version="0.92.4 (5da689c313, 2019-01-14)"
   width="32"
   height="32">
  <metadata
     id="metadata10">
    <rdf:RDF>
      <cc:Work
         rdf:about="">
        <dc:format>image/svg+xml</dc:format>
        <dc:type
           rdf:resource="http://purl.org/dc/dcmitype/StillImage" />
        <dc:title />
      </cc:Work>
    </rdf:RDF>
  </metadata>
  <defs
     id="defs8" />
  <sodipodi:namedview
     pagecolor="#ffffff"
     bordercolor="#666666"
     borderopacity="1"
     objecttolerance="10"
     gridtolerance="10"
     guidetolerance="10"
     inkscape:pageopacity="0"
     inkscape:pageshadow="2"
     inkscape:window-width="1366"
     inkscape:window-height="704"
     id="namedview6"
     showgrid="true"
     inkscape:zoom="27.812867"
     inkscape:cx="11.968722"
     inkscape:cy="13.80825"
     inkscape:window-x="0"
     inkscape:window-y="0"
     inkscape:window-maximized="1"
     inkscape:current-layer="svg4"
     inkscape:snap-page="true">
    <inkscape:grid
       type="xygrid"
       id="grid836"
       spacingx="0.5"
       spacingy="0.5" />
  </sodipodi:namedview>
  <path
     d="m 19.999999,6.0000004 c 0.4126,0 0.736427,0.1203867 1.000001,0.375 l 7,6.4583336 v 2.273437 C 26.55538,16.384283 22.444624,20.530828 21,21.625 20.736426,21.8796 20.412599,22 19.999999,22 H 19.21875 18.666666 v -1.333333 c 0,-0.34252 0.173107,-0.704613 0.416667,-0.958333 l 4.679688,-4.375 H 10.666666 c -2.2091388,0 -3.9999998,1.790861 -3.9999998,4 0,2.209138 1.624195,4 3.8333338,4 V 26 c -3.6818978,0 -6.4999998,-2.984768 -6.4999998,-6.666666 0,-3.681899 2.984768,-6.666667 6.6666658,-6.666667 H 23.763021 L 19.083333,8.2916671 C 18.839773,8.0379471 18.666666,7.6662857 18.666666,7.3333338 V 6.0000004 h 0.552084 z"
     id="path2"
     inkscape:connector-curvature="0"
     style="fill:#555753;stroke-width:1"
     sodipodi:nodetypes="sccccsccsccssccssccsccs" />
</svg>
