<svg viewBox="0 0 24 24" xmlns="http://www.w3.org/2000/svg"><g fill="#aaa8ac"><path d="m6 2c-1.6446994 0-3 1.3553016-3 3v15c0 1.644698 1.3553006 3 3 3h2.96875v-1.525391c.0000321-.16026.0171987-.31884.0449219-.474609h-3.0136719c-.5712964 0-1-.428701-1-1v-15c0-.5712994.4287036-1 1-1h7v3c0 .999999 1.000001 2 2 2h3v2.320312l1.384766-1.3847651c.189932-.1899364.397864-.3478688.615234-.4804688v-1.9550781c-.000051-.2651983-.105433-.51952-.292969-.7070312l-4.5-4.5c-.187511-.1875366-.441832-.2929174-.707031-.2929688zm14 16.679688-4.320312 4.320312h1.320312c1.644699 0 3-1.355302 3-3z"/><path d="m21.53646 10.015205c-.49097.006-.9906.19654-1.4326.63855l-9.6229 9.62291c-.31768.31764-.4962.74845-.49629 1.19769v2.54097h2.54097c.44924-.00008.88005-.1786 1.1977-.49629l9.62291-9.6229c1.51544-1.51544.07-3.71839-1.5997-3.87266-.0695-.007-.13995-.009-.21008-.008zm-1.50539 3.05545.89828.89827-.44831.44996-7.08193 7.08194-.44997.44831-.89828-.89827.44831-.44997 7.08194-7.08193z" stroke-width=".999998"/></g></svg>