<svg viewBox="0 0 24 24" xmlns="http://www.w3.org/2000/svg"><g fill="#aaa8ac"><path d="m5 2.5c-1.6447 0-3 1.3553-3 3v13c0 1.6447 1.3553 3 3 3h14c1.6447 0 3-1.3553 3-3v-13c0-1.6447-1.3553-3-3-3zm0 2h14c.5713 0 1 .4287 1 1v13c0 .5713-.4287 1-1 1h-14c-.5713 0-1-.4287-1-1v-13c0-.5713.4287-1 1-1z"/><path d="m8.5 6a1.5 1.5 0 0 0 -1.5 1.5 1.5 1.5 0 0 0 1.5 1.5 1.5 1.5 0 0 0 1.5-1.5 1.5 1.5 0 0 0 -1.5-1.5zm6.125 5-3.5 3.5-2.625-1.75-3.5 3.5v.875c0 .874999.875.875.875.875h12.25s.827575-.059851.875-.875v-1.75z" stroke-width="1.75"/></g></svg>