<svg viewBox="0 0 24 24" xmlns="http://www.w3.org/2000/svg"><path d="m12 1v12h.001953 1.998047 3c2.199998 0 4-1.800002 4-4 0-2.1999978-1.800002-4-4-4h-3v-4zm-8 4v2h4v1h-3c-1.6568525 0-3 .8431477-3 2.5 0 1.656852 1.3431475 2.5 3 2.5h5v-6c0-1.1045689-.8954311-2-2-2zm10 2h3c1.104568 0 2 .8954316 2 2 0 1.104568-.895432 2-2 2h-3v-1zm-9.3886719 3c.1196383-.0037277.2506009 0 .3886719 0h3v1h-3c-.5522841 0-1 .052284-1-.5 0-.414213.2524134-.488817.6113281-.5zm-.8789062 5-1.7324219 2.597656v1.402344h.2675781l.1484375-.222656 1.5839844-2.375 1.5839844 2.375.1484375.222656h.2675781.2675781l.1484375-.222656 1.5839844-2.375 1.5839844 2.375.1484375.222656h.2675781.267578l.148438-.222656 1.583984-2.375 1.583984 2.375.148438.222656h.267578.267578l.148438-.222656 1.583984-2.375 1.583984 2.375.148438.222656h.267578.267578l.148438-.222656 1.583984-2.375 1.583984 2.375.148438.222656h.267578v-1.402344l-1.732422-2.597656h-.267578-.267578l-1.732422 2.597656-1.732422-2.597656h-.267578-.267578l-1.732422 2.597656-1.732422-2.597656h-.267578-.267578l-1.732422 2.597656-1.7324219-2.597656h-.2675781-.2675781l-1.7324219 2.597656-1.7324219-2.597656h-.2675781z" fill="#aaa8ac"/></svg>