<svg viewBox="0 0 24 24" xmlns="http://www.w3.org/2000/svg"><g fill="#aaa8ac"><path d="m11 5v10.585938l-3.2929688-3.292969c-.1874998-.18755-.4418315-.292929-.7070312-.292969-.2651997.00004-.5195314.105419-.7070312.292969-.3904197.390509-.3904197 1.023553 0 1.414062l5.0000002 5c.390529.39037 1.023533.39037 1.414062 0l5-5c.39042-.390509.39042-1.023553 0-1.414062-.390509-.39042-1.023553-.39042-1.414062 0l-3.292969 3.292969v-10.585938zm-8 15v2h18v-2z"/><path d="m7.5 2c-.2769997 0-.5.2230003-.5.5v1c0 .2769997.2230003.5.5.5h1c.2769997 0 .5-.2230003.5-.5v-1c0-.2769997-.2230003-.5-.5-.5zm4 0c-.277 0-.5.2230003-.5.5v1c0 .2769997.223.5.5.5h1c.277 0 .5-.2230003.5-.5v-1c0-.2769997-.223-.5-.5-.5zm4 0c-.277 0-.5.2230003-.5.5v1c0 .2769997.223.5.5.5h1c.277 0 .5-.2230003.5-.5v-1c0-.2769997-.223-.5-.5-.5z"/></g></svg>