<svg viewBox="0 0 24 24" xmlns="http://www.w3.org/2000/svg"><path d="m12 1v12h.002 1.998 3c2.2 0 4-1.8 4-4s-1.8-4-4-4h-3v-4zm-8 4v2h4v1h-3c-1.6568542 0-3 .843146-3 2.5s1.3431458 2.5 3 2.5h5v-6c0-1.10457-.89543-2-2-2zm10 2h3c1.104569 0 2 .8954305 2 2 0 1.104569-.895431 2-2 2h-3v-1zm-9 3h3v1h-3c-.5522847 0-1 .052285-1-.5s.4477153-.5 1-.5zm14.740632 3.299426-5.740632 5.700574-2-2c-1.26498-1.165544-3.1294987.801942-2 2l4 4 7.740632-7.700574c.949885-.890691-.945095-3.006021-2-2z" fill="#aaa8ac"/></svg>