<svg viewBox="0 0 24 24" xmlns="http://www.w3.org/2000/svg"><path d="m5 2c-.5539982 0-.9497046.4366898-1 1v1 3.5c0 .8284247.6721095 1.5297447 1.5 1.5h.5v-3.5c0-.999997.500003-1.5 1.5-1.5h3.5v9.5l1 .5h1v-10h3.5c.999997 0 1.5.500003 1.5 1.5v2.1328125c.01477-.0165982.030187-.0342528.044922-.0507813.07131-.0799893.144663-.1632179.222656-.25a1.0001687 1.0001687 0 0 1 .744141-.3320312h.988281v-3-1c0-.5655511-.446003-1-1-1h-3zm14.011719 6c-.07308.081315-.146374.1646716-.220703.2480469-.861846.9667351-1.795637 2.0591031-2.509766 3.0019531-.19095.19768-.28125.44055-.28125.75v.585938.414062h1c.25689 0 .52845-.12983.71875-.3125l1.28125-1.6875v5h2v-5l1.28125 1.6875c.19029.18267.46186.3125.71875.3125h1v-.414062-.585938c0-.30945-.0903-.55232-.28125-.75l-2.6875-3.25zm-17.011719 2.285156v11.714844h11.673828c-.572433-.652939-1.148893-1.338179-1.675781-2h-7.998047v-6.5l7 4.136719v-.222657-.414062a1.0001687 1.0001687 0 0 1 1-1h.244141zm13 3.714844v5l-1.28125-1.6875c-.1903-.18267-.46186-.3125-.71875-.3125h-1v.414062.585938c.01313.309172.0903.55232.28125.75.775719 1.024165 1.810028 2.225839 2.730469 3.25h2.019531l2.6875-3.25c.19095-.19768.28125-.44055.28125-.75v-.585938-.414062h-1c-.256867.0034-.52846.12983-.71875.3125l-1.28125 1.6875v-5zm4.802734 6.216797-1.472656 1.783203h2.669922v-1.115234z" fill="#aaa8ac"/></svg>