<svg viewBox="0 0 16 16" xmlns="http://www.w3.org/2000/svg"><path d="m4.5 0c-.277 0-.5.223-.5.5v1c0 .277.223.5.5.5h1c.277 0 .5-.223.5-.5v-1c0-.277-.223-.5-.5-.5zm3 0c-.277 0-.5.223-.5.5v1c0 .277.223.5.5.5h1c.277 0 .5-.223.5-.5v-1c0-.277-.223-.5-.5-.5zm3 0c-.277 0-.5.223-.5.5v1c0 .277.223.5.5.5h1c.277 0 .5-.223.5-.5v-1c0-.277-.223-.5-.5-.5zm-3.5 3v6.58594l-1.29297-1.29297c-.1875-.18755-.44183-.29293-.70703-.29297-.2652.00004-.51953.10542-.70703.29297-.39042.39051-.39042 1.02355 0 1.41406l3 3c.39053.39037 1.02353.39037 1.41406 0l3-3c.39042-.39051.39042-1.02355 0-1.41406-.39051-.39042-1.02355-.39042-1.41406 0l-1.29297 1.29297v-6.58594zm-6 11v2h14v-2z" fill="#aaa8ac"/></svg>