<svg viewBox="0 0 128 128" xmlns="http://www.w3.org/2000/svg"><path d="m18.000147 5.9918v2 112 2h1.999997 88.000006 2v-2-70-.8752l-.62497-.6248-41.750007-42-.499969-.5h-.875016-46.250044z" fill="#fff"/><g fill="#555753"><path d="m17.251953 0c-.250372 0-.500728.01116555-.75.03515625-3.667081.69972875-4.565758 2.26629355-4.5 5.99804685v115.9687469c.0004 4.1875 1.811496 5.99765 6 5.99805h91.998047c4.18852-.0004 5.99765-1.81055 5.99805-5.99805v-71.818356c.048-2.111901-.78004-4.230236-2.25-5.748047l-42.160159-42.1503908c-1.51819-1.46919044-3.637588-2.29894098-5.75-2.24999995h-47.835938c-.249192-.0239907-.499628-.03515625-.75-.03515625zm.748047 5.9921875h2 46.25.875l.5.5 41.75 42.0000005.625.625v.875 70.000002 2h-2-88-2v-2-112.0000025z"/><path d="m86.634994.06163285c-2.662473.85278942-3.558524 4.90601815-1.505951 6.81207925l24.095137 24.2209309c2.22593 2.121657 6.65946.306281 6.77674-2.775324v-24.220851c-.00024-2.1136607-1.91322-4.03659524-4.01587-4.03683515h-24.095136c-.415187-.0639752-.839973-.0639752-1.25492 0z"/><path d="m62 59.998047c-.5523.0001-.9999.4477-1 1v18.076172l2 3.220703v-20.296875h30v30h-23.978516l1.242188 2h23.736328c.5523-.0001.9999-.4477 1-1v-32c-.0001-.5523-.4477-.9999-1-1z"/><path d="m54 70.248047-8.759766 14.294922-9.253906 14.457031h2.013672v.986328l.236328-.380859 8.742188-14.144531 8.982422-14.460938h-1.960938zm4 .074219v.677734h-2.007812l8.984374 14.460938 2.767579 4.478515 6.246093 10.062497h-.027343l.011718.01758h-17.998047-17.976562v1.97852h17.976562 18.023438v-2.99805h1.777344l-9.0625-14.457031z"/><path d="m53 66v6h6v-6zm1 1h4v4h-4zm-21 31v6h6v-6zm40 0v6h6v-6zm-39 1h4v4h-4zm40 0h4v4h-4z"/><path d="m50 48a20 20 0 0 0 -20 20 20 20 0 0 0 15.742188 19.515625l1.123046-1.808594a18 18 0 0 1 -14.865234-17.707031 18 18 0 0 1 18-18 18 18 0 0 1 16.949219 11.998047h2.125a20 20 0 0 0 -19.074219-13.998047zm13 32.419922a18 18 0 0 1 -.732422.695312l.732422 1.179688z"/></g></svg>