<svg height="128" viewBox="0 0 128 128" width="128" xmlns="http://www.w3.org/2000/svg"><path d="m18.000147 5.9918v2 112 2h1.999997 88.000006 2v-2-70-.8752l-.62497-.6248-41.750007-42-.499969-.5h-.875016-46.250044z" fill="#fff"/><g fill="#555753"><path d="m17.251953 0c-.250371 0-.500725.01115625-.75.03515625-3.66708.69973-4.56576 2.26628685-4.5 5.99804685v115.9687469c.0004 4.1875 1.8115 5.99765 6 5.99805h78.386719c-.842553-.73495-1.388672-1.80191-1.388672-3v-3.00781h-75-2v-2-112.0000025-2h2 46.25.875l.5.5 41.75 42.0000005.625.625v.875 42.199218c.64974-.120134 1.31613-.191406 2-.191406 1.41107 0 2.75703.276949 3.99805.763672v-42.580078c.048-2.1119-.78004-4.230237-2.25-5.748047l-42.160159-42.1503908c-1.51819-1.4691899-3.63759-2.29893995-5.75-2.24999995h-47.835938c-.24919-.024-.499629-.03515625-.75-.03515625zm94.748047 98c-.71339 0-1.38754.15188-2 .417969v9.582031h5.99805v-7.98242c-.90944-1.219929-2.35015-2.01758-3.99805-2.01758z"/><path d="m86.63499.06162c-2.66247.85279-3.55852 4.90602-1.50595 6.81208l24.09514 24.22093c2.22593 2.12166 6.65946.30628 6.77674-2.77532v-24.22085c-.00024-2.11366-1.91322-4.0366-4.01587-4.03684h-24.09514c-.41518-.064-.83997-.064-1.25492 0z"/><path d="m61.12046 94.99869-12.12121 7.9999h4.8844l2.69908-.5569 9.4165-7.443z"/><path d="m64.99923 94.99869 12 7.9999h-5.00561l-2.5431-.4389-9.45128-7.561z"/><path d="m60.12045 94.99869-12.12121 7.9999h5.87879l10.12122-7.9999z"/><path d="m59.99918 92.99859h6v3h-6z"/><path d="m65.99924 94.99869 12 7.9999h-6l-10.00001-7.9999z"/><path d="m31 47.998047v46h64v-46zm3 2h58c.554 0 1 .446 1 1v40c0 .554-.446 1-1 1h-58c-.554 0-1-.446-1-1v-40c0-.554.446-1 1-1z"/></g><rect fill="none" height="42.000023" rx="1" width="60" x="32.999264" y="49.998558"/><rect fill="none" height="31.427435" rx="2" transform="rotate(90)" width="15.674944" x="76.323631" y="-78.426689"/><g fill="#555753"><path d="m43.99924 68.99859h15v4h-15z"/><path d="m43.99924 75.99859h15v4h-15z"/><path d="m43.99924 82.99859h15v4h-15z"/><path d="m40.999261 71.001854a1.999997 1.999998 0 0 1 -1.999997 1.999998 1.999997 1.999998 0 0 1 -1.999997-1.999998 1.999997 1.999998 0 0 1 1.999997-1.999998 1.999997 1.999998 0 0 1 1.999997 1.999998z"/><path d="m40.999261 78.001854a1.999997 1.999998 0 0 1 -1.999997 1.999998 1.999997 1.999998 0 0 1 -1.999997-1.999998 1.999997 1.999998 0 0 1 1.999997-1.999998 1.999997 1.999998 0 0 1 1.999997 1.999998z"/><path d="m40.999261 85.001854a1.999997 1.999998 0 0 1 -1.999997 1.999998 1.999997 1.999998 0 0 1 -1.999997-1.999998 1.999997 1.999998 0 0 1 1.999997-1.999998 1.999997 1.999998 0 0 1 1.999997 1.999998z"/><path d="m36.99924 53.99859h51.99997v4h-51.99997z"/><path d="m63 68.998047v18h26v-18zm2 2h22v14h-22z"/></g><path d="m67.49924 82.49859 5.5-5.5 4 4 7.5-7.5" fill="none" stroke="#555753" stroke-linecap="round" stroke-linejoin="round" stroke-width="1.5"/><g fill="#555753"><path d="m46.99924 60.99859h32v4h-32z"/><path d="m112 93c-5.52285 0-10 4.477153-10 10v6h-3c-1.662 0-3 1.338-3 3v13c0 1.662 1.338 3 3 3h26c1.662 0 3-1.338 3-3v-13c0-1.662-1.338-3-3-3h-3v-6c0-5.522847-4.47715-10-10-10zm0 4c3.31371 0 6 2.686291 6 6v6h-12v-6c0-3.313709 2.68629-6 6-6z"/></g></svg>