<svg height="32" viewBox="0 0 32 32" width="32" xmlns="http://www.w3.org/2000/svg"><g fill="#555753"><circle cx="11" cy="18" opacity=".35" r="0"/><path d="m9 2c-2.5742749-.0000036-4.9956907 1.0839322-5 3.6582031-.1109325 7.2803809.1111697 14.5614189 0 21.8417969-.0225559 1.477158 1.5226704 2.5 3 2.5h18.835938l-2.09375-2h-17.742188v-19h20v14.695312l2 2.09375v-18.789062h-1v-2h-1v-3h-.619141-1.380859zm0 2h15v1h-15v1h15 1v1h-16v-.0078125c-1.1291518-.083871-1.9992533-.4505722-2-1.4921875.0007467-1.0416153.8708482-1.4083174 2-1.4921875zm0 11v2h2 2v1h-2.5-.5v.050781c-1.1638781.237577-1.9998714 1.261341-2 2.449219.00198 1.18641.8375583 2.262719 2 2.5h.5 2.5.796875c-.162715-.142865-.332465-.269809-.490234-.421875a1.0001 1.0001 0 0 1 -.306641-.720703v-.857422h-2.5c-.276142 0-.5-.223858-.5-.5s.223858-.5.5-.5h2.5a1.0001 1.0001 0 0 1 1-1h1v-2c0-1.104569-.895431-2-2-2zm8 0v2h1.132812a1.0001 1.0001 0 0 1 -.132812-.496094v-1.503906zm5.181641 0c.62306.734765 1.139389 1.503118 1.451171 2.326172l.367188-.326172v-2h-.943359zm-2.785157 3.869141-1.751953 1.558593c.351147-.000717.833446-.214305 1.201172-.582031.294911-.294911.484444-.661118.550781-.976562z" stroke-width="1.33333"/><path d="m19.000001 15v1.503906c.628416.471311 1.426506 1.353154 1.427734 2.138672 0 1.380712-1.404444 2.785156-2.785157 2.785156-.786206-.000614-1.668902-.798769-2.140625-1.427734h-1.501953v1.857422c1.371429 1.321851 2.948245 2.19988 4.257812 2.142578h2.742189l6.285156 6h1.714844v-1.714844l-6-6.285156v-2.742188c0-1.511964-.796341-2.886383-2.142578-4.257812z"/></g></svg>