<svg height="32" viewBox="0 0 32 32" width="32" xmlns="http://www.w3.org/2000/svg"><path d="m16 29c-1.104569 0-2-.895431-2-2 0-1.10457.895431-2 2-2s2 .89543 2 2c0 1.104569-.895431 2-2 2zm0-6c-1.104569 0-2-.895431-2-2s.895431-2 2-2 2 .895431 2 2-.895431 2-2 2zm0-6c-1.104569 0-2-.895431-2-2s.895431-2 2-2 2 .895431 2 2-.895431 2-2 2zm-10-2v-.414062-.585938c0-.30945.1127716-.516365.28125-.75l9.71875-10.25 9.71875 10.25c.168478.233635.28125.44055.28125.75v.585938.414062h-1c-.215014 0-.52846-.12983-.71875-.3125l-8.28125-8.6875-8.28125 8.6875c-.19029.18267-.5037361.3125-.71875.3125z" fill="#555753"/></svg>