<svg height="42" viewBox="0 0 12.170833 11.1125" width="46" xmlns="http://www.w3.org/2000/svg"><g fill="#eae7e5" stroke-linecap="square" stroke-opacity=".5" stroke-width=".2585"><path d="m0 0h6.085417v5.55625h-6.085417z"/><path d="m0 5.55625h6.085417v5.55625h-6.085417z"/><path d="m6.085416 0h6.085417v5.55625h-6.085417z"/><path d="m6.085416 5.55625h6.085417v5.55625h-6.085417z"/></g><g fill="#2e3436"><path d="m.79375001 1.3229167c0-.4351602.35858719-.79375.79374999-.79375h1.3229166c.4351602 0 .79375.3585898.79375.79375a.26458333.26458333 0 0 1 -.2645833.2645833.26458333.26458333 0 0 1 -.2645833-.2645833c0-.1511538-.1134269-.2645833-.2645834-.2645833h-1.3229166c-.1511591 0-.2645833.1134295-.2645833.2645833v1.3229166c0 .1511565.1134242.2645834.2645833.2645834a.26458333.26458333 0 0 1 .2645833.2645833.26458333.26458333 0 0 1 -.2645833.2645833c-.4351628 0-.79374999-.3585898-.79374999-.79375zm1.32291659 1.3229166c0-.4351602.3585898-.79375.79375-.79375h1.3229167c.4351602 0 .79375.3585898.79375.79375v1.3229167c0 .4351628-.3585898.79375-.79375.79375h-1.3229167c-.4351602 0-.79375-.3585872-.79375-.79375zm.5291667 0v1.3229167c0 .1511564.1134269.2645833.2645833.2645833h1.3229167c.1511564 0 .2645833-.1134269.2645833-.2645833v-1.3229167c0-.1511538-.1134269-.2645833-.2645833-.2645833h-1.3229167c-.1511564 0-.2645833.1134295-.2645833.2645833z" stroke-linecap="round" stroke-width=".264583"/><path d="m7.9292316.79374996s-.7854817.00000159-.7854817.78548174v2.1249349s.0000001.1322916.082682.1901692l.4464846.4464844v-2.7533203c0-.2645828.2645833-.2645833.2645833-.2645833v.79375c0 .1465788.1180045.2645833.2645833.2645833h1.5875c.1465784 0 .2645839-.1180045.2645839-.2645833v-.79375s.264583.0000005.264583.2645833v2.1166667c0 .2645828-.264583.2645833-.264583.2645833h-.2645839v.5291667h.2645839s.79375-.0000016.79375-.7854818v-2.1332031s-.000002-.78548174-.785482-.78548174zm.2728515.52916664h1.5875v.79375h-1.5875zm0 1.5875c-.1467608 0-.2645833.1178224-.2645833.2645833v1.0583333c0 .1467607.1178225.2645834.2645833.2645834h1.0583334c.1467609 0 .2645833-.1178227.2645833-.2645834v-1.0583333c0-.1467609-.1178224-.2645833-.2645833-.2645833zm0 .2645833h.5291667v1.0583333h-.5291667z" stroke-width=".264583"/><path d="m8.2020834 6.35a.26458227.26458227 0 0 0 -.2645833.2645833v.2645833h2.1166669v-.2645833a.26458227.26458227 0 0 0 -.2645836-.2645833zm-.79375.7937499c-.2931583 0-.5291666.2360084-.5291666.5291667v1.0583333c0 .2931583.2360083.5291667.5291666.5291667v.2645833c0 .288581.2405857.5291661.5291667.5291661h2.1166669c.288583 0 .529166-.2405851.529166-.5291661v-.2645833c.293159 0 .529167-.2360084.529167-.5291667v-1.0583333c0-.2931583-.236008-.5291667-.529167-.5291667zm.5291667 1.5875h2.1166669v.79375h-2.1166669z" stroke-width=".264583"/><g transform="matrix(.26458333 0 0 .26458333 1.058333 6.085416)"><path d="m3 1c-1.644531 0-3 1.355469-3 3v8c0 1.644531 1.355469 3 3 3h8.882812c.832032 0 1.578126-.402344 2.054688-.9375.472656-.53125.738281-1.167969.910156-1.800781l.972656-2.609375c.390626-1.449219-.09375-2.652344-.820312-3.167969-.484375-.34375-.714844-.292969-1-.324219v-1.160156c0-.855469-.558594-1.589844-1.09375-1.828125-.53125-.238281-1.011719-.167969-1.011719-.167969l.105469-.003906h-3.585938l-1.707031-1.707031c-.1875-.1875-.441406-.292969-.707031-.292969zm0 2h2.585938l1.707031 1.707031c.1875.1875.441406.292969.707031.292969h4c.03516 0 .07031-.00391.105469-.00781 0 0 .01953.019531-.01172.00391-.035155-.011725-.093749-.250006-.093749.0039v2c0 .550781.449219 1 1 1 1 0 1.046875.703125.886719 1.128906l-.972657 2.609375c-.117187.4375-.296874.800781-.472656.996094-.175781.199219-.285156.265625-.558594.265625h-8.882812c-.570312 0-1-.429688-1-1v-8c0-.5.5-1 1-1z"/><path d="m7 6 .042969.00391c-.914063-.042972-1.75.390621-2.195313.968746-.710937 1.222656-1.15625 2.277344-1.800781 3.71875-.171875.523438.117187 1.089844.640625 1.261719.527344.171875 1.09375-.117187 1.261719-.640625.488281-1.011719.921875-1.816406 1.339843-2.808594.210938-.503906.703126-.492187.898438-.503906h5.8125c.550781 0 1-.449219 1-1s-.449219-1-1-1zm0 0"/></g></g></svg>